<?xml version="1.0" encoding="UTF-8"?>
<svg version="1.1" xmlns="http://www.w3.org/2000/svg" width="512" height="512">
<path d="M0 0 C3.12916651 0.03444819 6.25551779 0.02056425 9.38476562 0.0012207 C27.59219165 0.01341802 41.62635831 2.97543107 55.31445312 15.90942383 C60.66145908 21.52378008 64.15216028 27.87617651 67.58862305 34.76269531 C67.94736008 35.48126205 68.30609711 36.1998288 68.67570496 36.94017029 C68.94836685 37.48689896 69.22102875 38.03362762 69.50195312 38.59692383 C70.08109467 38.60279007 70.66023621 38.60865631 71.25692749 38.61470032 C77.32507831 38.6790022 83.3927167 38.76351341 89.46044922 38.859375 C91.72014579 38.8924776 93.97992214 38.92055441 96.23974609 38.94335938 C99.50197103 38.977176 102.76347451 39.02950499 106.02539062 39.08520508 C107.52288345 39.09478996 107.52288345 39.09478996 109.05062866 39.10456848 C120.60757769 39.34280049 129.97589741 42.4835831 138.47851562 50.44848633 C143.7294452 56.056926 146.69758777 62.17402446 148.50195312 69.59692383 C160.0324606 67.20686605 171.53213433 64.71702936 183.00317001 62.05623817 C187.06645603 61.11509416 191.13210363 60.18422147 195.19726562 59.2512207 C200.30652043 58.07781304 205.41506343 56.90150564 210.52148438 55.71582031 C214.71070912 54.74338718 218.90199067 53.78030035 223.09473038 52.8231411 C224.67010836 52.46174196 226.2447332 52.09704073 227.81850815 51.72872353 C254.88866672 45.39859679 254.88866672 45.39859679 263.50195312 50.59692383 C268.8438184 54.13618436 272.8079565 58.31917162 274.50195312 64.59692383 C275.49778453 72.46962868 274.98395316 79.17120333 271.47460938 86.31567383 C265.64087742 93.06200939 257.10052211 96.28138538 248.97460938 99.40551758 C247.85719864 99.84519363 246.7397879 100.28486969 245.58851624 100.73786926 C242.55049272 101.93123746 239.50903984 103.11528917 236.46585846 104.29542542 C233.24868104 105.54581057 230.03637366 106.80857751 226.82373047 108.07055664 C222.80660348 109.64770689 218.78903879 111.2237014 214.76940918 112.79446411 C205.42074442 116.44767693 196.08387828 120.12960202 186.75585938 123.83520508 C186.11652781 124.08914473 185.47719624 124.34308437 184.81849098 124.60471916 C181.64624171 125.86483707 178.47417255 127.1254075 175.30221558 128.38626099 C166.19040602 132.0075756 157.07545385 135.62087925 147.9576416 139.22705078 C144.90503613 140.43713728 141.85450877 141.6522364 138.80480385 142.8696022 C136.25563489 143.88609436 133.70480475 144.89837194 131.15365219 145.90987396 C129.36106998 146.62217089 127.5705302 147.33960113 125.78005981 148.05718994 C124.68265472 148.4915033 123.58524963 148.92581665 122.45458984 149.37329102 C121.49608124 149.75523621 120.53757263 150.1371814 119.55001831 150.53070068 C112.29532972 153.06841442 105.94750312 153.96256834 98.30273438 153.92480469 C96.80955437 153.91926402 96.80955437 153.91926402 95.28620911 153.91361141 C83.65116818 153.74033852 72.18113349 152.3100229 60.64951897 150.84961891 C56.54846792 150.33307233 52.44546404 149.83668773 48.34095764 149.34855652 C47.63157274 149.26417574 46.92218783 149.17979496 46.19130641 149.09285718 C44.73778318 148.92011869 43.28424528 148.74750365 41.83069313 148.57500875 C39.6089644 148.31104197 37.38738696 148.04583269 35.1658411 147.78033161 C-18.59633486 141.36104231 -71.38943141 136.93020248 -125.609375 137.45458984 C-127.14904481 137.46840966 -127.14904481 137.46840966 -128.71981907 137.48250866 C-133.47375127 137.52818022 -138.22542373 137.59345195 -142.97825623 137.7063446 C-144.61628142 137.73469152 -146.2543073 137.76299918 -147.89233398 137.79125977 C-148.62819229 137.81622308 -149.3640506 137.84118639 -150.12220764 137.86690617 C-155.03378718 137.93407495 -155.03378718 137.93407495 -157.18355942 136.3728838 C-158.88631306 134.07235039 -158.87283564 132.73201566 -158.87226868 129.8837738 C-158.87928299 128.91491241 -158.8862973 127.94605103 -158.89352417 126.9478302 C-158.88588043 125.88642319 -158.87823669 124.82501617 -158.87036133 123.73144531 C-158.87401199 122.6125592 -158.87766266 121.4936731 -158.88142395 120.34088135 C-158.88954679 116.63310692 -158.87590535 112.9257671 -158.86132812 109.21801758 C-158.86080977 106.64876811 -158.86132653 104.07951824 -158.86283875 101.51026917 C-158.86274895 96.12250384 -158.85264017 90.73489859 -158.83422852 85.34716797 C-158.81305006 79.11402078 -158.80955325 72.8810578 -158.81579047 66.64788193 C-158.82148021 60.65549049 -158.81573969 54.6631811 -158.80461693 48.67079353 C-158.80075721 46.11860478 -158.79961989 43.56641046 -158.80120277 41.01421928 C-158.80157197 37.45370657 -158.78899437 33.89347801 -158.77270508 30.33300781 C-158.7751825 29.26957657 -158.77765991 28.20614532 -158.7802124 27.11048889 C-158.77312759 26.14444733 -158.76604279 25.17840576 -158.75874329 24.18309021 C-158.75669042 23.34078071 -158.75463755 22.4984712 -158.75252247 21.63063717 C-158.49804688 19.59692383 -158.49804688 19.59692383 -156.49804688 17.59692383 C-154.64729786 17.34638405 -154.64729786 17.34638405 -152.35639954 17.34536743 C-151.48869431 17.33998459 -150.62098907 17.33460175 -149.72698975 17.32905579 C-148.77270081 17.33317978 -147.81841187 17.33730377 -146.83520508 17.34155273 C-145.83178574 17.33793228 -144.82836639 17.33431183 -143.79454041 17.33058167 C-141.60975875 17.32367459 -139.42495978 17.32118467 -137.24016762 17.32252884 C-133.78085734 17.32349133 -130.32186018 17.31058348 -126.8625946 17.29354858 C-117.02503926 17.24719936 -107.18751419 17.22267741 -97.34985352 17.21606445 C-91.33683737 17.21104706 -85.32414553 17.1867804 -79.31123924 17.15073776 C-77.01998022 17.14094059 -74.72867656 17.13860734 -72.43740273 17.14390945 C-69.22720406 17.15098696 -66.017969 17.13368104 -62.80786133 17.11108398 C-61.39160965 17.12334267 -61.39160965 17.12334267 -59.94674683 17.135849 C-51.78966313 17.03388604 -47.36239743 14.15174953 -40.99804688 9.15942383 C-28.22105402 0.32741846 -15.04128926 -0.18317095 0 0 Z " fill="#F8CECE" transform="translate(167.498046875,357.403076171875)"/>
<path d="M0 0 C2.25384172 2.29070362 2.95540057 3.57422412 3.29296875 6.796875 C3.25816406 7.77140625 3.22335937 8.7459375 3.1875 9.75 C3.14689453 11.22726563 3.14689453 11.22726563 3.10546875 12.734375 C3.07066406 13.48203125 3.03585937 14.2296875 3 15 C3.87140625 15.09796875 4.7428125 15.1959375 5.640625 15.296875 C25.83524705 17.83213058 41.8644508 25.51819095 56 40 C56.81210937 40.80308594 57.62421875 41.60617188 58.4609375 42.43359375 C67.7409652 52.07785462 78 67.96800892 78 82 C79.26457031 81.96519531 80.52914062 81.93039062 81.83203125 81.89453125 C83.49217423 81.86639323 85.15233156 81.83909309 86.8125 81.8125 C87.64587891 81.78736328 88.47925781 81.76222656 89.33789062 81.73632812 C90.14033203 81.72666016 90.94277344 81.71699219 91.76953125 81.70703125 C92.50792236 81.6913208 93.24631348 81.67561035 94.00708008 81.65942383 C96.58012344 82.09913907 97.43869615 82.94130029 99 85 C99.51970893 88.48947424 99.52130649 90.24969582 97.48828125 93.17578125 C94.01548499 95.7217716 90.87357949 95.43942238 86.75 95.25 C86.00492188 95.23195313 85.25984375 95.21390625 84.4921875 95.1953125 C82.66090299 95.14835649 80.83028351 95.07661652 79 95 C79.16838379 95.58160889 79.33676758 96.16321777 79.51025391 96.76245117 C82.78696419 111.73306421 74.80700844 130.30656682 67.16796875 142.7109375 C54.76399158 161.52922359 36.48620189 175.14707118 14.3359375 180.140625 C-0.75929732 182.95336613 -17.59875824 182.3915979 -32 177 C-33.02609375 176.649375 -34.0521875 176.29875 -35.109375 175.9375 C-56.72412269 167.87396718 -71.86219133 150.61603515 -81.3125 130.125 C-85.98542296 118.65278314 -87.56128973 107.32758555 -87 95 C-88.10859375 95.05800781 -89.2171875 95.11601562 -90.359375 95.17578125 C-91.82287452 95.22268829 -93.28641963 95.26818745 -94.75 95.3125 C-95.47960937 95.35439453 -96.20921875 95.39628906 -96.9609375 95.43945312 C-100.87466608 95.5284015 -102.5938598 95.37402679 -105.51953125 92.6796875 C-107 90 -107 90 -106.9375 86.8125 C-106 84 -106 84 -103 82 C-101.00708008 81.77294922 -101.00708008 81.77294922 -98.76953125 81.8046875 C-97.96708984 81.81113281 -97.16464844 81.81757813 -96.33789062 81.82421875 C-95.08782227 81.84935547 -95.08782227 81.84935547 -93.8125 81.875 C-92.96751953 81.88402344 -92.12253906 81.89304687 -91.25195312 81.90234375 C-89.16784757 81.92589297 -87.08388783 81.96176353 -85 82 C-84.87753906 80.80761719 -84.75507813 79.61523438 -84.62890625 78.38671875 C-82.65513196 62.77158962 -72.84824292 48.8857801 -62 38 C-61.33742187 37.31421875 -60.67484375 36.6284375 -59.9921875 35.921875 C-46.74343621 23.12650303 -28.27266831 15.87012706 -10 15 C-10.04640625 14.09636719 -10.0928125 13.19273437 -10.140625 12.26171875 C-10.17671875 11.08222656 -10.2128125 9.90273437 -10.25 8.6875 C-10.29640625 7.51574219 -10.3428125 6.34398437 -10.390625 5.13671875 C-10 2 -10 2 -8.17578125 0.078125 C-5.05246156 -1.46951635 -3.27562993 -1.04541381 0 0 Z " fill="#FCE892" transform="translate(266,190)"/>
<path d="M0 0 C1.42033063 1.2007757 2.81480985 2.43254058 4.1875 3.6875 C5.52554688 4.88826172 5.52554688 4.88826172 6.890625 6.11328125 C22.20994872 20.57455542 30.85064034 40.07397972 31.46899414 61.10253906 C31.73633219 81.23498899 26.02383006 99.12530834 13.1875 114.6875 C12.56101562 115.47640625 11.93453125 116.2653125 11.2890625 117.078125 C0.08986683 130.51715981 -16.69591051 139.47564579 -33.8125 142.6875 C-36.49529979 142.80281857 -39.12492642 142.760691 -41.8125 142.6875 C-41.75449219 143.78449219 -41.69648438 144.88148438 -41.63671875 146.01171875 C-41.58980312 147.46610314 -41.54430489 148.92053374 -41.5 150.375 C-41.45810547 151.09623047 -41.41621094 151.81746094 -41.37304688 152.56054688 C-41.2773612 156.75157962 -41.48073864 158.25520489 -44.1328125 161.7109375 C-46.8125 163.6875 -46.8125 163.6875 -50 163.625 C-52.8125 162.6875 -52.8125 162.6875 -54.8125 160.6875 C-55.03955078 158.80810547 -55.03955078 158.80810547 -55.0078125 156.5546875 C-55.00136719 155.74902344 -54.99492187 154.94335938 -54.98828125 154.11328125 C-54.96314453 152.85064453 -54.96314453 152.85064453 -54.9375 151.5625 C-54.92847656 150.71300781 -54.91945313 149.86351562 -54.91015625 148.98828125 C-54.88655647 146.88790116 -54.85068483 144.78766556 -54.8125 142.6875 C-56.59140625 142.73390625 -56.59140625 142.73390625 -58.40625 142.78125 C-74.35120697 142.75322723 -91.34076259 133.18424346 -102.8125 122.6875 C-103.83537109 121.80191406 -103.83537109 121.80191406 -104.87890625 120.8984375 C-114.1923546 112.33225213 -120.79695402 100.59241279 -124.8125 88.6875 C-125.13089844 87.75421875 -125.44929687 86.8209375 -125.77734375 85.859375 C-130.29777843 69.94411189 -129.00219309 52.2385595 -123.8125 36.6875 C-123.52375 35.77097656 -123.235 34.85445312 -122.9375 33.91015625 C-116.5263309 15.7928793 -101.29466467 0.37358986 -84.26171875 -8.1640625 C-80.81863888 -9.71900179 -77.37865524 -11.06763244 -73.8125 -12.3125 C-72.85859375 -12.65152344 -71.9046875 -12.99054687 -70.921875 -13.33984375 C-46.91678177 -20.30388818 -19.89813648 -14.75512438 0 0 Z " fill="#6ADBDC" transform="translate(310.8125,16.3125)"/>
<path d="M0 0 C16.42907136 14.17022297 26.2982158 32.80583644 28.671875 54.33984375 C30.20060346 75.16069469 24.6720451 96.24680659 11.12890625 112.48046875 C-3.07861818 128.77142424 -21.17072106 139.75019438 -42.96435547 141.55859375 C-64.77692162 142.79072458 -85.44923587 137.83492621 -102.328125 123.33984375 C-102.96621094 122.84355469 -103.60429688 122.34726563 -104.26171875 121.8359375 C-117.12506943 111.42991307 -126.79013843 94.51083289 -129.92578125 78.23828125 C-132.35726722 54.67883467 -129.40266148 32.92909246 -115.015625 13.52734375 C-113.8148493 12.10701312 -112.58308442 10.7125339 -111.328125 9.33984375 C-110.52761719 8.4478125 -109.72710937 7.55578125 -108.90234375 6.63671875 C-80.58037297 -23.36571629 -31.99722518 -26.3020164 0 0 Z " fill="#4570C6" transform="translate(152.328125,76.66015625)"/>
<path d="M0 0 C17.16524055 13.56044018 28.3685447 32.26582192 31.75 54.0625 C33.3369195 79.05648208 27.35178123 100.47905675 10.77734375 119.55859375 C-4.190005 135.21227595 -23.73355248 143.76759529 -45.22216797 144.47094727 C-65.00657251 144.67331482 -83.80450912 139.09611385 -99 126 C-99.7115625 125.44183594 -100.423125 124.88367188 -101.15625 124.30859375 C-115.05155466 112.91158873 -124.7675385 94.7692808 -127 77 C-128.77662133 54.224172 -125.11361928 32.06850791 -109.95703125 14.140625 C-109.31121094 13.43421875 -108.66539062 12.7278125 -108 12 C-107.19949219 11.10796875 -106.39898437 10.2159375 -105.57421875 9.296875 C-77.74949475 -20.17880947 -32.72612856 -22.7011626 0 0 Z " fill="#A2C7FE" transform="translate(471,74)"/>
<path d="M0 0 C3.12916651 0.03444819 6.25551779 0.02056425 9.38476562 0.0012207 C27.59219165 0.01341802 41.62635831 2.97543107 55.31445312 15.90942383 C60.66145908 21.52378008 64.15216028 27.87617651 67.58862305 34.76269531 C67.94736008 35.48126205 68.30609711 36.1998288 68.67570496 36.94017029 C68.94836685 37.48689896 69.22102875 38.03362762 69.50195312 38.59692383 C70.08109467 38.60279007 70.66023621 38.60865631 71.25692749 38.61470032 C77.32507831 38.6790022 83.3927167 38.76351341 89.46044922 38.859375 C91.72014579 38.8924776 93.97992214 38.92055441 96.23974609 38.94335938 C99.50197103 38.977176 102.76347451 39.02950499 106.02539062 39.08520508 C107.52288345 39.09478996 107.52288345 39.09478996 109.05062866 39.10456848 C120.60757769 39.34280049 129.97589741 42.4835831 138.47851562 50.44848633 C143.7294452 56.056926 146.69758777 62.17402446 148.50195312 69.59692383 C160.0324606 67.20686605 171.53213433 64.71702936 183.00317001 62.05623817 C187.06645603 61.11509416 191.13210363 60.18422147 195.19726562 59.2512207 C200.30652043 58.07781304 205.41506343 56.90150564 210.52148438 55.71582031 C214.71070912 54.74338718 218.90199067 53.78030035 223.09473038 52.8231411 C224.67010836 52.46174196 226.2447332 52.09704073 227.81850815 51.72872353 C254.88866672 45.39859679 254.88866672 45.39859679 263.50195312 50.59692383 C268.8438184 54.13618436 272.8079565 58.31917162 274.50195312 64.59692383 C275.49778453 72.46962868 274.98395316 79.17120333 271.47460938 86.31567383 C265.64087742 93.06200939 257.10052211 96.28138538 248.97460938 99.40551758 C247.85719864 99.84519363 246.7397879 100.28486969 245.58851624 100.73786926 C242.55049272 101.93123746 239.50903984 103.11528917 236.46585846 104.29542542 C233.24868104 105.54581057 230.03637366 106.80857751 226.82373047 108.07055664 C222.80660348 109.64770689 218.78903879 111.2237014 214.76940918 112.79446411 C205.42074442 116.44767693 196.08387828 120.12960202 186.75585938 123.83520508 C186.11652781 124.08914473 185.47719624 124.34308437 184.81849098 124.60471916 C181.64624171 125.86483707 178.47417255 127.1254075 175.30221558 128.38626099 C166.19040602 132.0075756 157.07545385 135.62087925 147.9576416 139.22705078 C144.90503613 140.43713728 141.85450877 141.6522364 138.80480385 142.8696022 C136.25563489 143.88609436 133.70480475 144.89837194 131.15365219 145.90987396 C129.36106998 146.62217089 127.5705302 147.33960113 125.78005981 148.05718994 C124.68265472 148.4915033 123.58524963 148.92581665 122.45458984 149.37329102 C121.49608124 149.75523621 120.53757263 150.1371814 119.55001831 150.53070068 C112.29532972 153.06841442 105.94750312 153.96256834 98.30273438 153.92480469 C96.80955437 153.91926402 96.80955437 153.91926402 95.28620911 153.91361141 C83.65116818 153.74033852 72.18113349 152.3100229 60.64951897 150.84961891 C56.54846792 150.33307233 52.44546404 149.83668773 48.34095764 149.34855652 C47.63157274 149.26417574 46.92218783 149.17979496 46.19130641 149.09285718 C44.73778318 148.92011869 43.28424528 148.74750365 41.83069313 148.57500875 C39.6089644 148.31104197 37.38738696 148.04583269 35.1658411 147.78033161 C-18.59633486 141.36104231 -71.38943141 136.93020248 -125.609375 137.45458984 C-127.14904481 137.46840966 -127.14904481 137.46840966 -128.71981907 137.48250866 C-133.47375127 137.52818022 -138.22542373 137.59345195 -142.97825623 137.7063446 C-144.61628142 137.73469152 -146.2543073 137.76299918 -147.89233398 137.79125977 C-148.62819229 137.81622308 -149.3640506 137.84118639 -150.12220764 137.86690617 C-155.03378718 137.93407495 -155.03378718 137.93407495 -157.18355942 136.3728838 C-158.88631306 134.07235039 -158.87283564 132.73201566 -158.87226868 129.8837738 C-158.87928299 128.91491241 -158.8862973 127.94605103 -158.89352417 126.9478302 C-158.88588043 125.88642319 -158.87823669 124.82501617 -158.87036133 123.73144531 C-158.87401199 122.6125592 -158.87766266 121.4936731 -158.88142395 120.34088135 C-158.88954679 116.63310692 -158.87590535 112.9257671 -158.86132812 109.21801758 C-158.86080977 106.64876811 -158.86132653 104.07951824 -158.86283875 101.51026917 C-158.86274895 96.12250384 -158.85264017 90.73489859 -158.83422852 85.34716797 C-158.81305006 79.11402078 -158.80955325 72.8810578 -158.81579047 66.64788193 C-158.82148021 60.65549049 -158.81573969 54.6631811 -158.80461693 48.67079353 C-158.80075721 46.11860478 -158.79961989 43.56641046 -158.80120277 41.01421928 C-158.80157197 37.45370657 -158.78899437 33.89347801 -158.77270508 30.33300781 C-158.7751825 29.26957657 -158.77765991 28.20614532 -158.7802124 27.11048889 C-158.77312759 26.14444733 -158.76604279 25.17840576 -158.75874329 24.18309021 C-158.75669042 23.34078071 -158.75463755 22.4984712 -158.75252247 21.63063717 C-158.49804688 19.59692383 -158.49804688 19.59692383 -156.49804688 17.59692383 C-154.64729786 17.34638405 -154.64729786 17.34638405 -152.35639954 17.34536743 C-151.48869431 17.33998459 -150.62098907 17.33460175 -149.72698975 17.32905579 C-148.77270081 17.33317978 -147.81841187 17.33730377 -146.83520508 17.34155273 C-145.83178574 17.33793228 -144.82836639 17.33431183 -143.79454041 17.33058167 C-141.60975875 17.32367459 -139.42495978 17.32118467 -137.24016762 17.32252884 C-133.78085734 17.32349133 -130.32186018 17.31058348 -126.8625946 17.29354858 C-117.02503926 17.24719936 -107.18751419 17.22267741 -97.34985352 17.21606445 C-91.33683737 17.21104706 -85.32414553 17.1867804 -79.31123924 17.15073776 C-77.01998022 17.14094059 -74.72867656 17.13860734 -72.43740273 17.14390945 C-69.22720406 17.15098696 -66.017969 17.13368104 -62.80786133 17.11108398 C-61.39160965 17.12334267 -61.39160965 17.12334267 -59.94674683 17.135849 C-51.78966313 17.03388604 -47.36239743 14.15174953 -40.99804688 9.15942383 C-28.22105402 0.32741846 -15.04128926 -0.18317095 0 0 Z M-41.68554688 20.28442383 C-47.98074999 25.46047973 -54.47848385 26.04198882 -62.31054688 26.02929688 C-63.27299316 26.03957067 -64.23543945 26.04984446 -65.22705078 26.06042957 C-68.31744816 26.09012582 -71.40752702 26.09982948 -74.49804688 26.10864258 C-76.41602678 26.12412162 -78.33399651 26.14092079 -80.25195312 26.15905762 C-87.33387209 26.21682135 -94.41598043 26.24910038 -101.49804688 26.28442383 C-117.33804688 26.38754883 -133.17804688 26.49067383 -149.49804688 26.59692383 C-149.49804688 60.25692383 -149.49804688 93.91692383 -149.49804688 128.59692383 C-120.12531916 128.72741104 -120.12531916 128.72741104 -90.75244141 128.8046875 C-66.72616871 128.93305702 -43.28590569 130.31739427 -19.4864893 133.64848042 C-10.76155003 134.8640577 -2.00750178 135.79483785 6.75195312 136.72192383 C8.36946949 136.89493216 9.98696742 137.06811293 11.60444641 137.24147034 C22.16219331 138.37242865 32.7274658 139.42254463 43.29614258 140.44628906 C50.00609483 141.10784637 56.70106281 141.84663384 63.39257812 142.67114258 C64.14706741 142.7633609 64.9015567 142.85557922 65.6789093 142.95059204 C69.32821847 143.39751204 72.97589948 143.85367288 76.62182617 144.32739258 C93.1121982 146.41165173 106.86827919 146.04860988 122.38476562 139.93676758 C123.29936554 139.58227036 124.21396545 139.22777313 125.15628052 138.86253357 C127.94092633 137.78090161 130.72180046 136.69004557 133.50195312 135.59692383 C135.07320862 134.98241742 136.64449588 134.36799221 138.21582031 133.75366211 C142.94113278 131.90133046 147.6592454 130.03102061 152.37695312 128.15942383 C154.17191955 127.44847471 155.96692425 126.73762223 157.76196289 126.02685547 C162.84541076 124.01341077 167.92802216 121.9978622 173.01043701 119.98181152 C176.77587005 118.48827642 180.54148523 116.99520119 184.30712891 115.50219727 C192.68491491 112.18047472 201.06227827 108.85768731 209.43945312 105.53442383 C210.11670189 105.26577137 210.79395065 104.99711891 211.49172211 104.72032547 C212.83860236 104.18603363 214.1854691 103.65170772 215.53232193 103.11734676 C216.85295696 102.59343214 218.17364281 102.06964559 219.49438095 101.54599094 C222.67378868 100.28501814 225.85201589 99.02122989 229.02770996 97.75093079 C234.53637894 95.55078942 240.0482352 93.37787521 245.61181641 91.32006836 C246.53313858 90.97246964 247.45446075 90.62487091 248.40370178 90.26673889 C250.06113809 89.6435444 251.72448995 89.035709 253.39500427 88.44847107 C259.46879168 86.13896862 263.57095839 82.4589133 266.50195312 76.59692383 C267.31175406 70.07869005 266.42481526 65.86181775 262.50195312 60.59692383 C258.19160033 56.49683214 254.7450575 56.17218034 249.08178711 56.26025391 C241.01465089 57.01893773 233.16746597 59.23403749 225.31445312 61.15942383 C222.42276097 61.85349026 219.52998691 62.54291069 216.63710022 63.23197937 C214.69906627 63.69378204 212.76135137 64.15692579 210.82395935 64.62141418 C202.95621945 66.50436781 195.06837915 68.27646398 187.16061401 69.98260498 C185.20831294 70.40534008 183.25758653 70.83532613 181.30688477 71.26538086 C175.47976079 72.54662663 169.65435231 73.77088389 163.78710938 74.85473633 C162.24567261 75.1567395 162.24567261 75.1567395 160.6730957 75.46484375 C158.8020054 75.82967899 156.92549723 76.16830477 155.04370117 76.47314453 C150.43902771 77.35214467 150.43902771 77.35214467 147.13696289 80.453125 C146.05986614 82.56536991 146.05986614 82.56536991 145.30200195 84.69897461 C144.08279201 87.59129628 142.0903421 88.93770012 139.50195312 90.59692383 C135.59174873 91.90032529 131.88254758 91.72788652 127.80786133 91.71044922 C126.91984833 91.71059525 126.03183533 91.71074127 125.11691284 91.71089172 C122.17882859 91.71019451 119.24080757 91.702411 116.30273438 91.69458008 C114.26677993 91.69271522 112.23082504 91.69129164 110.19487 91.69029236 C104.83383955 91.68647252 99.47283616 91.67664675 94.11181641 91.66558838 C88.64225633 91.65536282 83.17269188 91.65079228 77.703125 91.64575195 C66.96938915 91.63502403 56.23567339 91.61795398 45.50195312 91.59692383 C45.11976545 89.94077725 44.78800211 88.27235358 44.50195312 86.59692383 C46.32528444 84.77359251 48.85557501 85.4728618 51.28234863 85.46458435 C52.1124646 85.46668411 52.94258057 85.46878387 53.79785156 85.47094727 C54.66778748 85.46907913 55.53772339 85.467211 56.434021 85.46528625 C58.33017428 85.46127199 60.22633243 85.45920648 62.12248993 85.45882416 C66.15039904 85.4554209 70.17814493 85.4340722 74.20599747 85.41359329 C81.71319909 85.37550897 89.22022995 85.34430843 96.72753906 85.34643555 C101.94198308 85.34722206 107.15583526 85.32388117 112.37012482 85.28455353 C114.35880117 85.27407915 116.34754573 85.27258004 118.33623505 85.28020477 C121.12096752 85.28981419 123.9039061 85.26866702 126.68847656 85.24047852 C127.51049561 85.2506752 128.33251465 85.26087189 129.17944336 85.27137756 C133.40392146 85.19470731 135.05128422 84.94209704 138.51763916 82.28717041 C140.6808992 79.35431653 141.17391079 77.47733097 140.91992188 73.83911133 C139.53393036 66.40397926 136.34818065 59.50871335 130.50195312 54.59692383 C123.63827557 50.13553342 117.73585792 47.48889944 109.49975586 47.45507812 C108.53202744 47.44804367 107.56429901 47.44100922 106.56724548 47.4337616 C105.53378494 47.42959732 104.5003244 47.42543304 103.43554688 47.42114258 C101.23696945 47.39795809 99.03840169 47.37384134 96.83984375 47.34887695 C93.38119897 47.31367759 89.92291402 47.28435993 86.46411133 47.27099609 C83.12081852 47.25555857 79.77856599 47.21539358 76.43554688 47.17114258 C74.88231972 47.1740052 74.88231972 47.1740052 73.29771423 47.17692566 C66.14375562 47.05461757 66.14375562 47.05461757 62.91894531 44.75488281 C61.06965818 41.93857528 59.69460991 39.04575449 58.31445312 35.97192383 C52.84865919 24.51153273 44.92629424 16.45786358 33.08007812 11.60473633 C26.18334579 9.17467963 19.5079304 8.43550003 12.20898438 8.39379883 C11.42230881 8.38809875 10.63563324 8.38239868 9.82511902 8.37652588 C8.16524584 8.3671169 6.50535432 8.3605583 4.84545898 8.35668945 C2.33933865 8.34701985 -0.16594788 8.31597283 -2.671875 8.28442383 C-17.15563935 8.18727965 -30.43539779 10.22010127 -41.68554688 20.28442383 Z " fill="#3A64CC" transform="translate(167.498046875,357.403076171875)"/>
<path d="M0 0 C7.32447765 3.77467598 13.44353859 10.93374087 19.42333984 16.53222656 C23.23133061 20.07723128 27.12456312 23.52917643 31 27 C32.667057 28.49956619 34.33371995 29.99957053 36 31.5 C37.23169922 32.60794922 37.23169922 32.60794922 38.48828125 33.73828125 C40.19555798 35.27562686 41.90123044 36.81475555 43.60546875 38.35546875 C44.45753906 39.12503906 45.30960937 39.89460938 46.1875 40.6875 C47.41533203 41.79738281 47.41533203 41.79738281 48.66796875 42.9296875 C51.2616798 45.23231205 53.91748129 47.44596459 56.625 49.61328125 C59.45866723 52.47109905 60.31947972 55.41784954 60.4375 59.375 C60.35957429 62.75363612 59.90261589 64.76241457 57.8125 67.4375 C55.07133413 69.93500668 53.59167758 71.2303548 50 72 C45.08821185 71.73686849 42.10046964 70.60492164 38 68 C38.0314209 69.59654419 38.0314209 69.59654419 38.06347656 71.2253418 C38.13603962 75.18549066 38.18185851 79.1455811 38.21972656 83.10620117 C38.23980505 84.81821586 38.26707392 86.53016228 38.30175781 88.24194336 C38.35044401 90.70704008 38.37300573 93.1712279 38.390625 95.63671875 C38.41127014 96.39836838 38.43191528 97.16001801 38.45318604 97.94474792 C38.45471253 101.58444887 38.14206921 103.76799402 36.22558594 106.89770508 C32.13228676 110.76424733 29.10314634 111.25375441 23.5065918 111.29052734 C22.18809738 111.30328705 20.86960297 111.31604675 19.51115417 111.32919312 C18.07384386 111.33225113 16.63653158 111.3344787 15.19921875 111.3359375 C13.71954724 111.34236792 12.23987699 111.34909646 10.76020813 111.35610962 C7.65920059 111.36807758 4.55830439 111.37179104 1.45727539 111.37060547 C-2.50384073 111.37040252 -6.46423743 111.39768074 -10.4251833 111.43214989 C-13.48196142 111.45446162 -16.53856773 111.45844169 -19.59541893 111.45738602 C-21.05497906 111.45973647 -22.51454433 111.46852864 -23.97402382 111.48405075 C-38.43190311 111.62339559 -38.43190311 111.62339559 -44 107 C-46.73511897 103.58843341 -46.34692495 99.37443955 -46.4140625 95.171875 C-46.43342865 94.42286926 -46.4527948 93.67386353 -46.4727478 92.90216064 C-46.53235716 90.51822164 -46.57885354 88.13423386 -46.625 85.75 C-46.66319701 84.13018769 -46.70224975 82.51039532 -46.7421875 80.890625 C-46.83804313 76.92724594 -46.92214246 72.96377181 -47 69 C-47.94544678 69.48984375 -48.89089355 69.9796875 -49.86499023 70.484375 C-53.98943507 72.47834381 -56.70611782 72.46080528 -61 71 C-65.26712941 67.56774374 -67.66751945 64.54901752 -68.375 59.125 C-67.30149314 50.17910949 -57.74151474 43.5707748 -51.29296875 38.0078125 C-48.53094118 35.58927388 -45.82602288 33.11108624 -43.125 30.625 C-38.58802192 26.45157779 -34.02916607 22.30477377 -29.4375 18.19140625 C-27.76354332 16.68645481 -26.09725545 15.17294287 -24.4375 13.65234375 C-8.4421699 -0.95314821 -8.4421699 -0.95314821 0 0 Z " fill="#3A63CC" transform="translate(105,77)"/>
<path d="M0 0 C2.70858986 1.65157918 4.97329735 3.55528992 7 6 C7 6.66 7 7.32 7 8 C8.299375 8.20625 9.59875 8.4125 10.9375 8.625 C19.12064544 10.47778765 25.11091005 15.12296732 29.78125 22.01171875 C33.97166635 28.84800697 35.18032908 35.05759869 34 43 C31.9329017 47.35536761 28.21153629 49.83406705 24 52 C24.47050781 52.54527344 24.94101562 53.09054687 25.42578125 53.65234375 C26.04839844 54.40644531 26.67101562 55.16054688 27.3125 55.9375 C27.92738281 56.66839844 28.54226563 57.39929688 29.17578125 58.15234375 C33.39965756 64.74593225 34.56357188 71.58454305 34.5 79.3125 C34.49355469 80.13919189 34.48710937 80.96588379 34.48046875 81.81762695 C34.20313436 91.16945209 31.62325548 98.52765851 25.25 105.5 C20.53094203 109.78194296 15.34908493 112.72660531 8.9375 113.25 C8.298125 113.1675 7.65875 113.085 7 113 C6.773125 113.763125 6.54625 114.52625 6.3125 115.3125 C4.63735151 118.74256596 3.53786617 119.56979878 0 121 C-3.8657914 121.64905354 -7.38108495 121.9087465 -10.87890625 119.9453125 C-13.04367309 118.18220119 -14.74459495 116.51081011 -16 114 C-18.08035338 113.30712962 -18.08035338 113.30712962 -20.5625 112.75 C-27.97372814 110.65068216 -33.70894875 106.43657687 -38 100 C-38.37125 99.47277344 -38.7425 98.94554687 -39.125 98.40234375 C-42.96935329 92.11522431 -43.03020846 85.15951595 -42 78 C-40.39424664 74.66406221 -38.35347338 72.67673669 -35 71 C-30.76339098 70.56718336 -27.08605289 70.55141294 -23.125 72.1875 C-20.7384412 74.22309427 -19.42677955 76.22153456 -18 79 C-17.67 75.7 -17.34 72.4 -17 69 C-17.804375 68.95875 -18.60875 68.9175 -19.4375 68.875 C-27.61597871 66.86625084 -34.32844717 60.88630455 -39 54 C-41.70736702 48.73779368 -42.55244236 44.48696899 -42.5 38.6875 C-42.49355469 37.94056885 -42.48710937 37.1936377 -42.48046875 36.42407227 C-42.16271132 26.78159753 -38.15884297 20.22762025 -31.18359375 13.6875 C-26.9647523 10.4271431 -22.24807877 8.76639049 -17.25 7.0625 C-14.19670523 5.62066636 -12.30675661 3.43144616 -10 1 C-6.73678368 -0.63160816 -3.5126328 -0.68739134 0 0 Z " fill="#E4A67F" transform="translate(267,227)"/>
<path d="M0 0 C2.25384172 2.29070362 2.95540057 3.57422412 3.29296875 6.796875 C3.25816406 7.77140625 3.22335937 8.7459375 3.1875 9.75 C3.14689453 11.22726563 3.14689453 11.22726563 3.10546875 12.734375 C3.07066406 13.48203125 3.03585937 14.2296875 3 15 C3.87140625 15.09796875 4.7428125 15.1959375 5.640625 15.296875 C25.83524705 17.83213058 41.8644508 25.51819095 56 40 C56.81210937 40.80308594 57.62421875 41.60617188 58.4609375 42.43359375 C67.7409652 52.07785462 78 67.96800892 78 82 C79.26457031 81.96519531 80.52914062 81.93039062 81.83203125 81.89453125 C83.49217423 81.86639323 85.15233156 81.83909309 86.8125 81.8125 C87.64587891 81.78736328 88.47925781 81.76222656 89.33789062 81.73632812 C90.14033203 81.72666016 90.94277344 81.71699219 91.76953125 81.70703125 C92.50792236 81.6913208 93.24631348 81.67561035 94.00708008 81.65942383 C96.58012344 82.09913907 97.43869615 82.94130029 99 85 C99.51970893 88.48947424 99.52130649 90.24969582 97.48828125 93.17578125 C94.01548499 95.7217716 90.87357949 95.43942238 86.75 95.25 C86.00492188 95.23195313 85.25984375 95.21390625 84.4921875 95.1953125 C82.66090299 95.14835649 80.83028351 95.07661652 79 95 C79.16838379 95.58160889 79.33676758 96.16321777 79.51025391 96.76245117 C82.78696419 111.73306421 74.80700844 130.30656682 67.16796875 142.7109375 C54.76399158 161.52922359 36.48620189 175.14707118 14.3359375 180.140625 C-0.75929732 182.95336613 -17.59875824 182.3915979 -32 177 C-33.02609375 176.649375 -34.0521875 176.29875 -35.109375 175.9375 C-56.72412269 167.87396718 -71.86219133 150.61603515 -81.3125 130.125 C-85.98542296 118.65278314 -87.56128973 107.32758555 -87 95 C-88.10859375 95.05800781 -89.2171875 95.11601562 -90.359375 95.17578125 C-91.82287452 95.22268829 -93.28641963 95.26818745 -94.75 95.3125 C-95.47960937 95.35439453 -96.20921875 95.39628906 -96.9609375 95.43945312 C-100.87466608 95.5284015 -102.5938598 95.37402679 -105.51953125 92.6796875 C-107 90 -107 90 -106.9375 86.8125 C-106 84 -106 84 -103 82 C-101.00708008 81.77294922 -101.00708008 81.77294922 -98.76953125 81.8046875 C-97.96708984 81.81113281 -97.16464844 81.81757813 -96.33789062 81.82421875 C-95.08782227 81.84935547 -95.08782227 81.84935547 -93.8125 81.875 C-92.96751953 81.88402344 -92.12253906 81.89304687 -91.25195312 81.90234375 C-89.16784757 81.92589297 -87.08388783 81.96176353 -85 82 C-84.87753906 80.80761719 -84.75507813 79.61523438 -84.62890625 78.38671875 C-82.65513196 62.77158962 -72.84824292 48.8857801 -62 38 C-61.33742187 37.31421875 -60.67484375 36.6284375 -59.9921875 35.921875 C-46.74343621 23.12650303 -28.27266831 15.87012706 -10 15 C-10.04640625 14.09636719 -10.0928125 13.19273437 -10.140625 12.26171875 C-10.17671875 11.08222656 -10.2128125 9.90273437 -10.25 8.6875 C-10.29640625 7.51574219 -10.3428125 6.34398437 -10.390625 5.13671875 C-10 2 -10 2 -8.17578125 0.078125 C-5.05246156 -1.46951635 -3.27562993 -1.04541381 0 0 Z M-62.8359375 51.1875 C-76.75458793 69.27672077 -80.07631098 88.53333972 -78 111 C-75.19042179 129.2325797 -64.75567198 145.02137655 -51 157 C-47.46079085 159.58056538 -43.8049494 161.83427274 -40 164 C-38.81470703 164.69416016 -38.81470703 164.69416016 -37.60546875 165.40234375 C-22.54074457 173.62173721 -4.21031351 175.66361861 12.5 171.8125 C14.34592013 171.24795828 16.1798716 170.64285386 18 170 C19.06347656 169.64808594 20.12695312 169.29617188 21.22265625 168.93359375 C41.18086271 161.8606855 55.57637166 148.14134688 64.68359375 129.1328125 C66.88948259 123.88318979 68.51280005 118.49119981 70 113 C70.1757959 112.37843018 70.3515918 111.75686035 70.53271484 111.11645508 C74.56606555 92.84836874 69.32162373 73.67554684 60 58 C57.55095434 54.44138672 54.89697367 51.20134614 52 48 C50.98486328 46.84564453 50.98486328 46.84564453 49.94921875 45.66796875 C38.06517512 32.91489085 20.36380756 24.35655537 2.875 23.62890625 C-23.86240467 23.15003315 -44.86283043 30.35647838 -62.8359375 51.1875 Z " fill="#3A63CB" transform="translate(266,190)"/>
<path d="M0 0 C1.42033063 1.2007757 2.81480985 2.43254058 4.1875 3.6875 C5.52554688 4.88826172 5.52554688 4.88826172 6.890625 6.11328125 C22.20994872 20.57455542 30.85064034 40.07397972 31.46899414 61.10253906 C31.73633219 81.23498899 26.02383006 99.12530834 13.1875 114.6875 C12.56101562 115.47640625 11.93453125 116.2653125 11.2890625 117.078125 C0.08986683 130.51715981 -16.69591051 139.47564579 -33.8125 142.6875 C-36.49529979 142.80281857 -39.12492642 142.760691 -41.8125 142.6875 C-41.75449219 143.78449219 -41.69648438 144.88148438 -41.63671875 146.01171875 C-41.58980312 147.46610314 -41.54430489 148.92053374 -41.5 150.375 C-41.45810547 151.09623047 -41.41621094 151.81746094 -41.37304688 152.56054688 C-41.2773612 156.75157962 -41.48073864 158.25520489 -44.1328125 161.7109375 C-46.8125 163.6875 -46.8125 163.6875 -50 163.625 C-52.8125 162.6875 -52.8125 162.6875 -54.8125 160.6875 C-55.03955078 158.80810547 -55.03955078 158.80810547 -55.0078125 156.5546875 C-55.00136719 155.74902344 -54.99492187 154.94335938 -54.98828125 154.11328125 C-54.96314453 152.85064453 -54.96314453 152.85064453 -54.9375 151.5625 C-54.92847656 150.71300781 -54.91945313 149.86351562 -54.91015625 148.98828125 C-54.88655647 146.88790116 -54.85068483 144.78766556 -54.8125 142.6875 C-56.59140625 142.73390625 -56.59140625 142.73390625 -58.40625 142.78125 C-74.35120697 142.75322723 -91.34076259 133.18424346 -102.8125 122.6875 C-103.83537109 121.80191406 -103.83537109 121.80191406 -104.87890625 120.8984375 C-114.1923546 112.33225213 -120.79695402 100.59241279 -124.8125 88.6875 C-125.13089844 87.75421875 -125.44929687 86.8209375 -125.77734375 85.859375 C-130.29777843 69.94411189 -129.00219309 52.2385595 -123.8125 36.6875 C-123.52375 35.77097656 -123.235 34.85445312 -122.9375 33.91015625 C-116.5263309 15.7928793 -101.29466467 0.37358986 -84.26171875 -8.1640625 C-80.81863888 -9.71900179 -77.37865524 -11.06763244 -73.8125 -12.3125 C-72.85859375 -12.65152344 -71.9046875 -12.99054687 -70.921875 -13.33984375 C-46.91678177 -20.30388818 -19.89813648 -14.75512438 0 0 Z M-94.8125 9.6875 C-95.40417969 10.12320312 -95.99585938 10.55890625 -96.60546875 11.0078125 C-108.59241169 20.16945768 -116.4229158 36.77633503 -119.34375 51.171875 C-121.98401057 70.97382925 -117.44431666 90.29022541 -105.8125 106.6875 C-94.66806156 120.9523812 -78.5412784 132.11768807 -60.2578125 134.43359375 C-39.42417033 135.96895287 -20.80785199 133.38772253 -4.09765625 119.68359375 C9.52147792 107.78722185 20.01457038 93.11394314 22.1875 74.6875 C22.89063236 61.98292391 23.47496208 49.49397589 18.1875 37.6875 C17.53394531 36.15802734 17.53394531 36.15802734 16.8671875 34.59765625 C13.57408407 27.46259881 9.40565038 21.53935365 4.1875 15.6875 C3.24583984 14.62208984 3.24583984 14.62208984 2.28515625 13.53515625 C-9.00463541 1.50656431 -25.94130773 -6.82716579 -42.50390625 -7.6484375 C-62.56983681 -8.02018011 -79.1897373 -3.47809031 -94.8125 9.6875 Z " fill="#3763CC" transform="translate(310.8125,16.3125)"/>
<path d="M0 0 C16.42907136 14.17022297 26.2982158 32.80583644 28.671875 54.33984375 C30.20060346 75.16069469 24.6720451 96.24680659 11.12890625 112.48046875 C-3.07861818 128.77142424 -21.17072106 139.75019438 -42.96435547 141.55859375 C-64.77692162 142.79072458 -85.44923587 137.83492621 -102.328125 123.33984375 C-102.96621094 122.84355469 -103.60429688 122.34726563 -104.26171875 121.8359375 C-117.12506943 111.42991307 -126.79013843 94.51083289 -129.92578125 78.23828125 C-132.35726722 54.67883467 -129.40266148 32.92909246 -115.015625 13.52734375 C-113.8148493 12.10701312 -112.58308442 10.7125339 -111.328125 9.33984375 C-110.52761719 8.4478125 -109.72710937 7.55578125 -108.90234375 6.63671875 C-80.58037297 -23.36571629 -31.99722518 -26.3020164 0 0 Z M-74.328125 -5.66015625 C-75.14539063 -5.40492187 -75.96265625 -5.1496875 -76.8046875 -4.88671875 C-93.76996471 0.98380575 -107.17584196 14.74338243 -115.328125 30.33984375 C-123.70499549 48.13802914 -124.87595097 67.77956461 -118.328125 86.33984375 C-114.01201841 97.5622495 -107.93520962 106.03878881 -99.328125 114.33984375 C-98.69519531 115.00371094 -98.06226562 115.66757813 -97.41015625 116.3515625 C-86.65727366 126.91454871 -70.09550679 132.5776563 -55.328125 133.33984375 C-54.61140625 133.38109375 -53.8946875 133.42234375 -53.15625 133.46484375 C-33.09189524 134.05066433 -15.27406561 126.30714311 -0.68286133 112.87817383 C12.37590909 100.16142391 19.7470828 82.53305391 20.05297852 64.40087891 C20.00798924 44.14130681 14.48400506 26.40521184 0.10546875 11.578125 C-8.16335767 3.97292831 -16.82819451 -1.63561287 -27.328125 -5.66015625 C-28.21242188 -6.00046875 -29.09671875 -6.34078125 -30.0078125 -6.69140625 C-43.43439443 -10.89451016 -61.15026383 -10.44076835 -74.328125 -5.66015625 Z " fill="#3762CC" transform="translate(152.328125,76.66015625)"/>
<path d="M0 0 C17.16524055 13.56044018 28.3685447 32.26582192 31.75 54.0625 C33.3369195 79.05648208 27.35178123 100.47905675 10.77734375 119.55859375 C-4.190005 135.21227595 -23.73355248 143.76759529 -45.22216797 144.47094727 C-65.00657251 144.67331482 -83.80450912 139.09611385 -99 126 C-99.7115625 125.44183594 -100.423125 124.88367188 -101.15625 124.30859375 C-115.05155466 112.91158873 -124.7675385 94.7692808 -127 77 C-128.77662133 54.224172 -125.11361928 32.06850791 -109.95703125 14.140625 C-109.31121094 13.43421875 -108.66539062 12.7278125 -108 12 C-107.19949219 11.10796875 -106.39898437 10.2159375 -105.57421875 9.296875 C-77.74949475 -20.17880947 -32.72612856 -22.7011626 0 0 Z M-96 12 C-96.70769531 12.62648438 -97.41539062 13.25296875 -98.14453125 13.8984375 C-110.36999345 25.35250342 -118.54454351 42.29396525 -119.28515625 59.04296875 C-119.51888661 68.3813313 -119.47091907 77.20421713 -116 86 C-115.64808594 86.96808594 -115.29617188 87.93617188 -114.93359375 88.93359375 C-107.42306192 108.39157226 -94.19151635 121.64139067 -75.625 130.75 C-57.53818458 138.49054389 -39.20577161 137.62625961 -21 131 C-3.04823682 123.64397925 9.55595567 110.1127639 18 93 C25.14303429 75.50265376 25.38313574 54.51497088 18.375 36.9375 C15.36337973 30.28255374 11.5680392 24.67291047 7 19 C6.53078125 18.36707031 6.0615625 17.73414062 5.578125 17.08203125 C-1.38337452 8.13445687 -11.49178374 1.89936538 -22 -2 C-22.97582031 -2.391875 -23.95164062 -2.78375 -24.95703125 -3.1875 C-49.69510665 -11.8024525 -76.87579565 -5.28854774 -96 12 Z " fill="#3863CC" transform="translate(471,74)"/>
<path d="M0 0 C8.91 0 17.82 0 27 0 C27.66 2.97 28.32 5.94 29 9 C31.59622117 13.26522049 34.33066536 15.26044396 39 17 C44.96107684 17.77273218 49.08279158 16.192848 54 13 C58.11336686 9.29796983 57.66773632 5.99518655 59 0 C68.24 0 77.48 0 87 0 C87 6.27 87 12.54 87 19 C84.875625 19.144375 82.75125 19.28875 80.5625 19.4375 C76.45880084 19.36536356 76.45880084 19.36536356 73 21 C72.98300691 24.10400834 73.02923629 27.1837546 73.12109375 30.28515625 C73.14175903 31.1097937 73.16242432 31.93443115 73.18371582 32.78405762 C73.26273154 35.87701931 73.35066149 38.96974806 73.4375 42.0625 C73.623125 48.971875 73.80875 55.88125 74 63 C53.87 63 33.74 63 13 63 C13.0625 42.0625 13.0625 42.0625 13.09008789 35.44555664 C13.09300698 33.7254238 13.09555555 32.00529028 13.09765625 30.28515625 C13.10277222 29.38341675 13.10788818 28.48167725 13.11315918 27.5526123 C13.11346882 25.36808255 13.0624587 23.1836367 13 21 C11.18884044 19.18884044 8.38721773 19.61800552 5.9375 19.4375 C3.978125 19.293125 2.01875 19.14875 0 19 C0 12.73 0 6.46 0 0 Z " fill="#F6A6A7" transform="translate(380,110)"/>
<path d="M0 0 C2.70858986 1.65157918 4.97329735 3.55528992 7 6 C7 6.66 7 7.32 7 8 C8.299375 8.20625 9.59875 8.4125 10.9375 8.625 C19.12064544 10.47778765 25.11091005 15.12296732 29.78125 22.01171875 C33.97166635 28.84800697 35.18032908 35.05759869 34 43 C31.9329017 47.35536761 28.21153629 49.83406705 24 52 C24.47050781 52.54527344 24.94101562 53.09054687 25.42578125 53.65234375 C26.04839844 54.40644531 26.67101562 55.16054688 27.3125 55.9375 C27.92738281 56.66839844 28.54226563 57.39929688 29.17578125 58.15234375 C33.39965756 64.74593225 34.56357188 71.58454305 34.5 79.3125 C34.49355469 80.13919189 34.48710937 80.96588379 34.48046875 81.81762695 C34.20313436 91.16945209 31.62325548 98.52765851 25.25 105.5 C20.53094203 109.78194296 15.34908493 112.72660531 8.9375 113.25 C8.298125 113.1675 7.65875 113.085 7 113 C6.773125 113.763125 6.54625 114.52625 6.3125 115.3125 C4.63735151 118.74256596 3.53786617 119.56979878 0 121 C-3.8657914 121.64905354 -7.38108495 121.9087465 -10.87890625 119.9453125 C-13.04367309 118.18220119 -14.74459495 116.51081011 -16 114 C-18.08035338 113.30712962 -18.08035338 113.30712962 -20.5625 112.75 C-27.97372814 110.65068216 -33.70894875 106.43657687 -38 100 C-38.37125 99.47277344 -38.7425 98.94554687 -39.125 98.40234375 C-42.96935329 92.11522431 -43.03020846 85.15951595 -42 78 C-40.39424664 74.66406221 -38.35347338 72.67673669 -35 71 C-30.76339098 70.56718336 -27.08605289 70.55141294 -23.125 72.1875 C-20.7384412 74.22309427 -19.42677955 76.22153456 -18 79 C-17.67 75.7 -17.34 72.4 -17 69 C-17.804375 68.95875 -18.60875 68.9175 -19.4375 68.875 C-27.61597871 66.86625084 -34.32844717 60.88630455 -39 54 C-41.70736702 48.73779368 -42.55244236 44.48696899 -42.5 38.6875 C-42.49355469 37.94056885 -42.48710937 37.1936377 -42.48046875 36.42407227 C-42.16271132 26.78159753 -38.15884297 20.22762025 -31.18359375 13.6875 C-26.9647523 10.4271431 -22.24807877 8.76639049 -17.25 7.0625 C-14.19670523 5.62066636 -12.30675661 3.43144616 -10 1 C-6.73678368 -0.63160816 -3.5126328 -0.68739134 0 0 Z M-7.6875 9.1875 C-9.08130278 10.94811759 -9.08130278 10.94811759 -9.78515625 13.05078125 C-11 15 -11 15 -13.171875 15.6875 C-14.44804687 15.8421875 -14.44804687 15.8421875 -15.75 16 C-23.37558867 17.27276012 -27.49188236 20.98917647 -32 27 C-35.38992358 32.3575016 -34.53847361 38.92001944 -34 45 C-32.3452777 51.30181668 -28.27177184 55.37789826 -23 59 C-19.12498816 61.03438121 -15.31079837 61.41970022 -11 62 C-10 63 -10 63 -9.88647461 66.14282227 C-9.88663367 67.53402697 -9.89232494 68.92523761 -9.90234375 70.31640625 C-9.9037587 71.04746078 -9.90517365 71.77851532 -9.90663147 72.53172302 C-9.91224592 74.87535632 -9.92480078 77.21889539 -9.9375 79.5625 C-9.94251314 81.14778508 -9.94707637 82.73307166 -9.95117188 84.31835938 C-9.96222003 88.2122761 -9.97949428 92.10612205 -10 96 C-15.36376766 96.19450204 -17.82025255 95.52956451 -22 92 C-24.32170971 88.18576262 -25.62270284 84.23026985 -27 80 C-28.0595877 78.71677453 -28.0595877 78.71677453 -30.5 78.875 C-32.9404123 78.71677453 -32.9404123 78.71677453 -34 80 C-34.8073701 87.23527823 -33.15447226 92.3804866 -29.4375 98.625 C-24.88153072 103.06414955 -19.37337869 105.73629126 -13.0625 106.4375 C-11.5465625 106.7159375 -11.5465625 106.7159375 -10 107 C-8.0625 110.0625 -8.0625 110.0625 -7 113 C-4.6704053 113.50241322 -4.6704053 113.50241322 -2 113 C-1.4225 112.05125 -0.845 111.1025 -0.25 110.125 C2.58068635 106.19349118 4.08479729 106.29718006 8.625 105.54296875 C15.30499983 104.01579774 20.19506518 99.48358254 24 94 C26.10728611 88.99148547 26.3660758 84.47059803 26.375 79.125 C26.39949219 78.36058594 26.42398438 77.59617187 26.44921875 76.80859375 C26.48400102 69.97967417 24.5605244 64.8705879 20 59.7578125 C19.34 59.21898437 18.68 58.68015625 18 58.125 C17.34 57.57070313 16.68 57.01640625 16 56.4453125 C12.6330664 54.01217689 9.96166997 52.81138236 5.8125 52.5 C4.554375 52.335 3.29625 52.17 2 52 C0.69524382 49.39048764 0.88698428 47.47298715 0.90234375 44.5546875 C0.90556641 43.47832031 0.90878906 42.40195312 0.91210938 41.29296875 C0.92467773 39.60107422 0.92467773 39.60107422 0.9375 37.875 C0.94201172 36.73933594 0.94652344 35.60367188 0.95117188 34.43359375 C0.96298385 31.62234362 0.97945493 28.8111977 1 26 C4.38593974 25.16354111 5.69314797 24.88727884 9.0625 26.125 C12.27075249 28.17282074 14.01022534 29.75740426 16 33 C16.36141955 35.32914823 16.69699525 37.66253478 17 40 C18.08674994 42.08984231 18.08674994 42.08984231 20 43 C23.31818985 42.75794651 23.31818985 42.75794651 26 41 C26.76364794 34.12716855 25.66369169 29.99805933 21.82421875 24.234375 C16.27650016 17.43931069 9.42130904 16.03718328 1 15 C0.34 13.02 -0.32 11.04 -1 9 C-4.49943236 7.8253829 -4.49943236 7.8253829 -7.6875 9.1875 Z " fill="#3C65C9" transform="translate(267,227)"/>
<path d="M0 0 C1.38353165 -0.00788544 1.38353165 -0.00788544 2.79501343 -0.01593018 C5.84325094 -0.02913225 8.89096617 -0.02039197 11.93920898 -0.01025391 C14.05622966 -0.01227441 16.17324966 -0.01518564 18.29026794 -0.01895142 C22.72629424 -0.02337491 27.1621393 -0.01694215 31.59814453 -0.00292969 C37.29033339 0.01417253 42.98209824 0.00431445 48.67427158 -0.01364708 C53.04509185 -0.02447525 57.41581118 -0.02104318 61.78663445 -0.0132637 C63.88584378 -0.01125957 65.98506223 -0.01372843 68.08426094 -0.02070236 C71.01475519 -0.02830201 73.94455744 -0.01673385 76.875 0 C77.74625015 -0.00607269 78.61750031 -0.01214539 79.51515198 -0.0184021 C85.4283679 0.04430749 85.4283679 0.04430749 87.59481716 1.72057152 C89.63581704 4.38382227 89.26215507 6.87520978 89.27124023 10.17333984 C89.27411041 10.830233 89.27698059 11.48712616 89.27993774 12.16392517 C89.28197615 13.54996607 89.27646178 14.93603587 89.26391602 16.32202148 C89.24783107 18.44694 89.26378288 20.56996413 89.28295898 22.69482422 C89.28097701 24.04183363 89.27713429 25.38884187 89.27124023 26.73583984 C89.26785645 27.96310791 89.26447266 29.19037598 89.26098633 30.45483398 C89.06883545 31.90684204 89.06883545 31.90684204 88.87280273 33.38818359 C85.55909273 35.5973236 84.52820064 35.61299912 80.68530273 35.51318359 C79.78424805 35.49513672 78.88319336 35.47708984 77.95483398 35.45849609 C77.26776367 35.43529297 76.58069336 35.41208984 75.87280273 35.38818359 C75.9030957 36.16830811 75.93338867 36.94843262 75.96459961 37.75219727 C76.10322538 41.35993285 76.23803078 44.96780207 76.37280273 48.57568359 C76.42049805 49.80222656 76.46819336 51.02876953 76.51733398 52.29248047 C76.65394409 55.99071125 76.76695644 59.68895367 76.87280273 63.38818359 C76.94047852 65.23017334 76.94047852 65.23017334 77.00952148 67.109375 C77.0365918 68.27001465 77.06366211 69.4306543 77.09155273 70.62646484 C77.1218457 71.66456299 77.15213867 72.70266113 77.18334961 73.7722168 C76.87280273 76.38818359 76.87280273 76.38818359 75.78578186 78.02841187 C72.89124833 80.08588589 70.4749725 79.76224777 66.95458984 79.76049805 C66.25510727 79.76414871 65.55562469 79.76779938 64.83494568 79.77156067 C62.52309892 79.77966619 60.21195301 79.7660581 57.90014648 79.75146484 C56.29496766 79.75094629 54.68978819 79.7514638 53.08460999 79.75297546 C49.72118648 79.75288574 46.35800269 79.74245601 42.99462891 79.72436523 C38.67782772 79.7016597 34.36137631 79.70113723 30.04453182 79.70788288 C26.73060482 79.71121976 23.41675796 79.70459841 20.10284615 79.69475365 C18.51079286 79.69089787 16.91873067 79.68975499 15.32667351 79.69133949 C13.10481563 79.69170924 10.88341105 79.67911659 8.66162109 79.6628418 C7.39603867 79.65823441 6.13045624 79.65362701 4.82652283 79.64888 C1.87280273 79.38818359 1.87280273 79.38818359 -0.12719727 77.38818359 C-0.37011719 75.13598633 -0.37011719 75.13598633 -0.35766602 72.32177734 C-0.35637695 71.28593506 -0.35508789 70.25009277 -0.35375977 69.18286133 C-0.33442383 67.52105835 -0.33442383 67.52105835 -0.31469727 65.82568359 C-0.3050293 64.14357788 -0.3050293 64.14357788 -0.29516602 62.42749023 C-0.21245426 53.39058501 0.1788268 44.39747825 0.87280273 35.38818359 C-0.26608398 35.44039062 -0.26608398 35.44039062 -1.42797852 35.49365234 C-2.4218457 35.52072266 -3.41571289 35.54779297 -4.43969727 35.57568359 C-5.42583008 35.61048828 -6.41196289 35.64529297 -7.42797852 35.68115234 C-10.12719727 35.38818359 -10.12719727 35.38818359 -11.76879883 34.27807617 C-14.62345792 30.3064881 -13.60336141 24.65217007 -13.57324219 19.93652344 C-13.56472423 17.89464789 -13.59350561 15.85556445 -13.62524414 13.81396484 C-13.62459961 12.52876953 -13.62395508 11.24357422 -13.62329102 9.91943359 C-13.62514404 8.73929688 -13.62699707 7.55916016 -13.62890625 6.34326172 C-13.12719727 3.38818359 -13.12719727 3.38818359 -11.66629028 1.72775269 C-7.83806726 -0.29193277 -4.26685487 -0.02980963 0 0 Z M-5.12719727 8.38818359 C-5.12719727 14.65818359 -5.12719727 20.92818359 -5.12719727 27.38818359 C-3.16782227 27.53255859 -1.20844727 27.67693359 0.81030273 27.82568359 C6.74780273 28.26318359 6.74780273 28.26318359 7.87280273 29.38818359 C7.96153806 32.49048503 7.98805961 35.57105718 7.97045898 38.67333984 C7.9694519 39.49797729 7.96844482 40.32261475 7.96740723 41.17224121 C7.96215865 44.2650694 7.94819751 47.35787783 7.93530273 50.45068359 C7.91467773 57.36005859 7.89405273 64.26943359 7.87280273 71.38818359 C28.00280273 71.38818359 48.13280273 71.38818359 68.87280273 71.38818359 C68.50422082 57.61080907 68.50422082 57.61080907 68.12451172 43.83374023 C68.08056783 42.11361708 68.03700303 40.39348418 67.99389648 38.67333984 C67.96718872 37.77160034 67.94048096 36.86986084 67.91296387 35.9407959 C67.86065606 33.75717719 67.86084512 31.57239599 67.87280273 29.38818359 C70.42334205 26.83764428 78.78265699 27.5981935 81.87280273 27.38818359 C81.87280273 21.11818359 81.87280273 14.84818359 81.87280273 8.38818359 C72.63280273 8.38818359 63.39280273 8.38818359 53.87280273 8.38818359 C53.21280273 11.35818359 52.55280273 14.32818359 51.87280273 17.38818359 C49.11388301 22.08856534 46.01460546 23.73234882 40.87280273 25.38818359 C34.81881585 26.14493195 31.73442333 24.75392093 26.87280273 21.38818359 C22.79393822 17.59062008 23.22792831 14.48624868 21.87280273 8.38818359 C12.96280273 8.38818359 4.05280273 8.38818359 -5.12719727 8.38818359 Z " fill="#3B64CC" transform="translate(385.127197265625,101.61181640625)"/>
<path d="M0 0 C7.36234617 4.30414084 11.89748656 10.14493047 14.78125 18.125 C16.01511939 29.02973759 15.05813911 38.9024745 8.15625 47.75 C7.3725 48.53375 6.58875 49.3175 5.78125 50.125 C5.12125 50.125 4.46125 50.125 3.78125 50.125 C3.78791183 50.69018845 3.79457367 51.25537689 3.80143738 51.83769226 C3.86786724 57.72629095 3.91308232 63.61478297 3.94604492 69.50366211 C3.96112052 71.70064621 3.98158426 73.89760026 4.00756836 76.09448242 C4.04400502 79.25447 4.06098884 82.41405924 4.07421875 85.57421875 C4.08970261 86.55460617 4.10518646 87.53499359 4.12113953 88.54508972 C4.12237847 93.57851797 4.06651828 97.03567727 0.78125 101.125 C0.09675781 102.00671875 0.09675781 102.00671875 -0.6015625 102.90625 C-2.80829387 104.56929393 -4.35059947 104.59164863 -7.09375 104.625 C-7.93679688 104.6559375 -8.77984375 104.686875 -9.6484375 104.71875 C-13.54066046 103.81963466 -14.81065975 102.31290708 -17.21875 99.125 C-17.91898819 95.5071269 -17.82125263 91.95144472 -17.75 88.27734375 C-17.75326294 87.22849503 -17.75652588 86.1796463 -17.7598877 85.09901428 C-17.7697234 81.75299119 -17.74808519 78.40839532 -17.71875 75.0625 C-17.68016305 70.65441501 -17.6737737 66.24804161 -17.6875 61.83984375 C-17.66788208 60.82623276 -17.64826416 59.81262177 -17.62805176 58.76829529 C-17.51659889 53.08936912 -17.51659889 53.08936912 -20.65527344 48.59399414 C-21.5012207 48.10922607 -22.34716797 47.62445801 -23.21875 47.125 C-24.765625 44.90625 -24.765625 44.90625 -25.96875 42.625 C-26.37609375 41.8721875 -26.7834375 41.119375 -27.203125 40.34375 C-30.57793741 32.9710829 -30.52782736 22.86581754 -28.3828125 15.09765625 C-23.40432156 4.25523806 -12.30318974 -4.85196215 0 0 Z " fill="#3A67CD" transform="translate(293.21875,30.875)"/>
<path d="M0 0 C3.52910489 1.23248127 5.78087432 2.44228803 8.3125 5.1875 C10.66594938 7.64677901 13.04264192 9.96939032 15.625 12.1875 C20.06395832 16.00605273 24.3381993 19.99509639 28.60791016 24.00073242 C31.56731554 26.82502085 31.56731554 26.82502085 35 29 C35.02464513 35.1055471 35.04283371 41.21106551 35.05493164 47.31665039 C35.05997288 49.39543156 35.06680574 51.47420916 35.07543945 53.55297852 C35.08751422 56.53402586 35.09323024 59.51502649 35.09765625 62.49609375 C35.10281754 63.43150497 35.10797882 64.3669162 35.11329651 65.33067322 C35.11337204 66.19149002 35.11344757 67.05230682 35.11352539 67.93920898 C35.115746 68.70087875 35.11796661 69.46254852 35.12025452 70.24729919 C35 72 35 72 34 73 C31.46950598 73.07313567 28.96695163 73.09247527 26.4375 73.0625 C25.37112305 73.05573242 25.37112305 73.05573242 24.28320312 73.04882812 C22.52209987 73.03700864 20.76103964 73.01907263 19 73 C18.98541748 72.24380371 18.97083496 71.48760742 18.95581055 70.70849609 C18.88108 67.26349723 18.78450072 63.81944079 18.6875 60.375 C18.65366211 58.59029297 18.65366211 58.59029297 18.61914062 56.76953125 C18.34754619 47.28867672 18.34754619 47.28867672 13.5 39.35546875 C7.56063919 34.7308102 2.37984692 34.08267266 -5 35 C-9.8957334 37.12207149 -12.58838746 40.29353828 -15 45 C-15.49940711 48.18409748 -15.49940711 48.18409748 -15.51171875 51.61328125 C-15.54716797 52.86044922 -15.58261719 54.10761719 -15.61914062 55.39257812 C-15.64169922 56.68615234 -15.66425781 57.97972656 -15.6875 59.3125 C-15.72166016 60.62541016 -15.75582031 61.93832031 -15.79101562 63.29101562 C-15.87339272 66.52725851 -15.94258016 69.76323385 -16 73 C-18.45862401 73.05383848 -20.9160755 73.09359038 -23.375 73.125 C-24.07367188 73.14175781 -24.77234375 73.15851563 -25.4921875 73.17578125 C-27.32897486 73.19344267 -29.16601963 73.10303261 -31 73 C-36.2262743 67.7737257 -34.14175831 52.77293025 -34.20507812 45.60595703 C-34.05360405 28.63091023 -34.05360405 28.63091023 -27.66357422 22.09838867 C-24.93607048 19.9258036 -22.17149523 18.02978478 -19.140625 16.3059082 C-15.3739861 14.00803509 -12.24060121 10.97319004 -9 8 C-8.0925 7.19691406 -7.185 6.39382812 -6.25 5.56640625 C-5.5075 4.90511719 -4.765 4.24382812 -4 3.5625 C-3.236875 2.88316406 -2.47375 2.20382813 -1.6875 1.50390625 C-0.8521875 0.75947266 -0.8521875 0.75947266 0 0 Z " fill="#A2C7FE" transform="translate(100,107)"/>
<path d="M0 0 C4.55555556 0.55555556 4.55555556 0.55555556 6 2 C6.08651611 3.41570123 6.10704904 4.835595 6.09765625 6.25390625 C6.09443359 7.10791016 6.09121094 7.96191406 6.08789062 8.84179688 C6.07951172 9.73962891 6.07113281 10.63746094 6.0625 11.5625 C6.05798828 12.46419922 6.05347656 13.36589844 6.04882812 14.29492188 C6.03700225 16.53001314 6.0205222 18.76497437 6 21 C8.64 21 11.28 21 14 21 C13.98952637 20.43490723 13.97905273 19.86981445 13.96826172 19.28759766 C13.92675212 16.73344347 13.9006904 14.17936018 13.875 11.625 C13.85824219 10.73554687 13.84148437 9.84609375 13.82421875 8.9296875 C13.81777344 8.07890625 13.81132812 7.228125 13.8046875 6.3515625 C13.79421387 5.56604004 13.78374023 4.78051758 13.77294922 3.97119141 C14 2 14 2 16 0 C20.55555556 0.55555556 20.55555556 0.55555556 22 2 C22.08669432 3.4887186 22.10703494 4.981445 22.09765625 6.47265625 C22.09443359 7.37177734 22.09121094 8.27089844 22.08789062 9.19726562 C22.07951172 10.14279297 22.07113281 11.08832031 22.0625 12.0625 C22.05798828 13.01189453 22.05347656 13.96128906 22.04882812 14.93945312 C22.0370011 17.29303065 22.02052025 19.64648477 22 22 C24.64 22 27.28 22 30 22 C29.98952637 21.40461426 29.97905273 20.80922852 29.96826172 20.19580078 C29.92676051 17.50557657 29.90069296 14.81541963 29.875 12.125 C29.85824219 11.18785156 29.84148437 10.25070313 29.82421875 9.28515625 C29.81777344 8.38925781 29.81132812 7.49335937 29.8046875 6.5703125 C29.79421387 5.74289551 29.78374023 4.91547852 29.77294922 4.06298828 C30 2 30 2 32 0 C36.55555556 0.55555556 36.55555556 0.55555556 38 2 C38.12588715 4.59613627 38.18866582 7.16418921 38.203125 9.76171875 C38.20882507 10.54513138 38.21452515 11.32854401 38.22039795 12.13569641 C38.2298654 13.79935347 38.23638883 15.46302943 38.24023438 17.12670898 C38.24989392 19.6596823 38.28088038 22.19182833 38.3125 24.72460938 C38.31903456 26.34114102 38.32428325 27.95767847 38.328125 29.57421875 C38.3404718 30.32757004 38.3528186 31.08092133 38.36553955 31.85710144 C38.34541851 36.664713 37.55017917 39.92221946 35 44 C30.68421053 48 30.68421053 48 28 48 C28.01110306 48.62560822 28.02220612 49.25121643 28.03364563 49.89578247 C28.1444078 56.41702982 28.21973743 62.93800925 28.2746582 69.45996094 C28.29977629 71.89268857 28.33387704 74.32534092 28.37719727 76.7578125 C28.43796444 80.25800159 28.46623783 83.7571915 28.48828125 87.2578125 C28.51408768 88.34240753 28.5398941 89.42700256 28.56648254 90.54446411 C28.56960722 98.98883673 28.56960722 98.98883673 25.62573242 102.6862793 C22.00636579 105.87556219 20.01046847 105.80734909 15.37890625 105.53125 C11.75083176 104.7210396 10.13161724 102.9567594 8 100 C7.03025313 97.0907594 6.8807965 95.26474718 6.88989258 92.24072266 C6.88931351 91.27607086 6.88873444 90.31141907 6.88813782 89.3175354 C6.89130257 87.75656631 6.89130257 87.75656631 6.89453125 86.1640625 C6.88107744 83.96353185 6.8660547 81.76301033 6.84960938 79.5625 C6.82675432 76.09049823 6.81251959 72.61952839 6.82495117 69.14746094 C6.83375533 65.79807241 6.8048967 62.45073845 6.76953125 59.1015625 C6.78176224 58.0649649 6.79399323 57.02836731 6.80659485 55.96035767 C6.87882663 50.81522788 6.87882663 50.81522788 4.68344116 46.37811279 C3.16858704 45.19052794 1.58538751 44.09164428 0 43 C-2.47768813 38.81545015 -2.29102866 34.44693034 -2.265625 29.70703125 C-2.26753845 28.91979172 -2.2694519 28.13255219 -2.27142334 27.32145691 C-2.2727796 25.66490355 -2.26912235 24.00833936 -2.26074219 22.35180664 C-2.24999141 19.81046923 -2.26067816 17.2698318 -2.2734375 14.72851562 C-2.27211665 13.11718594 -2.26955579 11.50585668 -2.265625 9.89453125 C-2.26967346 9.13308304 -2.27372192 8.37163483 -2.27789307 7.58711243 C-2.22995083 2.22995083 -2.22995083 2.22995083 0 0 Z " fill="#3966CC" transform="translate(218,30)"/>
<path d="M0 0 C2.55345043 0.98019549 3.99491792 1.94430034 5.984375 3.8046875 C6.66628906 4.43117188 7.34820312 5.05765625 8.05078125 5.703125 C8.83324219 6.43789062 9.61570312 7.17265625 10.421875 7.9296875 C11.90027777 9.286714 13.37875431 10.64366213 14.85913086 11.99853516 C15.90668228 12.95787689 16.95305786 13.91850406 17.99829102 14.88037109 C20.77505462 17.43431069 23.57094435 19.95888094 26.421875 22.4296875 C30.34765312 25.83202854 34.16462017 29.34981108 37.98461914 32.86962891 C40.90737265 35.55761376 43.85737937 38.20560622 46.859375 40.8046875 C48.04709063 41.8461083 49.2346135 42.887749 50.421875 43.9296875 C51.411875 44.7959375 52.401875 45.6621875 53.421875 46.5546875 C55.421875 48.9296875 55.421875 48.9296875 55.796875 51.6796875 C55.421875 53.9296875 55.421875 53.9296875 54.421875 54.9296875 C51.7578125 55.33984375 51.7578125 55.33984375 48.421875 54.9296875 C46.04722953 53.13544545 44.11555206 51.46061321 42.046875 49.3671875 C40.89522026 48.25189226 39.74287982 47.13730461 38.58984375 46.0234375 C38.04118652 45.48460937 37.4925293 44.94578125 36.92724609 44.390625 C35.12891481 42.64537453 33.26352635 40.99589557 31.359375 39.3671875 C28.03324847 36.48921275 24.78417108 33.53173934 21.546875 30.5546875 C17.68164758 27.00214715 13.81320096 23.45369065 9.921875 19.9296875 C9.1484375 19.2284375 8.375 18.5271875 7.578125 17.8046875 C6.8665625 17.1859375 6.155 16.5671875 5.421875 15.9296875 C4.44734375 15.0325 4.44734375 15.0325 3.453125 14.1171875 C1.48339846 12.75397529 1.48339846 12.75397529 -0.87109375 12.828125 C-5.01039627 14.5125165 -7.73562097 17.45033448 -10.890625 20.5546875 C-12.23618111 21.84588425 -13.58252611 23.13625944 -14.9296875 24.42578125 C-15.56680664 25.04050293 -16.20392578 25.65522461 -16.86035156 26.28857422 C-18.78092264 28.12343476 -20.75048361 29.88688677 -22.765625 31.6171875 C-26.05420066 34.44921469 -29.25853198 37.36764228 -32.453125 40.3046875 C-32.96391602 40.77205322 -33.47470703 41.23941895 -34.00097656 41.72094727 C-36.48505515 43.99539731 -38.95089687 46.28332961 -41.39453125 48.6015625 C-42.25949219 49.41109375 -43.12445313 50.220625 -44.015625 51.0546875 C-44.77746094 51.77914062 -45.53929687 52.50359375 -46.32421875 53.25 C-48.82231452 55.11166582 -50.48990739 55.6813886 -53.578125 55.9296875 C-55.453125 54.8046875 -55.453125 54.8046875 -56.578125 52.9296875 C-56.59307484 50.13905064 -56.02513359 48.45557055 -54.21386719 46.32470703 C-52.36170097 44.50854066 -50.4576219 42.77445088 -48.515625 41.0546875 C-47.48344849 40.11725708 -47.48344849 40.11725708 -46.43041992 39.16088867 C-44.49045764 37.40456972 -42.53811007 35.66360306 -40.578125 33.9296875 C-39.80210938 33.24261719 -39.02609375 32.55554688 -38.2265625 31.84765625 C-37.02103499 30.79346092 -35.81150775 29.74381862 -34.59765625 28.69921875 C-31.8832622 26.32084253 -29.23243375 23.87456396 -26.578125 21.4296875 C-22.6295179 17.79456882 -18.6597552 14.19345239 -14.58203125 10.703125 C-13.03252155 9.33182402 -11.52766121 7.90997689 -10.04296875 6.46875 C-9.16769531 5.63085938 -8.29242188 4.79296875 -7.390625 3.9296875 C-6.19373047 2.7540625 -6.19373047 2.7540625 -4.97265625 1.5546875 C-2.578125 -0.0703125 -2.578125 -0.0703125 0 0 Z " fill="#F3A5A8" transform="translate(101.578125,85.0703125)"/>
<path d="M0 0 C5.40392245 2.64681916 8.96112135 6.36054842 11 12 C11.94938998 19.08327479 11.91049841 25.8707444 8.4609375 32.25390625 C7 34 7 34 3.95898438 35.90869141 C1.84126521 37.66993615 1.08775653 38.63903373 0.43057251 41.34220886 C0.20876256 44.31040118 0.16943557 47.23059655 0.1953125 50.20703125 C0.18160614 51.28756271 0.16789978 52.36809418 0.15377808 53.48136902 C0.11644963 56.92550178 0.12019522 60.3681935 0.125 63.8125 C0.10687539 66.15041319 0.08607345 68.48830727 0.0625 70.82617188 C0.01062242 76.55092258 -0.00755632 82.27503585 0 88 C-1.98 88.99 -1.98 88.99 -4 90 C-5 89 -5 89 -5.10438538 87.06661987 C-5.09580002 86.21947418 -5.08721466 85.37232849 -5.07836914 84.49951172 C-5.07249283 83.54116425 -5.06661652 82.58281677 -5.06056213 81.59542847 C-5.05217819 80.55073395 -5.04379425 79.50603943 -5.03515625 78.4296875 C-5.03887095 76.23176616 -5.0448016 74.03384766 -5.05273438 71.8359375 C-5.06327711 68.35928692 -5.06260705 64.88468178 -5.02416992 61.40820312 C-4.99098458 58.06006467 -5.00867585 54.71531957 -5.03515625 51.3671875 C-5.01260269 50.33463837 -4.99004913 49.30208923 -4.96681213 48.23825073 C-5.04074926 42.60359135 -5.04074926 42.60359135 -7.77511597 37.84698486 C-9.8838473 35.96985234 -9.8838473 35.96985234 -12.08860779 34.43069458 C-15.14366472 32.14395648 -16.33149988 29.63818335 -17 26 C-17.78283097 18.54531417 -18.19759757 11.73649427 -13.48828125 5.5546875 C-9.43274649 1.31819712 -5.93886422 -0.9898107 0 0 Z " fill="#A0C6FD" transform="translate(289,38)"/>
<path d="M0 0 C7.92 0 15.84 0 24 0 C24 8 24 8 22.3125 10.4375 C20 12 20 12 15 13 C14.67 31.15 14.34 49.3 14 68 C12.68 68 11.36 68 10 68 C9 67 9 67 8.8888855 64.89457703 C8.89445465 63.96732315 8.9000238 63.04006927 8.90576172 62.0847168 C8.90841034 61.03660324 8.91105896 59.98848969 8.91378784 58.90861511 C8.91903473 57.76701431 8.92428162 56.62541351 8.9296875 55.44921875 C8.92110314 53.05533127 8.91062718 50.66144996 8.8984375 48.26757812 C8.88172414 44.4748742 8.87502647 40.68354195 8.90039062 36.89086914 C8.92130063 33.24278603 8.89815987 29.59718269 8.8671875 25.94921875 C8.88457977 24.81369064 8.90197205 23.67816254 8.91989136 22.50822449 C9.07028971 16.96715578 9.07028971 16.96715578 6.41900635 12.4437561 C4.29901878 11.20550993 4.29901878 11.20550993 1 10 C0 8 0 8 0 0 Z " fill="#9CC1FB" transform="translate(224,59)"/>
<path d="M0 0 C2.8100346 1.79363911 4.50940468 3.01880935 6 6 C6.084915 7.8863912 6.107193 9.77578515 6.09765625 11.6640625 C6.09443359 12.78554687 6.09121094 13.90703125 6.08789062 15.0625 C6.07951172 16.238125 6.07113281 17.41375 6.0625 18.625 C6.05798828 19.80835938 6.05347656 20.99171875 6.04882812 22.2109375 C6.03701478 25.14064639 6.0190789 28.07032941 6 31 C-0.27 31 -6.54 31 -13 31 C-13.13491171 26.76976845 -13.23410046 22.54383516 -13.3125 18.3125 C-13.35439453 17.11431641 -13.39628906 15.91613281 -13.43945312 14.68164062 C-13.57763471 4.76020266 -13.57763471 4.76020266 -10.73046875 1.703125 C-6.91768867 -0.67508975 -4.35060253 -0.97558966 0 0 Z " fill="#F2CBCE" transform="translate(105,149)"/>
<path d="M0 0 C5.01615953 -0.29506821 7.99681229 -0.13763361 12 3 C15.01871838 5.93502009 16.25943023 8.07744629 16.53125 12.21484375 C16.54180636 13.78906157 16.53083659 15.36354883 16.5 16.9375 C16.51546875 17.72318359 16.5309375 18.50886719 16.546875 19.31835938 C16.51110488 24.66152051 15.55424546 27.78779984 12 32 C8.3000654 34.36166038 5.40751507 35.61215487 1 35 C-1 33 -1 33 -1.24291992 29.95898438 C-1.23881104 28.68345703 -1.23470215 27.40792969 -1.23046875 26.09375 C-1.23001053 25.41324585 -1.22955231 24.7327417 -1.2290802 24.03161621 C-1.22605852 22.59251157 -1.21817466 21.15341017 -1.20581055 19.71435547 C-1.1875717 17.50867149 -1.18530075 15.30340771 -1.18554688 13.09765625 C-1.14753687 2.29507374 -1.14753687 2.29507374 0 0 Z " fill="#4067C8" transform="translate(268,289)"/>
<path d="M0 0 C1.74545605 1.74545605 1.1302316 4.16124217 1.1328125 6.53125 C1.13474609 8.21154297 1.13474609 8.21154297 1.13671875 9.92578125 C1.13285156 11.10527344 1.12898438 12.28476562 1.125 13.5 C1.13080078 15.26923828 1.13080078 15.26923828 1.13671875 17.07421875 C1.13542969 18.19441406 1.13414062 19.31460937 1.1328125 20.46875 C1.13168457 21.50451172 1.13055664 22.54027344 1.12939453 23.60742188 C1 26 1 26 0 27 C-4.11964889 27.40388715 -6.51845889 27.24077056 -10.25 25.375 C-14.35412888 21.83052506 -15.79869069 18.87888689 -16.375 13.5 C-15.8190574 8.31120238 -14.3336735 5.23364799 -10.5 1.6875 C-6.61113747 -0.93748221 -4.44746047 -1.17038433 0 0 Z " fill="#3E65C9" transform="translate(257,252)"/>
<path d="M0 0 C1.45116211 -0.03673828 1.45116211 -0.03673828 2.93164062 -0.07421875 C3.86041016 -0.07808594 4.78917969 -0.08195312 5.74609375 -0.0859375 C7.02311157 -0.09826416 7.02311157 -0.09826416 8.32592773 -0.11083984 C10.5625 0.375 10.5625 0.375 12.37133789 2.17724609 C14.17189657 5.49936728 13.48734208 7.80775197 12.5625 11.375 C8.40716695 14.14522203 5.00835149 13.74270597 0.125 13.75 C-1.16374023 13.78673828 -1.16374023 13.78673828 -2.47851562 13.82421875 C-8.74384548 13.85338243 -8.74384548 13.85338243 -12.04296875 11.578125 C-13.4375 9.375 -13.4375 9.375 -13.3125 5.75 C-11.43660195 -1.48560676 -6.36744756 0.00845049 0 0 Z " fill="#EAA87C" transform="translate(387.4375,271.625)"/>
<path d="M0 0 C2.69842405 2.33863417 2.97178034 3.75072634 3.375 7.3125 C2.87582065 12.22109699 1.6419369 16.10545743 -1.625 19.875 C-5.3122675 21.62160039 -8.92415103 22.2393159 -13 22 C-15.5625 20.4375 -15.5625 20.4375 -17 18 C-17.46636948 14.73541367 -17.60121852 12.90182778 -15.75 10.125 C-14 9 -14 9 -10 9 C-10.12375 7.3603125 -10.12375 7.3603125 -10.25 5.6875 C-10 2 -10 2 -8.375 0 C-5.12526355 -1.36831008 -3.33559124 -1.0645504 0 0 Z " fill="#EAA97C" transform="translate(427,263)"/>
<path d="M0 0 C2.72618393 2.50992415 3.22023697 4.62076575 3.3984375 8.1875 C3.40637892 9.79166603 3.39806099 11.39598007 3.375 13 C3.38660156 13.80695313 3.39820313 14.61390625 3.41015625 15.4453125 C3.39276854 18.95762963 3.31960245 21.37897607 1.6953125 24.53515625 C0 26 0 26 -3.5 26.4375 C-7 26 -7 26 -8.68945312 24.77148438 C-11.28434151 21.26393779 -10.51125064 16.70211383 -10.5 12.5 C-10.52835937 11.53707031 -10.55671875 10.57414063 -10.5859375 9.58203125 C-10.59326413 6.95543312 -10.53464248 4.57213428 -10 2 C-6.64846762 -1.05841157 -4.25198368 -1.67841461 0 0 Z " fill="#EAAA7B" transform="translate(427,227)"/>
<path d="M0 0 C0.91523438 -0.01611328 1.83046875 -0.03222656 2.7734375 -0.04882812 C3.65257812 -0.04947266 4.53171875 -0.05011719 5.4375 -0.05078125 C6.24058594 -0.05376221 7.04367188 -0.05674316 7.87109375 -0.05981445 C10.53883226 0.40673385 11.41167666 1.14385176 13 3.3125 C13.4375 6.8125 13.4375 6.8125 13 10.3125 C10.58915987 13.08240143 8.36405208 13.53652341 4.84765625 13.78125 C3.25278981 13.80772081 1.65757786 13.81762475 0.0625 13.8125 C-0.73607422 13.84085937 -1.53464844 13.86921875 -2.35742188 13.8984375 C-6.71049407 13.91286359 -8.49367694 13.69756353 -12.06640625 10.98046875 C-14 8.3125 -14 8.3125 -14 5.125 C-11.70619283 -1.32633265 -5.74250708 -0.0202201 0 0 Z " fill="#EAA97C" transform="translate(137,271.6875)"/>
<path d="M0 0 C2.71659284 2.56974999 3.91586186 4.05344589 4.25 7.8125 C4.1675 8.534375 4.085 9.25625 4 10 C5.65 10.33 7.3 10.66 9 11 C10.1875 13.6875 10.1875 13.6875 11 17 C9.69132936 19.94450894 8.90597137 21.54701431 6 23 C2.0438601 23.25319295 -1.52302155 22.92573294 -4.92578125 20.79296875 C-8.64833906 17.14148603 -9.43094843 13.91427565 -9.625 8.75 C-9.6015625 5.671875 -9.6015625 5.671875 -9 3 C-6.11257401 0.19644115 -4.01945479 -0.80389096 0 0 Z " fill="#EAA87C" transform="translate(104,262)"/>
<path d="M0 0 C2.72716152 2.49172312 3.22504856 4.63486679 3.43359375 8.1875 C3.45079917 9.79157492 3.45159358 11.39589472 3.4375 13 C3.45748047 13.80695313 3.47746094 14.61390625 3.49804688 15.4453125 C3.49486623 19.30024845 3.4716651 21.34870074 1.1640625 24.53515625 C-1.75869907 26.51355984 -3.54198794 26.51502307 -7 26 C-9.13816897 24.40085202 -9.90814906 23.52520671 -10.37231445 20.87109375 C-10.3693335 20.06800781 -10.36635254 19.26492187 -10.36328125 18.4375 C-10.36263672 17.55835938 -10.36199219 16.67921875 -10.36132812 15.7734375 C-10.34521484 14.85820312 -10.32910156 13.94296875 -10.3125 13 C-10.31572266 12.08476562 -10.31894531 11.16953125 -10.32226562 10.2265625 C-10.26721939 3.40082908 -10.26721939 3.40082908 -8 0 C-4.64106891 -1.1196437 -3.32285646 -1.07992835 0 0 Z " fill="#E9A87C" transform="translate(105,227)"/>
<path d="M0 0 C1.20366211 0.00966797 1.20366211 0.00966797 2.43164062 0.01953125 C3.26501953 0.03628906 4.09839844 0.05304688 4.95703125 0.0703125 C6.22450195 0.08384766 6.22450195 0.08384766 7.51757812 0.09765625 C9.60168368 0.12120547 11.68564342 0.15707603 13.76953125 0.1953125 C13.62920014 2.17487691 13.48211895 4.15396391 13.33203125 6.1328125 C13.25082031 7.23496094 13.16960937 8.33710938 13.0859375 9.47265625 C12.76953125 12.1953125 12.76953125 12.1953125 11.76953125 13.1953125 C9.14695752 13.40274771 6.58313807 13.51976626 3.95703125 13.5703125 C3.23193359 13.60769531 2.50683594 13.64507812 1.75976562 13.68359375 C-2.13362606 13.74771182 -3.84329663 13.55302587 -6.74609375 10.87109375 C-8.23046875 8.1953125 -8.23046875 8.1953125 -8.16796875 5.0078125 C-6.69375774 0.58517948 -4.30864645 -0.06111555 0 0 Z " fill="#E8A87D" transform="translate(167.23046875,271.8046875)"/>
<path d="M0 0 C4.29 0 8.58 0 13 0 C13.13559675 2.56428515 13.23433188 5.12135216 13.3125 7.6875 C13.3753418 8.7693457 13.3753418 8.7693457 13.43945312 9.87304688 C13.5351388 14.06407962 13.33176136 15.56770489 10.6796875 19.0234375 C8 21 8 21 4.8125 20.9375 C2 20 2 20 0 18 C-0.22705078 16.12060547 -0.22705078 16.12060547 -0.1953125 13.8671875 C-0.18886719 13.06152344 -0.18242187 12.25585938 -0.17578125 11.42578125 C-0.15064453 10.16314453 -0.15064453 10.16314453 -0.125 8.875 C-0.11597656 8.02550781 -0.10695312 7.17601562 -0.09765625 6.30078125 C-0.07405647 4.20040116 -0.03818483 2.10016556 0 0 Z " fill="#E8A87D" transform="translate(256,159)"/>
<path d="M0 0 C2.93804996 -0.08086376 5.87388075 -0.1404283 8.8125 -0.1875 C9.64587891 -0.21263672 10.47925781 -0.23777344 11.33789062 -0.26367188 C12.54155273 -0.27817383 12.54155273 -0.27817383 13.76953125 -0.29296875 C14.87711792 -0.31653442 14.87711792 -0.31653442 16.00708008 -0.34057617 C18.58012344 0.09913907 19.43869615 0.94130029 21 3 C21.51970893 6.48947424 21.52130649 8.24969582 19.48828125 11.17578125 C16.01548499 13.7217716 12.87357949 13.43942238 8.75 13.25 C7.63238281 13.22292969 7.63238281 13.22292969 6.4921875 13.1953125 C4.66090299 13.14835649 2.83028351 13.07661652 1 13 C0.67 8.71 0.34 4.42 0 0 Z " fill="#E9A87D" transform="translate(344,272)"/>
<path d="M0 0 C2.25384172 2.29070362 2.95540057 3.57422412 3.29296875 6.796875 C3.1953125 9.53125 3.09765625 12.265625 3 15 C-1.29 15 -5.58 15 -10 15 C-10.390625 5.13671875 -10.390625 5.13671875 -10 2 C-6.73090874 -1.44409614 -4.45948116 -1.42323867 0 0 Z " fill="#EAA97D" transform="translate(266,190)"/>
<path d="M0 0 C5.28 0 10.56 0 16 0 C15 6 15 6 13.3125 7.875 C10.21507874 9.38185358 8.40864082 9.55651279 5 9 C2.125 6.75 2.125 6.75 0 4 C0 2.68 0 1.36 0 0 Z " fill="#F1CACE" transform="translate(415,111)"/>
<path d="M0 0 C2.3129482 2.3129482 2.49580975 3.47904875 3.125 6.625 C3.29257812 7.44226563 3.46015625 8.25953125 3.6328125 9.1015625 C3.81457031 10.04128906 3.81457031 10.04128906 4 11 C2.68 10.67 1.36 10.34 0 10 C0 6.7 0 3.4 0 0 Z " fill="#CEC9A0" transform="translate(275,262)"/>
</svg>
