<?xml version="1.0" encoding="UTF-8"?>
<svg version="1.1" xmlns="http://www.w3.org/2000/svg" width="512" height="512">
<path d="M0 0 C1.05703125 0.37382812 2.1140625 0.74765625 3.203125 1.1328125 C25.83745755 9.89636177 44.8895705 26.7372953 55 49 C65.31360794 74.25873753 66.12808343 100.80661236 55.7265625 126.1796875 C45.18114851 150.34778162 25.7077823 166.6527327 1.828125 176.609375 C-2.34731644 178.2319991 -6.49522397 178.98302296 -10.9609375 179.3203125 C-11.97027344 179.65675781 -11.97027344 179.65675781 -13 180 C-13.6948022 181.65513508 -14.35605518 183.3244233 -15 185 C-17.20377823 188.85116061 -19.61574083 192.57093666 -22 196.3125 C-22.64195312 197.33923828 -23.28390625 198.36597656 -23.9453125 199.42382812 C-24.56148438 200.39384766 -25.17765625 201.36386719 -25.8125 202.36328125 C-26.37582031 203.25313721 -26.93914062 204.14299316 -27.51953125 205.05981445 C-28.00808594 205.70007568 -28.49664062 206.34033691 -29 207 C-29.66 207 -30.32 207 -31 207 C-32.26513672 205.35107422 -32.26513672 205.35107422 -33.6796875 203.0546875 C-34.19660156 202.22453125 -34.71351563 201.394375 -35.24609375 200.5390625 C-35.78363281 199.65992188 -36.32117188 198.78078125 -36.875 197.875 C-37.93426925 196.1636745 -38.99415203 194.45272859 -40.0546875 192.7421875 C-40.55709961 191.92588867 -41.05951172 191.10958984 -41.57714844 190.26855469 C-42.80325482 188.313685 -44.07264788 186.40668546 -45.3828125 184.5078125 C-47 182 -47 182 -47 180 C-48.15886719 179.89042969 -49.31773437 179.78085938 -50.51171875 179.66796875 C-54.87912166 179.11760106 -58.72443412 177.90687091 -62.8125 176.3125 C-63.50609619 176.0455835 -64.19969238 175.77866699 -64.91430664 175.50366211 C-74.64421165 171.66643716 -82.97563223 166.70183309 -91 160 C-91.65484375 159.49082031 -92.3096875 158.98164063 -92.984375 158.45703125 C-110.10983983 144.58540474 -120.71088695 121.6656457 -123 100 C-124.35605686 73.85748834 -119.26675238 49.42877082 -102 29 C-101.33226562 28.18660156 -100.66453125 27.37320313 -99.9765625 26.53515625 C-76.21845793 -1.29699153 -34.54440991 -12.40679511 0 0 Z " fill="#FD646F" transform="translate(286,22)"/>
<path d="M0 0 C19.19471745 15.43697573 30.27329967 36.91229441 34.08837891 61.07446289 C34.35077419 63.63730999 34.50035281 66.15995385 34.56103516 68.73461914 C34.59970703 69.43844727 34.63837891 70.14227539 34.67822266 70.86743164 C35.37768506 91.92902168 28.06784745 114.64800669 14.49853516 130.85961914 C13.93005859 131.46032227 13.36158203 132.06102539 12.77587891 132.67993164 C9.26015411 138.62614143 12.44387636 147.81261723 13.56103516 154.17211914 C13.75181641 155.28522461 13.94259766 156.39833008 14.13916016 157.54516602 C14.60795881 160.27591817 15.08205419 163.00563785 15.56103516 165.73461914 C11.6670077 164.66854933 8.40351622 163.1340119 4.94384766 161.10571289 C-3.85856496 155.68089507 -3.85856496 155.68089507 -13.73583984 153.89233398 C-18.0352191 155.12342939 -21.7244185 157.39972339 -25.52734375 159.70141602 C-28.69357128 161.4127155 -32.02191906 162.25944868 -35.50146484 163.10961914 C-37.25136719 163.5543457 -37.25136719 163.5543457 -39.03662109 164.00805664 C-64.43803955 169.43246977 -89.40569573 164.21346449 -111.43896484 150.73461914 C-114.98274382 148.27641605 -118.22956921 145.61341142 -121.43896484 142.73461914 C-122.79828125 141.51645508 -122.79828125 141.51645508 -124.18505859 140.27368164 C-140.82926237 124.52978847 -150.8083543 102.91164478 -151.82177734 79.98852539 C-152.14163422 67.04957375 -151.84063158 54.99024025 -147.43896484 42.73461914 C-147.06513672 41.67758789 -146.69130859 40.62055664 -146.30615234 39.53149414 C-137.07757624 15.69609889 -119.95524621 -1.72144326 -97.23583984 -12.83178711 C-65.01646405 -26.95939299 -27.48704113 -21.61058351 0 0 Z " fill="#6CF4C1" transform="translate(167.43896484375,185.265380859375)"/>
<path d="M0 0 C0.92167969 0.44085938 1.84335937 0.88171875 2.79296875 1.3359375 C9.97282571 5.00181651 15.98693563 9.65709395 22 15 C22.71027344 15.62648437 23.42054688 16.25296875 24.15234375 16.8984375 C39.01351985 30.84734338 49.96127518 52.50214313 51.17700195 72.98168945 C51.7528467 102.4094209 47.16463996 126.41194274 26.26953125 148.6953125 C8.29624376 166.9470158 -15.32082254 176.90421808 -40.9375 177.25 C-54.30088499 177.13044685 -70.48779105 175.10980617 -81.95141602 167.74658203 C-84.37989562 166.31396967 -86.20998906 165.47781373 -89 165 C-93.67168351 166.24153962 -97.71131099 168.43899496 -101.9375 170.75 C-104.17463448 171.91366564 -106.41285938 173.07523819 -108.65234375 174.234375 C-110.12175415 175.02666504 -110.12175415 175.02666504 -111.62084961 175.83496094 C-114 177 -114 177 -116 177 C-115.81187744 176.1028125 -115.62375488 175.205625 -115.42993164 174.28125 C-114.7464786 170.92402807 -114.10096337 167.56380318 -113.47924805 164.19482422 C-113.20359069 162.74306108 -112.91342786 161.29396998 -112.6081543 159.84814453 C-110.58749374 151.51145932 -110.58749374 151.51145932 -112.28808594 143.44995117 C-114.07961357 141.45545084 -115.97433651 139.75168472 -118 138 C-132.74797845 118.01664697 -137.24938802 92.12729032 -133.75 67.99609375 C-129.47551665 43.54388773 -115.92083472 21.88304364 -95.8125 7.3125 C-67.18555881 -11.70492807 -31.15413669 -15.07031789 0 0 Z " fill="#FEE177" transform="translate(445,174)"/>
<path d="M0 0 C7.96546727 0.77407362 13.40052552 2.78016377 18.8125 8.9375 C24.07460081 16.30444113 24.51993522 21.92637445 24.5 30.8125 C24.52835937 31.95009766 24.55671875 33.08769531 24.5859375 34.25976562 C24.60330793 41.78550635 23.40002244 46.84615736 19 53 C21.34533951 53.76956136 21.34533951 53.76956136 24 54 C24.45133301 53.53456787 24.90266602 53.06913574 25.36767578 52.58959961 C27.9756828 50.04985481 30.56642356 50.59317525 34.1171875 50.56640625 C34.81135773 50.5611644 35.50552795 50.55592255 36.22073364 50.55052185 C37.68832056 50.54410395 39.15595893 50.54543574 40.62353516 50.55395508 C42.86064227 50.56244551 45.09517776 50.53373921 47.33203125 50.50195312 C48.7604159 50.50034036 50.18880506 50.50092008 51.6171875 50.50390625 C53.56020752 50.50112671 53.56020752 50.50112671 55.54248047 50.49829102 C59.53722037 51.07795423 61.17088286 52.18041626 64 55 C65.55024464 58.10048928 65.28992015 60.57894218 65 64 C63 66.9375 63 66.9375 61 69 C61.49371094 69.33773437 61.98742187 69.67546875 62.49609375 70.0234375 C63.13675781 70.46945313 63.77742188 70.91546875 64.4375 71.375 C65.07558594 71.81585938 65.71367187 72.25671875 66.37109375 72.7109375 C68 74 68 74 69 76 C69.69446809 83.06042553 69.69446809 83.06042553 66.875 86.875 C63.93937694 89.04480835 61.5189709 90.09979814 58 91 C58.66 91.474375 59.32 91.94875 60 92.4375 C62.53619634 95.68700157 62.69665999 97.76451488 62.5234375 101.80859375 C61.57967022 105.75973885 59.39548081 106.91047335 56 109 C53.625 109.8125 53.625 109.8125 52 110 C52.845625 110.845625 53.69125 111.69125 54.5625 112.5625 C56.78782103 115.25063708 56.99498696 115.85712826 57.125 119.5625 C55.81411814 123.56797235 54.21780258 125.33157835 51 128 C48.5079208 129.2460396 46.93537595 129.06854579 44.15234375 128.9921875 C30.02620695 128.67608943 30.02620695 128.67608943 16.0625 130.5 C3.15840928 133.14356794 -9.20264163 133.88462556 -21 127 C-21.48001465 126.58250488 -21.9600293 126.16500977 -22.45458984 125.73486328 C-27.96889256 121.05783701 -33.3642731 121.25835605 -40.375 121.25 C-42.54953461 121.21701406 -44.72402278 121.18074335 -46.8984375 121.140625 C-47.85411621 121.13579102 -48.80979492 121.13095703 -49.79443359 121.12597656 C-52 121 -52 121 -53 120 C-53.1045582 118.016568 -53.13855605 116.02938759 -53.14526367 114.04321289 C-53.15164352 112.76841568 -53.15802338 111.49361847 -53.16459656 110.18019104 C-53.16612511 108.77767983 -53.16723914 107.37516811 -53.16796875 105.97265625 C-53.17117965 104.54398057 -53.17454359 103.11530522 -53.17805481 101.68663025 C-53.18405239 98.68797035 -53.18589407 95.6893393 -53.18530273 92.69067383 C-53.18520109 88.84242051 -53.19885297 84.9943516 -53.21607494 81.14614201 C-53.22717706 78.19424078 -53.2292225 75.24238438 -53.22869301 72.2904644 C-53.22987585 70.87144777 -53.23431454 69.45243009 -53.24202538 68.03343391 C-53.25178854 66.05104051 -53.24769253 64.06859334 -53.24291992 62.08618164 C-53.24434494 60.95668594 -53.24576996 59.82719025 -53.24723816 58.66346741 C-53 56 -53 56 -51 54 C-48.76025391 53.82397461 -48.76025391 53.82397461 -45.9765625 53.90234375 C-30.29875731 54.24334986 -30.29875731 54.24334986 -17.33984375 46.39453125 C-16.56769531 45.60433594 -15.79554687 44.81414062 -15 44 C-13.52468855 42.84920715 -12.04585107 41.70291119 -10.5625 40.5625 C-5.33190513 35.90944998 -1.36244054 28.4902117 -0.79467773 21.45629883 C-0.75802002 20.46654053 -0.7213623 19.47678223 -0.68359375 18.45703125 C-0.62075195 16.84731445 -0.62075195 16.84731445 -0.55664062 15.20507812 C-0.51732422 14.08552734 -0.47800781 12.96597656 -0.4375 11.8125 C-0.37272461 10.11577148 -0.37272461 10.11577148 -0.30664062 8.38476562 C-0.20050901 5.58996646 -0.09845615 2.79507838 0 0 Z " fill="#F5DBCC" transform="translate(103,183)"/>
<path d="M0 0 C10.59923927 9.16115153 20.14062292 22.85154068 21.5 37.125 C20.00174939 40.83119887 18.84325095 41.89616603 15.5 44.125 C13.34882545 44.38226891 13.34882545 44.38226891 10.80703735 44.39242554 C9.84251144 44.40095551 8.87798553 44.40948547 7.88423157 44.41827393 C6.82753769 44.41736755 5.77084381 44.41646118 4.68212891 44.41552734 C3.56806168 44.42224457 2.45399445 44.42896179 1.3061676 44.43588257 C-2.38707912 44.45492458 -6.08014471 44.45878992 -9.7734375 44.4609375 C-12.33550085 44.46736111 -14.89756346 44.47408914 -17.45962524 44.48110962 C-22.83475761 44.49309794 -28.20981784 44.49687435 -33.58496094 44.49560547 C-39.79428426 44.49440424 -46.00325987 44.51550145 -52.21249521 44.5470928 C-58.18886532 44.57641412 -64.1650469 44.58358111 -70.14149857 44.58238602 C-72.68285161 44.58474908 -75.22420712 44.59361201 -77.76551437 44.60905075 C-81.31841751 44.62861347 -84.87042271 44.62291006 -88.42333984 44.61083984 C-89.47598526 44.62207886 -90.52863068 44.63331787 -91.61317444 44.64489746 C-96.08292384 44.60624774 -98.74261784 44.57914625 -102.63565063 42.24478149 C-104.83997721 39.73844294 -105.37998437 38.4504331 -105.5 35.125 C-102.54241039 20.14132911 -92.90073292 6.37481352 -80.75 -2.625 C-54.90652255 -19.48289913 -24.61064134 -18.55205838 0 0 Z " fill="#8AC9FE" transform="translate(297.5,350.875)"/>
<path d="M0 0 C11.09710561 8.76062442 20.19928085 20.53718586 23.6171875 34.51953125 C24.23585778 40.50001062 24.23585778 40.50001062 22.29516602 43.69812012 C17.96628934 46.6423798 13.50974102 46.07536247 8.39453125 46.03710938 C7.24945099 46.04411865 6.10437073 46.05112793 4.92459106 46.05834961 C1.13437752 46.07597423 -2.65509118 46.06429017 -6.4453125 46.05078125 C-9.07560367 46.05347486 -11.70589388 46.05735618 -14.33618164 46.06237793 C-19.850831 46.06965297 -25.36526601 46.06007062 -30.87988281 46.04101562 C-37.25343917 46.01924685 -43.6264837 46.02629834 -50.00002766 46.04832125 C-56.13394772 46.06866696 -62.26764104 46.06650525 -68.40158081 46.05479431 C-71.01073274 46.05212235 -73.6198977 46.05541317 -76.22903442 46.06471252 C-79.87309576 46.07484958 -83.51616869 46.05941499 -87.16015625 46.03710938 C-88.24287811 46.0452063 -89.32559998 46.05330322 -90.44113159 46.06164551 C-97.7389474 45.97871662 -97.7389474 45.97871662 -101.0559082 43.61315918 C-103.11703142 40.36105943 -102.79279488 38.35101211 -102.2421875 34.62890625 C-99.10590049 23.2812496 -92.84093245 13.6158065 -84.3828125 5.51953125 C-83.79371094 4.89949219 -83.20460938 4.27945312 -82.59765625 3.640625 C-60.91440274 -17.66138449 -23.64978536 -17.7943507 0 0 Z " fill="#89C8FE" transform="translate(396.3828125,448.48046875)"/>
<path d="M0 0 C3.65331791 2.74118232 6.84528702 5.70429426 10 9 C10.62003906 9.58910156 11.24007812 10.17820312 11.87890625 10.78515625 C19.4602268 18.50216039 25.47074771 30.17822481 26.453125 40.984375 C25.73208169 44.19177455 24.70550636 45.07051362 22 47 C18.26705506 47.62053074 14.55392603 47.54582056 10.77734375 47.51757812 C9.63226349 47.5245874 8.48718323 47.53159668 7.30740356 47.53881836 C3.51719002 47.55644298 -0.27227868 47.54475892 -4.0625 47.53125 C-6.69279117 47.53394361 -9.32308138 47.53782493 -11.95336914 47.54284668 C-17.4680185 47.55012172 -22.98245351 47.54053937 -28.49707031 47.52148438 C-34.87062667 47.4997156 -41.2436712 47.50676709 -47.61721516 47.52879 C-53.75113522 47.54913571 -59.88482854 47.546974 -66.01876831 47.53526306 C-68.62792024 47.5325911 -71.2370852 47.53588192 -73.84622192 47.54518127 C-77.49028326 47.55531833 -81.13335619 47.53988374 -84.77734375 47.51757812 C-85.86006561 47.52567505 -86.94278748 47.53377197 -88.05831909 47.54211426 C-95.33746042 47.45939758 -95.33746042 47.45939758 -98.66625977 45.15124512 C-100.64702906 41.95637991 -100.71033392 39.5765936 -100 36 C-97.42794018 27.28231052 -93.60957858 20.10966814 -88 13 C-87.53980469 12.37609375 -87.07960938 11.7521875 -86.60546875 11.109375 C-65.94176572 -15.33063694 -26.76987662 -16.89112674 0 0 Z " fill="#8AC8FE" transform="translate(191,447)"/>
<path d="M0 0 C6.44285999 4.63799438 11.93381927 10.81239391 17.5 16.4375 C18.32242188 17.26443359 19.14484375 18.09136719 19.9921875 18.94335938 C21.99712113 20.95994959 23.99966253 22.97885236 26 25 C29.82907506 23.42750282 32.19439873 21.00663341 35.0625 18.0625 C35.5356665 17.58176025 36.00883301 17.10102051 36.49633789 16.60571289 C38.00248836 15.07521758 39.50199469 13.5384659 41 12 C42.97334561 9.97335502 44.9532726 7.95348585 46.9375 5.9375 C47.81277344 5.03902344 48.68804687 4.14054687 49.58984375 3.21484375 C53.22597725 -0.12662739 54.89303338 -1.0178543 59.875 -0.9375 C64.5020868 -0.21235953 66.75435671 1.67707948 70 5 C72.24251436 8.67711951 72.3602788 11.33930387 71.70727539 15.52929688 C70.91402145 18.3003462 69.96084551 19.5921587 68.0234375 21.703125 C67.39348877 22.39116211 66.76354004 23.07919922 66.11450195 23.78808594 C62.32373623 27.75348686 58.46182392 31.64152315 54.5625 35.5 C53.73556641 36.32242188 52.90863281 37.14484375 52.05664062 37.9921875 C50.04005041 39.99712113 48.02114764 41.99966253 46 44 C51.49250091 50.63529546 57.55266092 56.58668955 63.71875 62.59179688 C64.49734375 63.35943359 65.2759375 64.12707031 66.078125 64.91796875 C66.78356445 65.60656982 67.48900391 66.2951709 68.21582031 67.00463867 C70.97798118 70.09373839 71.91655849 72.2490264 72.375 76.375 C71.79603714 81.97164102 69.39892102 84.73121116 65.3125 88.4375 C61.56003824 90.20752913 59.44250377 90.61002139 55.39453125 89.8984375 C50.92419937 88.22115147 47.89159479 84.98893437 44.59423828 81.625 C42.68458463 79.67849851 40.746899 77.76171581 38.80859375 75.84375 C34.8506407 71.91721274 30.91845708 67.96592255 27 64 C20.36470454 69.49250091 14.41331045 75.55266092 8.40820312 81.71875 C7.64056641 82.49734375 6.87292969 83.2759375 6.08203125 84.078125 C5.39343018 84.78356445 4.7048291 85.48900391 3.99536133 86.21582031 C1.41522089 88.52288826 -0.69509996 89.92996959 -4.18359375 90.1171875 C-9.23372146 89.57453946 -12.37386992 88.84589554 -16 85 C-18.52726364 80.67657398 -18.93674853 76.89411209 -18 72 C-16.74560547 70.12011719 -16.74560547 70.12011719 -15.0546875 68.296875 C-14.42022705 67.60883789 -13.7857666 66.92080078 -13.13208008 66.21191406 C-9.32233895 62.25952031 -5.46459122 58.36121517 -1.5625 54.5 C-0.73556641 53.67757812 0.09136719 52.85515625 0.94335938 52.0078125 C2.95994959 50.00287887 4.97885236 48.00033747 7 46 C5.47767317 42.38260501 3.33629901 40.13089144 0.53515625 37.41015625 C-0.34720703 36.54326172 -1.22957031 35.67636719 -2.13867188 34.78320312 C-4.00059655 32.97325123 -5.86257548 31.16335516 -7.72460938 29.35351562 C-8.60826172 28.48533203 -9.49191406 27.61714844 -10.40234375 26.72265625 C-11.21179443 25.93640869 -12.02124512 25.15016113 -12.85522461 24.34008789 C-17.04573258 19.76797418 -18.58155809 16.32680061 -18.34765625 10.21484375 C-17.78975404 6.66056786 -16.38894889 4.6404172 -14 2 C-9.47095626 -1.19091718 -5.2224482 -1.92808756 0 0 Z " fill="#EBEEF0" transform="translate(229,66)"/>
<path d="M0 0 C7.27658348 4.86026069 11.44720564 12.43220483 13.74609375 20.75 C14.63856795 29.50870025 13.98479562 36.98369428 9.74609375 44.75 C9.22015625 45.71873047 9.22015625 45.71873047 8.68359375 46.70703125 C4.33931 53.63073348 -3.06942995 58.02848688 -10.8125 60.27734375 C-19.7615302 62.009876 -28.20925404 61.11340054 -36.25390625 56.75 C-44.42307525 51.01991146 -50.32287243 43.70807638 -52.25390625 33.75 C-53.0901568 24.52382587 -52.06679927 16.12599845 -46.60546875 8.42578125 C-44.90706883 6.41959269 -43.14606061 4.57287639 -41.25390625 2.75 C-40.14015625 1.63625 -40.14015625 1.63625 -39.00390625 0.5 C-26.345517 -7.55533861 -12.91608133 -7.16316469 0 0 Z " fill="#F6DBCC" transform="translate(376.25390625,366.25)"/>
<path d="M0 0 C6.87047032 4.33924441 11.26216724 11.80443063 13.49609375 19.49609375 C15.23627909 28.48465437 14.23556666 36.81557706 9.96875 44.9375 C7.87404257 47.8909382 5.5731017 50.42850213 2.96875 52.9375 C2.22625 53.68 1.48375 54.4225 0.71875 55.1875 C-7.27942689 60.27724893 -15.63734193 62.13018205 -25.03125 60.9375 C-34.96299921 58.69356201 -41.58680202 53.66886377 -47.40625 45.4375 C-52.47762452 37.23785913 -53.46439412 28.39093939 -51.37890625 19 C-49.23823612 12.38505369 -46.01146099 7.73536917 -41.03125 2.9375 C-39.9175 1.82375 -39.9175 1.82375 -38.78125 0.6875 C-26.10743774 -7.37765326 -13.03051401 -6.81596118 0 0 Z " fill="#F5DBCC" transform="translate(173.03125,366.0625)"/>
<path d="M0 0 C7.56721803 5.41470548 11.93049347 12.62700027 13.71875 21.6875 C14.96344714 30.73984281 13.40325762 39.6672193 8.25 47.3125 C2.82114132 54.20445534 -3.87062692 59.26586231 -12.7109375 60.61083984 C-24.07142642 61.76430956 -32.57961762 59.6405845 -41.86328125 52.7421875 C-47.96806216 47.3302404 -51.53740177 40.26343343 -52.1953125 32.140625 C-52.64691302 21.7042752 -51.12185597 14.20717699 -44.4375 6.0625 C-32.19637167 -6.98260074 -15.41840381 -9.49421845 0 0 Z " fill="#F6DBCC" transform="translate(274.75,266.6875)"/>
<path d="M0 0 C23.08627303 -1.29860286 44.83644357 7.59868174 62.27392578 22.60668945 C79.43497553 37.93995039 91.23959889 59.83535686 93 83 C94.52910565 110.46632039 87.33486088 134.27884958 69.3359375 155.44140625 C56.87693006 169.08797794 38.04027866 181.88517533 19.0390625 183.3203125 C18.02972656 183.65675781 18.02972656 183.65675781 17 184 C16.3051978 185.65513508 15.64394482 187.3244233 15 189 C12.79622177 192.85116061 10.38425917 196.57093666 8 200.3125 C7.03707031 201.85260742 7.03707031 201.85260742 6.0546875 203.42382812 C5.43851562 204.39384766 4.82234375 205.36386719 4.1875 206.36328125 C3.34251953 207.69806519 3.34251953 207.69806519 2.48046875 209.05981445 C1.99191406 209.70007568 1.50335938 210.34033691 1 211 C0.34 211 -0.32 211 -1 211 C-5.05475504 206.0184438 -5.05475504 206.0184438 -4.8828125 202.8203125 C-2.48213783 195.15090049 2.02476571 185.75997618 9.27001953 181.74072266 C14.2597811 179.82846085 19.44936764 178.75594942 24.65576172 177.60253906 C41.92180261 173.16465228 58.03607921 157.09904192 67.25 142.625 C80.54560565 119.84019193 85.79698827 93.91537112 78.97753906 67.88037109 C75.25365199 55.4539892 69.24931468 44.00012526 61 34 C60.33613281 33.16210938 59.67226563 32.32421875 58.98828125 31.4609375 C44.35229002 13.9843195 22.25293591 3.99862257 0 1 C0 0.67 0 0.34 0 0 Z " fill="#FD4856" transform="translate(256,18)"/>
<path d="M0 0 C15.67942526 -0.82162927 29.82154911 2.14139999 44 9 C44.92167969 9.44085938 45.84335937 9.88171875 46.79296875 10.3359375 C53.97282571 14.00181651 59.98693563 18.65709395 66 24 C66.71027344 24.62648437 67.42054688 25.25296875 68.15234375 25.8984375 C83.01351985 39.84734338 93.96127518 61.50214313 95.17700195 81.98168945 C95.7528467 111.4094209 91.16463996 135.41194274 70.26953125 157.6953125 C53.37728479 174.84922887 30.83623425 185.4026309 6.59375 186.09765625 C5.06234375 186.08025391 5.06234375 186.08025391 3.5 186.0625 C2.4584375 186.05347656 1.416875 186.04445313 0.34375 186.03515625 C-0.81640625 186.01775391 -0.81640625 186.01775391 -2 186 C-2 185.67 -2 185.34 -2 185 C-1.17145508 184.86537354 -1.17145508 184.86537354 -0.32617188 184.72802734 C23.15597379 180.82244264 41.82767104 174.1423074 59 157 C59.69609375 156.31550781 60.3921875 155.63101563 61.109375 154.92578125 C77.0986286 138.16185451 84.57171195 114.37234832 84.28344727 91.57763672 C83.61436126 68.19244964 75.7356711 47.30363833 60 30 C59.39929688 29.30648437 58.79859375 28.61296875 58.1796875 27.8984375 C43.12456708 11.53984346 21.48154626 3.99010534 0 1 C0 0.67 0 0.34 0 0 Z " fill="#FFD164" transform="translate(401,165)"/>
<path d="M0 0 C27.20181798 -1.04177175 49.5155907 8.43605614 70.02734375 25.70703125 C86.4815747 40.99978707 96.78494793 64.35973375 97.9453125 86.6796875 C97.96335937 87.44539063 97.98140625 88.21109375 98 89 C98.03867188 89.70382813 98.07734375 90.40765625 98.1171875 91.1328125 C98.8166499 112.19440254 91.50681229 134.91338755 77.9375 151.125 C77.36902344 151.72570312 76.80054688 152.32640625 76.21484375 152.9453125 C72.69911895 158.89152229 75.88284121 168.07799809 77 174.4375 C77.28617188 176.1071582 77.28617188 176.1071582 77.578125 177.81054688 C78.04692365 180.54129903 78.52101904 183.27101871 79 186 C76.98608051 185.37664397 74.98867713 184.69971973 73 184 C71.40478516 183.53207031 71.40478516 183.53207031 69.77734375 183.0546875 C65.96421263 180.2337213 65.78694366 177.71126867 65.00195312 173.16015625 C64.85693359 172.15855469 64.71191406 171.15695312 64.5625 170.125 C64.39041016 169.13113281 64.21832031 168.13726562 64.04101562 167.11328125 C63.01623352 160.81276902 62.37877164 156.41810332 66.07421875 150.90625 C66.94111366 149.76762428 67.81244127 148.6323637 68.6875 147.5 C83.28322166 127.73728393 88.70902933 102.73076302 85.68359375 78.46191406 C81.55371609 54.5547339 68.15625053 31.90278895 48.27197266 17.77197266 C33.78204686 8.02236157 17.36442082 2.7023942 0 1 C0 0.67 0 0.34 0 0 Z " fill="#05E59B" transform="translate(104,165)"/>
<path d="M0 0 C5.46341463 2.92682927 5.46341463 2.92682927 7 6 C7.09241824 7.35031497 7.12340242 8.70512075 7.12182617 10.05859375 C7.12225418 10.90526611 7.12268219 11.75193848 7.12312317 12.62426758 C7.11438423 14.01681763 7.11438423 14.01681763 7.10546875 15.4375 C7.1017778 16.41033936 7.09808685 17.38317871 7.09428406 18.38549805 C7.02774386 29.44328878 6.78524585 40.49512767 6.42016602 51.546875 C6.34750443 53.87731826 6.28491451 56.20809433 6.23168945 58.5390625 C6.15264831 61.96465344 6.042644 65.38801625 5.92578125 68.8125 C5.90784012 69.84995361 5.88989899 70.88740723 5.87141418 71.95629883 C5.68547383 76.50176985 5.53190735 79.96779734 2.65698242 83.62890625 C-0.69913754 86.62391104 -2.51676655 87.15730644 -7 87 C-10.4074203 85.32843532 -12.42792875 84.14452458 -14.14230347 80.71463013 C-15.0753848 77.7614053 -15.314847 75.28421314 -15.41064453 72.19091797 C-15.45053497 71.04557587 -15.49042542 69.90023376 -15.53152466 68.72018433 C-15.56494965 67.48994537 -15.59837463 66.25970642 -15.6328125 64.9921875 C-15.67437469 63.715784 -15.71593689 62.43938049 -15.75875854 61.1242981 C-15.86887839 57.73231166 -15.96771328 54.34008351 -16.06445312 50.94769287 C-16.14455088 48.20571743 -16.23270209 45.46402997 -16.32132149 42.72231865 C-16.99831693 21.7386585 -16.99831693 21.7386585 -17.09716797 12.82470703 C-17.10763153 11.96313995 -17.11809509 11.10157288 -17.12887573 10.21389771 C-16.94575903 7.06821897 -16.10682173 5.32476881 -14 3 C-9.79990351 -0.58243524 -5.29021109 -0.86465665 0 0 Z " fill="#EBEEF0" transform="translate(408,194)"/>
<path d="M0 0 C7.59 0 15.18 0 23 0 C23 22.11 23 44.22 23 67 C15.08 67 7.16 67 -1 67 C-2.80044957 65.19955043 -2.13706544 62.47076589 -2.14526367 60.04321289 C-2.15164352 58.76841568 -2.15802338 57.49361847 -2.16459656 56.18019104 C-2.16612511 54.77767983 -2.16723914 53.37516811 -2.16796875 51.97265625 C-2.17117965 50.54398057 -2.17454359 49.11530522 -2.17805481 47.68663025 C-2.18405239 44.68797035 -2.18589407 41.6893393 -2.18530273 38.69067383 C-2.18520109 34.84242051 -2.19885297 30.9943516 -2.21607494 27.14614201 C-2.22717706 24.19424078 -2.2292225 21.24238438 -2.22869301 18.2904644 C-2.22987585 16.87144777 -2.23431454 15.45243009 -2.24202538 14.03343391 C-2.25178854 12.05104051 -2.24769253 10.06859334 -2.24291992 8.08618164 C-2.24434494 6.95668594 -2.24576996 5.82719025 -2.24723816 4.66346741 C-2 2 -2 2 0 0 Z " fill="#D0D0D5" transform="translate(52,237)"/>
<path d="M0 0 C-0.78375 0.763125 -1.5675 1.52625 -2.375 2.3125 C-6.22293329 6.25205075 -7.22321984 8.37247074 -7.36328125 13.8671875 C-6.46384242 19.14776387 -2.58679839 22.60554258 1.140625 26.16015625 C2.13843069 27.12783277 3.13581448 28.09594448 4.1328125 29.06445312 C5.69718738 30.57281648 7.26516601 32.07690491 8.84082031 33.57348633 C10.36850584 35.0288652 11.88029177 36.49930762 13.390625 37.97265625 C14.29844727 38.84156494 15.20626953 39.71047363 16.14160156 40.60571289 C18 43 18 43 18.09057617 45 C16.5352133 47.85236907 14.50134134 49.77632466 12.16015625 52.02734375 C11.67800156 52.49813858 11.19584686 52.96893341 10.69908142 53.45399475 C8.64224976 55.46192897 6.56816109 57.45169038 4.49536133 59.44311523 C2.98159573 60.90245116 1.47703301 62.37084084 -0.02734375 63.83984375 C-0.93218506 64.70988037 -1.83702637 65.57991699 -2.76928711 66.47631836 C-5.51825683 69.58632164 -6.99086816 72.16754394 -7.01171875 76.3515625 C-6.90472656 77.10179687 -6.79773438 77.85203125 -6.6875 78.625 C-6.58824219 79.38039063 -6.48898438 80.13578125 -6.38671875 80.9140625 C-6.01573821 83.18278002 -6.01573821 83.18278002 -5 86 C-2.49552484 87.21869929 -2.49552484 87.21869929 0 88 C-2 90 -2 90 -3.98828125 90.1171875 C-9.1126206 89.58322273 -12.32028112 88.90273214 -16 85 C-18.52726364 80.67657398 -18.93674853 76.89411209 -18 72 C-16.74560547 70.12011719 -16.74560547 70.12011719 -15.0546875 68.296875 C-14.42022705 67.60883789 -13.7857666 66.92080078 -13.13208008 66.21191406 C-9.32233895 62.25952031 -5.46459122 58.36121517 -1.5625 54.5 C-0.73556641 53.67757812 0.09136719 52.85515625 0.94335938 52.0078125 C2.95994959 50.00287887 4.97885236 48.00033747 7 46 C5.47767317 42.38260501 3.33629901 40.13089144 0.53515625 37.41015625 C-0.34720703 36.54326172 -1.22957031 35.67636719 -2.13867188 34.78320312 C-4.00059655 32.97325123 -5.86257548 31.16335516 -7.72460938 29.35351562 C-8.60826172 28.48533203 -9.49191406 27.61714844 -10.40234375 26.72265625 C-11.21179443 25.93640869 -12.02124512 25.15016113 -12.85522461 24.34008789 C-17.04573258 19.76797418 -18.58155809 16.32680061 -18.34765625 10.21484375 C-17.78975404 6.66056786 -16.38894889 4.6404172 -14 2 C-9.0171061 -1.51067525 -5.71713897 -1.08428498 0 0 Z " fill="#D3CFD4" transform="translate(229,66)"/>
<path d="M0 0 C19.04342818 0.57892022 36.25549261 7.68478843 49.51171875 21.546875 C56.75460661 29.99001285 63.30532231 41.08088427 64.375 52.3125 C62.87674939 56.01869887 61.71825095 57.08366603 58.375 59.3125 C55.60844676 59.45495897 52.94846694 59.50019445 50.1875 59.4375 C49.43791016 59.42847656 48.68832031 59.41945313 47.91601562 59.41015625 C46.06887346 59.38662578 44.22189588 59.35075561 42.375 59.3125 C43.2 58.6525 44.025 57.9925 44.875 57.3125 C47.52706348 54.13002382 48.04664578 52.52441376 47.77001953 48.41357422 C47.07922076 44.73927618 45.57049195 41.65051328 43.8125 38.375 C43.26613892 37.32795898 43.26613892 37.32795898 42.70874023 36.25976562 C39.79106871 30.80380236 36.61134343 25.8501351 32.375 21.3125 C31.75625 20.64089844 31.1375 19.96929687 30.5 19.27734375 C21.12538672 10.06252501 7.33768699 3.86802244 -5.625 2.3125 C-3.625 0.3125 -3.625 0.3125 0 0 Z " fill="#62B8FE" transform="translate(254.625,335.6875)"/>
<path d="M0 0 C20.7395223 -0.99284947 38.40935788 3.96566176 54.08203125 18.13671875 C62.65097526 26.2833852 70.14551469 38.73997534 71.375 50.625 C71 54 71 54 69.4921875 56.1953125 C66.01358567 58.71430003 62.86555952 58.43905397 58.75 58.25 C58.00492187 58.23195313 57.25984375 58.21390625 56.4921875 58.1953125 C54.66090299 58.14835649 52.83028351 58.07661652 51 58 C51.65613281 57.25621094 52.31226563 56.51242187 52.98828125 55.74609375 C55.36127438 53.0367168 55.36127438 53.0367168 55.1875 49.0625 C52.80144821 34.6256816 42.21401685 21.70973722 31 13 C21.52716802 6.35212926 11.35480947 2.87194256 0 1 C0 0.67 0 0.34 0 0 Z " fill="#62B8FE" transform="translate(349,436)"/>
<path d="M0 0 C18.72431576 -0.70806236 36.12955293 2.84105705 50.5625 15.5 C52.06210012 16.97957207 53.54328818 18.47818375 55 20 C55.62003906 20.58910156 56.24007812 21.17820312 56.87890625 21.78515625 C64.4602268 29.50216039 70.47074771 41.17822481 71.453125 51.984375 C70.75039498 55.110312 69.6180336 56.16737648 67 58 C64.10550051 58.2906124 61.62050065 58.38186045 58.75 58.25 C58.00492188 58.23195313 57.25984375 58.21390625 56.4921875 58.1953125 C54.66090299 58.14835649 52.83028351 58.07661652 51 58 C51.66 57.23945313 52.32 56.47890625 53 55.6953125 C55.31036216 53.14112083 55.31036216 53.14112083 55 49.875 C54.70824237 48.57331211 54.36903823 47.28192226 54 46 C53.7834375 45.195625 53.566875 44.39125 53.34375 43.5625 C48.2973886 27.48890444 36.64964453 15.46315695 21.98364258 7.68432617 C14.98926241 4.23263446 7.6118035 2.52036023 0 1 C0 0.67 0 0.34 0 0 Z " fill="#62B8FE" transform="translate(146,436)"/>
<path d="M0 0 C6.19720571 0.61326515 9.76361284 1.61816662 15 5 C12.36749612 6.31625194 11.19820944 5.74813658 8.375 5.0625 C7.55773437 4.86785156 6.74046875 4.67320312 5.8984375 4.47265625 C5.27195313 4.31667969 4.64546875 4.16070312 4 4 C4.02618408 4.77077881 4.05236816 5.54155762 4.0793457 6.33569336 C4.1840663 9.86941683 4.24856509 13.40281272 4.3125 16.9375 C4.35439453 18.14986328 4.39628906 19.36222656 4.43945312 20.61132812 C4.56429053 29.82432838 2.7702204 35.10532791 -2.78125 42.3125 C-5.78442033 45.26106723 -8.52838168 47.73644354 -12.23088074 49.80552673 C-19.26968087 53.71245044 -19.26968087 53.71245044 -23.18325806 60.42849731 C-23.60053178 64.5922563 -23.62320268 68.57994808 -23.48828125 72.75390625 C-23.48646918 74.26562371 -23.4904044 75.77735791 -23.49980164 77.28904724 C-23.50911655 81.241477 -23.4411146 85.18881933 -23.35620117 89.14019775 C-23.28327336 93.18249654 -23.28453657 97.22472523 -23.27929688 101.26757812 C-23.25823583 109.18016247 -23.15538215 117.08891798 -23 125 C-25.45162964 123.90150452 -25.45162964 123.90150452 -28 122 C-28.68875122 119.12498474 -28.68875122 119.12498474 -28.77392578 115.57592773 C-28.79553772 114.92830978 -28.81714966 114.28069183 -28.8394165 113.6134491 C-28.9022524 111.4698039 -28.92658458 109.32805194 -28.9453125 107.18359375 C-28.96901139 105.68725619 -28.99301294 104.1909234 -29.01730347 102.69459534 C-29.06081167 99.55302311 -29.0820348 96.41211198 -29.09130859 93.27026367 C-29.1074996 89.26531796 -29.20659005 85.26716188 -29.32676888 81.26417446 C-29.40538962 78.16933339 -29.42457221 75.07608658 -29.42809677 71.98033333 C-29.43945554 70.50620411 -29.47208393 69.03206544 -29.52731705 67.55892754 C-29.91337175 56.38744102 -29.91337175 56.38744102 -26.72676849 52.41130447 C-23.18268706 49.03276023 -19.16248399 46.54422053 -15 44 C-7.67997275 38.51687105 -3.89614994 32.68844982 -1 24 C-0.85110253 22.15533558 -0.7520899 20.30642725 -0.68359375 18.45703125 C-0.64169922 17.38388672 -0.59980469 16.31074219 -0.55664062 15.20507812 C-0.51732422 14.08552734 -0.47800781 12.96597656 -0.4375 11.8125 C-0.39431641 10.68134766 -0.35113281 9.55019531 -0.30664062 8.38476562 C-0.20050901 5.58996646 -0.09845615 2.79507838 0 0 Z " fill="#EFCCBD" transform="translate(103,183)"/>
<path d="M0 0 C9.62388856 -0.7515401 18.73224584 1.41953091 26.44140625 7.46484375 C33.50154954 14.41881947 37.04575319 23.08132978 37.4375 32.875 C37.12046019 43.25805372 33.41324255 50.85818052 26 58 C25.2575 58.7425 24.515 59.485 23.75 60.25 C16.26069124 65.01592376 8.79092491 66.68649305 0 66 C2.21121387 63.78878613 3.05836045 63.64664525 6 62.9375 C14.05952926 60.32465261 20.20378772 54.29650347 24.125 46.875 C27.41146357 38.53603728 27.42467552 29.00451779 24.4375 20.5625 C20.78106878 12.79742874 14.74294449 6.18194108 6.625 3.09765625 C4.42752568 2.35257511 2.22634109 1.65306005 0 1 C0 0.67 0 0.34 0 0 Z " fill="#F1CCBD" transform="translate(150,361)"/>
<path d="M0 0 C10.15471783 -0.79299315 19.21989172 1.69586722 27.21484375 8.1640625 C33.76617923 14.90175982 37.26942585 23.41724526 37.375 32.75 C37.27152207 39.29670386 36.12895152 44.26701974 33 50 C32.4740625 50.96873047 32.4740625 50.96873047 31.9375 51.95703125 C27.53752341 58.96949395 20.14231662 63.18922501 12.3515625 65.54296875 C8.2392699 66.3422017 4.16709294 66.23488833 0 66 C2.21121387 63.78878613 3.05836045 63.64664525 6 62.9375 C13.79239564 60.42382399 19.9286391 54.43466419 24.125 47.5 C27.48681824 39.85515354 27.36489846 30.1131729 25.23046875 22.1171875 C24.30262422 19.93619835 23.26087012 18.0033337 22 16 C21.443125 14.948125 20.88625 13.89625 20.3125 12.8125 C14.99031363 6.33957063 7.9565868 3.14432836 0 1 C0 0.67 0 0.34 0 0 Z " fill="#F1CCBD" transform="translate(353,361)"/>
<path d="M0 0 C10.76456148 -0.52086588 19.67354411 1.93367824 28 9 C34.98163446 16.36272804 38 24.90945922 38 35 C37.04844322 44.81292932 33.52952561 52.41549079 26.32421875 59.16796875 C18.42235309 65.39649815 10.87564879 66.77557451 1 66 C3.4932769 64.3378154 5.44739205 63.38429444 8.1875 62.3125 C16.40751919 58.66361343 21.42008836 53.53831852 25.1015625 45.34765625 C26.18598132 42.51402272 26.8022037 40.03287654 27 37 C27.0825 35.7625 27.165 34.525 27.25 33.25 C27.08405693 24.53798908 23.72956766 16.5159789 18 10 C12.6385247 5.37560134 6.78707936 2.82914196 0 1 C0 0.67 0 0.34 0 0 Z " fill="#F1CCBD" transform="translate(251,261)"/>
<path d="M0 0 C-0.5775 0.2475 -1.155 0.495 -1.75 0.75 C-4.42821326 2.23789625 -6.05306778 3.62083573 -8 6 C-8.58338241 8.90163978 -8.58338241 8.90163978 -8.4609375 12.16796875 C-8.45868164 13.43479492 -8.45642578 14.70162109 -8.45410156 16.00683594 C-8.42907314 17.40041531 -8.4026669 18.79397051 -8.375 20.1875 C-8.35845717 21.63182927 -8.34251977 23.07616559 -8.32714844 24.52050781 C-8.26205864 29.34832819 -8.13584262 34.17371893 -8 39 C-7.97595093 39.89438782 -7.95190186 40.78877563 -7.92712402 41.71026611 C-7.7728837 47.30953438 -7.58535519 52.90649355 -7.35919189 58.50332642 C-7.28661592 60.32894288 -7.21948427 62.15478421 -7.15789795 63.98080444 C-7.06737124 66.55616863 -6.95139947 69.12914583 -6.828125 71.703125 C-6.80499237 72.46947769 -6.78185974 73.23583038 -6.75802612 74.02540588 C-6.48380829 78.96365663 -5.33056204 81.39898631 -2 85 C-2 85.66 -2 86.32 -2 87 C-6.31095008 86.7464147 -8.49714628 86.4154009 -11.875 83.625 C-14.90338054 79.88405933 -15.14283364 77.08828304 -15.29711914 72.41796875 C-15.33708511 71.27247559 -15.37705109 70.12698242 -15.41822815 68.94677734 C-15.45681442 67.70621582 -15.4954007 66.4656543 -15.53515625 65.1875 C-15.57813339 63.9082666 -15.62111053 62.6290332 -15.66539001 61.31103516 C-15.75632441 58.59757556 -15.84428389 55.88404168 -15.92993164 53.17041016 C-16.03882979 49.72210331 -16.15314297 46.27400507 -16.26950932 42.82594299 C-16.38107722 39.50903258 -16.48934645 36.19201847 -16.59765625 32.875 C-16.63826675 31.65063232 -16.67887726 30.42626465 -16.72071838 29.16479492 C-16.89201548 23.71740213 -17.03898388 18.27016262 -17.09936523 12.8203125 C-17.10951157 11.95937988 -17.1196579 11.09844727 -17.13011169 10.21142578 C-16.94513134 7.06743221 -16.10576995 5.32360822 -14 3 C-9.67028895 -0.69298884 -5.3976315 -0.31750774 0 0 Z " fill="#D3D2D4" transform="translate(408,194)"/>
<path d="M0 0 C3.64214218 2.03467585 6.33990736 4.19682011 7.80078125 8.1875 C8.49477445 12.33743912 8.22544729 14.53176333 6.375 18.375 C2.71620017 22.41893666 0.53047553 23.8056539 -4.9375 24.5 C-9.70314808 24.31982427 -11.76251637 22.39164952 -15 19 C-17.54641337 15.52761813 -17.43529792 12.20787993 -17 8 C-13.31079222 0.62158443 -8.07056398 -2.40701031 0 0 Z " fill="#ECEEEE" transform="translate(408,297)"/>
<path d="M0 0 C16.83 0 33.66 0 51 0 C50 6 50 6 47.3125 8.3125 C40.18709708 11.94242224 32.41913584 11.08826744 24.63232422 10.86791992 C22.50614127 10.81265961 20.38059668 10.78410717 18.25390625 10.75585938 C16.88797697 10.72040137 15.52208804 10.68334521 14.15625 10.64453125 C12.92712891 10.61721924 11.69800781 10.58990723 10.43164062 10.56176758 C6.29662245 9.88485545 4.12316235 8.78816295 1 6 C0.67 4.02 0.34 2.04 0 0 Z " fill="#F0CBBC" transform="translate(121,263)"/>
<path d="M0 0 C13.2 0 26.4 0 40 0 C40 5 40 5 37.87890625 7.77734375 C32.74639641 11.62032367 26.03334217 10.67763331 19.9375 10.5625 C18.67099609 10.57345703 17.40449219 10.58441406 16.09960938 10.59570312 C6.89339308 10.52275371 6.89339308 10.52275371 3.16235352 8.33959961 C1 6 1 6 0 0 Z " fill="#F0CBBC" transform="translate(125,282)"/>
<path d="M0 0 C14.19 0 28.38 0 43 0 C41.83636364 5.81818182 41.83636364 5.81818182 39 8 C33.92621422 9.69126193 28.54120723 9.2647045 23.23095703 9.29516602 C21.83046369 9.30669338 20.43001455 9.3271577 19.02978516 9.35668945 C17.00132542 9.39945674 14.9741676 9.41554464 12.9453125 9.42578125 C11.73375488 9.44036377 10.52219727 9.45494629 9.27392578 9.4699707 C5.32259018 8.9027581 3.70713779 7.907425 1 5 C0.67 3.35 0.34 1.7 0 0 Z " fill="#F0CBBC" transform="translate(125,244)"/>
<path d="M0 0 C4.26048499 1.64788689 7.09257247 4.83986703 10.2265625 8.03125 C10.81545258 8.62296997 11.40434265 9.21468994 12.01107788 9.82434082 C13.88714312 11.71157367 15.75613164 13.6056427 17.625 15.5 C18.89016264 16.77519847 20.15578268 18.04994331 21.421875 19.32421875 C23.73673206 21.65540657 26.04904396 23.9890504 28.35791016 26.32617188 C29.90127461 27.88807609 31.44733799 29.44733799 33 31 C29.32477995 32.83761002 25.836857 32.2001263 22 31 C18.84894464 28.88655386 16.24552395 26.32981854 13.59423828 23.625 C11.68458463 21.67849851 9.746899 19.76171581 7.80859375 17.84375 C3.8506407 13.91721274 -0.08154292 9.96592255 -4 6 C-2.84826645 3.53199953 -1.95216435 1.95216435 0 0 Z " fill="#D4CED3" transform="translate(260,124)"/>
<path d="M0 0 C11.22 0 22.44 0 34 0 C33 6 33 6 30.56640625 8.34765625 C25.87156495 10.52281273 22.04431129 10.55330918 16.9375 10.4375 C15.61008789 10.44813477 15.61008789 10.44813477 14.25585938 10.45898438 C9.39307405 10.41156036 5.89479501 10.22668203 2 7 C0 4 0 4 0 0 Z " fill="#EDCCBC" transform="translate(125,302)"/>
<path d="M0 0 C-10.33333333 10.33333333 -20.66666667 20.66666667 -31 31 C-34.16115776 29.63016497 -34.9927092 29.0109362 -37 26 C-33.51930603 22.46979945 -30.03204178 18.94627138 -26.53857422 15.42871094 C-25.35153089 14.23162165 -24.16629029 13.03274191 -22.98291016 11.83203125 C-21.27979893 10.10461029 -19.57026878 8.38377144 -17.859375 6.6640625 C-17.07007599 5.85927963 -17.07007599 5.85927963 -16.26483154 5.03823853 C-10.4676229 -0.76072083 -7.80231317 -1.30038553 0 0 Z " fill="#D2D0D5" transform="translate(293,66)"/>
<path d="M0 0 C0.99 0 1.98 0 3 0 C3 22.11 3 44.22 3 67 C-4.92 67 -12.84 67 -21 67 C-21.33 66.01 -21.66 65.02 -22 64 C-14.74 64 -7.48 64 0 64 C0 42.88 0 21.76 0 0 Z " fill="#B1B1B5" transform="translate(72,237)"/>
<path d="M0 0 C1.2684375 0.61875 1.2684375 0.61875 2.5625 1.25 C1.5625 4.25 1.5625 4.25 -1.0703125 5.71484375 C-14.22127092 11.26060586 -27.43584978 15.45001572 -41.875 15.3125 C-43.11121094 15.30347656 -44.34742187 15.29445313 -45.62109375 15.28515625 C-46.55050781 15.27355469 -47.47992188 15.26195312 -48.4375 15.25 C-48.4375 14.92 -48.4375 14.59 -48.4375 14.25 C-46.96216797 14.064375 -46.96216797 14.064375 -45.45703125 13.875 C-36.67410319 12.62290166 -28.60174944 10.49712011 -20.3125 7.3125 C-19.43698486 6.97669922 -18.56146973 6.64089844 -17.65942383 6.29492188 C-13.76545369 4.74825324 -10.11550338 3.13225365 -6.53515625 0.94921875 C-3.4375 -0.75 -3.4375 -0.75 0 0 Z " fill="#0FE69E" transform="translate(152.4375,335.75)"/>
<path d="M0 0 C0 0.66 0 1.32 0 2 C-1.65002828 3.35386936 -3.3174387 4.68678142 -5 6 C-6.85703807 9.71407614 -6.58586596 13.95625127 -6 18 C-3.79086457 21.04475302 -3.79086457 21.04475302 -1 23 C-0.34 23.66 0.32 24.32 1 25 C-6.76785714 25.66964286 -6.76785714 25.66964286 -10.375 22.75 C-13.82177446 19.13909342 -14.82522878 17.57294101 -15.375 12.625 C-14.92230438 8.24894231 -13.86419662 6.31643819 -11 3 C-7.22282128 0.58903486 -4.4766661 -0.39499995 0 0 Z " fill="#D4D3D4" transform="translate(406,296)"/>
<path d="M0 0 C0.33 0.99 0.66 1.98 1 3 C-3.12196906 5.00629174 -7.24805701 7.00396221 -11.375 9 C-13.1384375 9.85851562 -13.1384375 9.85851562 -14.9375 10.734375 C-16.61972656 11.54648437 -16.61972656 11.54648437 -18.3359375 12.375 C-19.37282715 12.87773437 -20.4097168 13.38046875 -21.47802734 13.8984375 C-24 15 -24 15 -26 15 C-26.109375 12.33984375 -26.109375 12.33984375 -25 9 C-21.99937745 6.68396277 -18.67336026 5.16182124 -15.25 3.5625 C-14.3425 3.10423828 -13.435 2.64597656 -12.5 2.17382812 C-5.07402046 -1.42516634 -5.07402046 -1.42516634 0 0 Z " fill="#FFD265" transform="translate(355,336)"/>
<path d="M0 0 C9.28145408 -0.22823248 17.86970027 0.09572892 27 2 C25.68 2.33 24.36 2.66 23 3 C23 3.66 23 4.32 23 5 C11.615 3.02 11.615 3.02 0 1 C0 0.67 0 0.34 0 0 Z " fill="#1FE9A4" transform="translate(104,165)"/>
</svg>
