z<?xml version="1.0" encoding="UTF-8"?>
<svg version="1.1" xmlns="http://www.w3.org/2000/svg" width="256" height="256">
<path d="M0 0 C7.55342737 1.79564682 13.64128013 8.56800894 18.0234375 14.71875 C18.73828125 16.74609375 18.73828125 16.74609375 18.9609375 18.65625 C19.05246094 19.28402344 19.14398438 19.91179688 19.23828125 20.55859375 C18.60513936 26.92454765 13.99439863 31.23378774 9.7734375 35.59375 C8.59423971 36.83646924 7.41584657 38.07995252 6.23828125 39.32421875 C5.67737793 39.91380371 5.11647461 40.50338867 4.53857422 41.11083984 C2.2048981 43.58740944 -0.01562247 46.15483191 -2.23828125 48.73046875 C-4.44912739 51.25927928 -6.71252693 53.73747564 -8.9765625 56.21875 C-11.82180478 59.33782011 -14.6485583 62.46630391 -17.4140625 65.65625 C-20.90968624 69.6858115 -24.52500662 73.60197417 -28.15795898 77.50756836 C-29.44438681 78.89887927 -30.71116988 80.30828052 -31.9765625 81.71875 C-32.56566406 82.29625 -33.15476563 82.87375 -33.76171875 83.46875 C-35.7932501 87.23132897 -35.55525476 91.25944487 -35.6640625 95.46875 C-35.69822266 96.35691406 -35.73238281 97.24507813 -35.76757812 98.16015625 C-35.84984964 100.34622803 -35.91906422 102.53190951 -35.9765625 104.71875 C-35.10773438 104.67234375 -34.23890625 104.6259375 -33.34375 104.578125 C-23.96679051 104.28443947 -23.96679051 104.28443947 -19.4140625 106.28125 C-13.5917459 112.1035666 -12.51740433 116.72064267 -12.43444824 124.76190186 C-12.44254517 125.94133362 -12.45064209 127.12076538 -12.45898438 128.3359375 C-12.4519751 129.59367981 -12.44496582 130.85142212 -12.43774414 132.14727783 C-12.41958305 135.58126654 -12.42654793 139.01477198 -12.43926048 142.44876862 C-12.44942588 146.0516332 -12.43998502 149.65445791 -12.43371582 153.25732422 C-12.42644966 159.30639025 -12.43599985 165.35526059 -12.45507812 171.40429688 C-12.47684509 178.38620881 -12.46979297 185.36765344 -12.4477725 192.34955406 C-12.42958892 198.35658948 -12.42707455 204.36348465 -12.43752718 210.37053871 C-12.44374595 213.95281249 -12.44464265 217.534867 -12.43138123 221.11712646 C-12.41762315 225.11221752 -12.43672033 229.10650983 -12.45898438 233.1015625 C-12.45088745 234.28099426 -12.44279053 235.46042603 -12.43444824 236.67559814 C-12.5020421 243.2277359 -12.8539598 247.50722681 -16.9765625 252.71875 C-21.65167181 256.54757617 -25.37228517 257.29600675 -31.25048828 257.22668457 C-32.47689372 257.23604451 -32.47689372 257.23604451 -33.72807503 257.24559355 C-36.45963761 257.26151074 -39.19030626 257.2489245 -41.921875 257.23632812 C-43.88344848 257.24174981 -45.84501789 257.24887273 -47.80657959 257.25756836 C-53.12887308 257.27579901 -58.45085632 257.26873515 -63.77315521 257.25605202 C-69.34373306 257.24592308 -74.91428439 257.25531741 -80.48486328 257.26159668 C-89.83956673 257.26887338 -99.19414385 257.25928474 -108.54882812 257.24023438 C-119.36322974 257.21846566 -130.17732971 257.22551701 -140.99172401 257.24754 C-150.27766311 257.2656933 -159.5635114 257.26825264 -168.84946251 257.25778532 C-174.39515502 257.25155004 -179.94070576 257.25071581 -185.48638916 257.26393127 C-190.70019905 257.27548805 -195.91362011 257.26746694 -201.127388 257.24435425 C-203.04058435 257.23906627 -204.95381344 257.24058244 -206.86699677 257.24940491 C-209.47931813 257.26034051 -212.09039462 257.24662124 -214.70263672 257.22668457 C-215.83756656 257.2400689 -215.83756656 257.2400689 -216.99542427 257.25372362 C-222.12163059 257.17786961 -225.02092029 255.93789675 -228.9765625 252.71875 C-234.24342829 245.99895572 -233.13414055 236.7714744 -233.15356445 228.66821289 C-233.16013565 227.4705983 -233.16670685 226.2729837 -233.17347717 225.03907776 C-233.19313225 221.08986029 -233.2048614 217.14065617 -233.21484375 213.19140625 C-233.2188957 211.82612018 -233.22301274 210.46083431 -233.22719383 209.09554863 C-233.24620872 202.68298882 -233.26045127 196.27044029 -233.2688058 189.85785776 C-233.27858526 182.47571686 -233.30493847 175.09387521 -233.34530669 167.71183974 C-233.37551428 161.99017468 -233.39027877 156.26859527 -233.39358681 150.54685205 C-233.39593059 147.13607499 -233.40480367 143.72561902 -233.43004799 140.31492805 C-233.45438843 136.50926929 -233.45348356 132.70439438 -233.4465332 128.89868164 C-233.45934326 127.77894958 -233.47215332 126.65921753 -233.48535156 125.5055542 C-233.43282818 117.6068977 -232.1161133 112.02354032 -226.6015625 106.21875 C-222.60461263 104.56483971 -220.04374732 104.56557097 -215.75 104.625 C-214.48333496 104.63853516 -213.21666992 104.65207031 -211.91162109 104.66601562 C-210.94305176 104.68341797 -209.97448242 104.70082031 -208.9765625 104.71875 C-208.98322433 103.76074997 -208.98988617 102.80274994 -208.99674988 101.8157196 C-209.05751574 92.79569414 -209.10251332 83.77571011 -209.13199902 74.75552654 C-209.14766744 70.1179369 -209.16892708 65.48051225 -209.20288086 60.84301758 C-209.2354325 56.36912727 -209.25340665 51.89539583 -209.26119423 47.42139626 C-209.2667453 45.71291413 -209.277585 44.00444088 -209.29375267 42.29602623 C-209.31547154 39.90638688 -209.31853181 37.51740742 -209.31713867 35.12768555 C-209.3279245 34.41846451 -209.33871033 33.70924347 -209.349823 32.97853088 C-209.31985172 28.23999527 -209.31985172 28.23999527 -207.86917591 26.0373106 C-205.04361014 24.06877351 -202.75412743 24.34097649 -199.33398438 24.33779907 C-198.31650997 24.33077911 -198.31650997 24.33077911 -197.27848053 24.32361734 C-195.00056025 24.31163023 -192.72323748 24.32113861 -190.4453125 24.33056641 C-188.81428678 24.32650234 -187.18326382 24.32116139 -185.55224609 24.31463623 C-181.118411 24.30093716 -176.68478488 24.30627192 -172.25094604 24.31577349 C-167.61585924 24.32335669 -162.98079061 24.31632821 -158.34570312 24.31161499 C-150.56116516 24.30615352 -142.77671252 24.31335929 -134.9921875 24.32763672 C-125.98588473 24.34396399 -116.97978568 24.33867576 -107.97348785 24.3221575 C-100.24773665 24.30855376 -92.52204685 24.30661752 -84.79628754 24.31447351 C-80.17901774 24.31915615 -75.56184376 24.31975869 -70.94458008 24.30986404 C-66.60417114 24.30121279 -62.26402545 24.3071824 -57.92364502 24.32454681 C-56.32847532 24.32852154 -54.73328355 24.32736081 -53.13812256 24.32075882 C-50.96482712 24.31259178 -48.79238153 24.32280502 -46.61914062 24.33779907 C-45.40166138 24.33893015 -44.18418213 24.34006123 -42.92980957 24.34122658 C-39.9765625 24.71875 -39.9765625 24.71875 -38.06140137 26.05505943 C-36.9765625 27.71875 -36.9765625 27.71875 -36.9765625 30.71875 C-32.54934284 27.10469314 -28.70474699 23.41733179 -25.00390625 19.0703125 C-22.48735875 16.15131135 -19.89444389 13.30839097 -17.2890625 10.46875 C-16.59345215 9.70763916 -16.59345215 9.70763916 -15.88378906 8.93115234 C-14.58884111 7.52013454 -13.28295888 6.11917491 -11.9765625 4.71875 C-11.31140625 3.95691406 -10.64625 3.19507813 -9.9609375 2.41015625 C-6.76830934 -0.31111933 -4.06645748 -0.13082437 0 0 Z " fill="#F7F5F5" transform="translate(234.9765625,-0.71875)"/>
<path d="M0 0 C1.26666504 0.01353516 2.53333008 0.02707031 3.83837891 0.04101562 C5.29123291 0.06711914 5.29123291 0.06711914 6.7734375 0.09375 C6.71470459 0.99504639 6.65597168 1.89634277 6.59545898 2.82495117 C5.16066681 19.26784791 5.16066681 19.26784791 9.26367188 34.72412109 C13.02265056 38.82187921 17.62136173 41.42032288 22.54150391 43.92138672 C25.82167112 45.64435357 28.69022131 47.81533959 31.6484375 50.03125 C32.7843361 50.83893048 33.92241973 51.64354547 35.0625 52.4453125 C39.42501305 55.54167337 43.72237984 58.72535886 48.0234375 61.90625 C55.06429538 67.11091547 62.13964604 72.26414716 69.24462891 77.38085938 C76.45301516 82.57487806 83.61784986 87.82732193 90.7734375 93.09375 C96.20985256 90.15936169 100.9818527 86.77819273 105.8359375 82.96875 C111.04233 78.93466899 116.26734175 74.95471726 121.6484375 71.15625 C127.15741919 67.26487732 132.60062722 63.2918644 138.0234375 59.28125 C145.0739618 54.06804904 152.15655189 48.90300418 159.28417969 43.7956543 C160.66865692 42.80087076 162.04269902 41.791427 163.40673828 40.76879883 C165.7734375 39.09375 165.7734375 39.09375 168.93310547 37.25268555 C175.44007711 33.1895961 175.44007711 33.1895961 178.82397461 26.56274414 C179.17770954 22.49542728 179.18600361 18.60165524 179.0234375 14.53125 C179.01143943 13.12698929 179.00488657 11.722671 179.00390625 10.31835938 C178.98045187 6.90574774 178.90224867 3.50373884 178.7734375 0.09375 C181.03108928 0.05149649 183.28896772 0.02122629 185.546875 -0.00390625 C186.80419434 -0.02203369 188.06151367 -0.04016113 189.35693359 -0.05883789 C193.69818976 0.13505128 195.73599221 0.97637194 198.7734375 4.09375 C203.45511781 10.42961502 203.34395017 16.00027055 203.29101562 23.7109375 C203.2980249 24.96867981 203.30503418 26.22642212 203.31225586 27.52227783 C203.33041695 30.95626654 203.32345207 34.38977198 203.31073952 37.82376862 C203.30057412 41.4266332 203.31001498 45.02945791 203.31628418 48.63232422 C203.32355034 54.68139025 203.31400015 60.73026059 203.29492188 66.77929688 C203.27315491 73.76120881 203.28020703 80.74265344 203.3022275 87.72455406 C203.32041108 93.73158948 203.32292545 99.73848465 203.31247282 105.74553871 C203.30625405 109.32781249 203.30535735 112.909867 203.31861877 116.49212646 C203.33237685 120.48721752 203.31327967 124.48150983 203.29101562 128.4765625 C203.29911255 129.65599426 203.30720947 130.83542603 203.31555176 132.05059814 C203.2479579 138.6027359 202.8960402 142.88222681 198.7734375 148.09375 C194.09832819 151.92257617 190.37771483 152.67100675 184.49951172 152.60168457 C183.68190809 152.60792453 182.86430447 152.6141645 182.02192497 152.62059355 C179.29036239 152.63651074 176.55969374 152.6239245 173.828125 152.61132812 C171.86655152 152.61674981 169.90498211 152.62387273 167.94342041 152.63256836 C162.62112692 152.65079901 157.29914368 152.64373515 151.97684479 152.63105202 C146.40626694 152.62092308 140.83571561 152.63031741 135.26513672 152.63659668 C125.91043327 152.64387338 116.55585615 152.63428474 107.20117188 152.61523438 C96.38677026 152.59346566 85.57267029 152.60051701 74.75827599 152.62254 C65.47233689 152.6406933 56.1864886 152.64325264 46.90053749 152.63278532 C41.35484498 152.62655004 35.80929424 152.62571581 30.26361084 152.63893127 C25.04980095 152.65048805 19.83637989 152.64246694 14.622612 152.61935425 C12.70941565 152.61406627 10.79618656 152.61558244 8.88300323 152.62440491 C6.27068187 152.63534051 3.65960538 152.62162124 1.04736328 152.60168457 C0.29074339 152.61060746 -0.4658765 152.61953034 -1.24542427 152.62872362 C-6.37163059 152.55286961 -9.27092029 151.31289675 -13.2265625 148.09375 C-18.49342829 141.37395572 -17.38414055 132.1464744 -17.40356445 124.04321289 C-17.41013565 122.8455983 -17.41670685 121.6479837 -17.42347717 120.41407776 C-17.44313225 116.46486029 -17.4548614 112.51565617 -17.46484375 108.56640625 C-17.4688957 107.20112018 -17.47301274 105.83583431 -17.47719383 104.47054863 C-17.49620872 98.05798882 -17.51045127 91.64544029 -17.5188058 85.23285776 C-17.52858526 77.85071686 -17.55493847 70.46887521 -17.59530669 63.08683974 C-17.62551428 57.36517468 -17.64027877 51.64359527 -17.64358681 45.92185205 C-17.64593059 42.51107499 -17.65480367 39.10061902 -17.68004799 35.68992805 C-17.70438843 31.88426929 -17.70348356 28.07939438 -17.6965332 24.27368164 C-17.70934326 23.15394958 -17.72215332 22.03421753 -17.73535156 20.8805542 C-17.68282818 12.9818977 -16.3661133 7.39854032 -10.8515625 1.59375 C-6.85461263 -0.06016029 -4.29374732 -0.05942903 0 0 Z " fill="#FBA964" transform="translate(19.2265625,103.90625)"/>
<path d="M0 0 C2.72798495 1.33813301 5.23500284 2.81562066 7.78833008 4.46289062 C9.27985596 5.42110718 9.27985596 5.42110718 10.80151367 6.39868164 C11.86192871 7.08631592 12.92234375 7.7739502 14.01489258 8.48242188 C15.11526855 9.19132568 16.21564453 9.90022949 17.34936523 10.63061523 C25.84239817 16.10532115 34.30952805 21.62059569 42.76245117 27.15698242 C43.63724121 27.729729 44.51203125 28.30247559 45.41333008 28.89257812 C46.26113037 29.45614014 47.10893066 30.01970215 47.98242188 30.6003418 C49.85510913 31.79449175 51.77101018 32.92216248 53.71337891 33.99926758 C61.12688638 38.21790494 61.12688638 38.21790494 62.57055664 41.2487793 C62.87180252 43.38881554 62.81219091 45.21156929 62.57739258 47.35742188 C62.5612793 48.03869141 62.54516602 48.71996094 62.52856445 49.421875 C62.25595423 54.40059851 60.81627177 57.51861946 57.63989258 61.29492188 C53.08032432 64.93016542 50.07399452 65.79605076 44.27709961 65.80285645 C43.19770205 65.81221639 43.19770205 65.81221639 42.09649849 65.82176542 C39.6965627 65.83766049 37.29764754 65.82510569 34.89770508 65.8125 C33.17258107 65.8179227 31.4474617 65.82504619 29.72235107 65.83374023 C25.044651 65.851959 20.36730425 65.84491205 15.68959808 65.83222389 C10.79167232 65.82208874 5.89377657 65.83149101 0.99584961 65.83776855 C-7.22897771 65.84504345 -15.4536613 65.83546138 -23.6784668 65.81640625 C-33.18412481 65.79463782 -42.68943964 65.8016893 -52.19508934 65.82371187 C-60.3600222 65.84187034 -68.52485182 65.844422 -76.68979836 65.8339572 C-81.56480153 65.82772473 -86.43964345 65.82687986 -91.31463623 65.84010315 C-95.8981099 65.85166752 -100.48114159 65.84362523 -105.06456757 65.82052612 C-106.74555477 65.81524216 -108.42657925 65.81674748 -110.10755157 65.82557678 C-112.40463939 65.8365288 -114.70031624 65.82277475 -116.99731445 65.80285645 C-118.92415573 65.80059429 -118.92415573 65.80059429 -120.8899231 65.79828644 C-124.9965436 65.20260418 -127.14633417 63.87405196 -130.36010742 61.29492188 C-133.36010742 57.09492188 -133.36010742 57.09492188 -133.36010742 54.29492188 C-131.46191406 52.85302734 -131.46191406 52.85302734 -128.77026367 51.16210938 C-127.7705957 50.52877686 -126.77092773 49.89544434 -125.7409668 49.24291992 C-124.09837891 48.21678589 -124.09837891 48.21678589 -122.42260742 47.16992188 C-121.28866886 46.45428402 -120.15521159 45.73788304 -119.0222168 45.02075195 C-116.65771867 43.52499616 -114.29115269 42.03259499 -111.9230957 40.54248047 C-106.38291022 37.05254204 -100.87268807 33.51573451 -95.36010742 29.98242188 C-94.31604736 29.31428467 -93.2719873 28.64614746 -92.19628906 27.95776367 C-86.936367 24.59109732 -81.68007077 21.21905134 -76.43701172 17.82617188 C-75.07770198 16.9467031 -73.71723062 16.06902649 -72.35546875 15.19335938 C-68.76424842 12.87879058 -65.21121892 10.51907157 -61.68432617 8.10742188 C-60.90895508 7.58510986 -60.13358398 7.06279785 -59.3347168 6.5246582 C-57.84398333 5.51943154 -56.36167031 4.50156755 -54.8894043 3.46948242 C-52.87182617 2.11914062 -52.87182617 2.11914062 -49.36010742 0.29492188 C-46.62235733 1.30470412 -44.36668196 2.90257422 -42.01245117 4.60742188 C-41.40723633 5.043125 -40.80202148 5.47882813 -40.1784668 5.92773438 C-39.5577832 6.37890625 -38.93709961 6.83007812 -38.29760742 7.29492188 C-32.25326151 12.33624131 -32.25326151 12.33624131 -25.08276367 14.22070312 C-20.80778866 13.15756663 -18.09400738 11.26189542 -14.79760742 8.48242188 C-3.21815551 -0.96141855 -3.21815551 -0.96141855 0 0 Z " fill="#FCD69E" transform="translate(136.360107421875,190.705078125)"/>
<path d="M0 0 C7.50654964 2.00571829 13.55395975 8.61444939 17.953125 14.7890625 C18.66796875 16.81640625 18.66796875 16.81640625 18.890625 18.7265625 C18.98214844 19.35433594 19.07367188 19.98210938 19.16796875 20.62890625 C18.53482686 26.99486015 13.92408613 31.30410024 9.703125 35.6640625 C8.52392721 36.90678174 7.34553407 38.15026502 6.16796875 39.39453125 C5.60706543 39.98411621 5.04616211 40.57370117 4.46826172 41.18115234 C2.1345856 43.65772194 -0.08593497 46.22514441 -2.30859375 48.80078125 C-4.51943989 51.32959178 -6.78283943 53.80778814 -9.046875 56.2890625 C-11.89211728 59.40813261 -14.7188708 62.53661641 -17.484375 65.7265625 C-20.95351287 69.7243309 -24.53803484 73.61241722 -28.14038086 77.48999023 C-30.19934476 79.71803167 -32.18277785 81.96071543 -34.06640625 84.33984375 C-36.23635837 87.02339401 -38.59035175 89.36403314 -41.046875 91.7890625 C-43.69071434 94.54215738 -46.30601297 97.32190351 -48.921875 100.1015625 C-49.60378906 100.82279297 -50.28570312 101.54402344 -50.98828125 102.28710938 C-56.59418921 108.24004974 -62.19499333 114.19578315 -67.046875 120.7890625 C-77.28112281 116.21681753 -85.91129957 106.38510588 -94.046875 98.7890625 C-92.71715335 95.88785162 -91.2373948 93.66162247 -89.109375 91.2890625 C-88.49191406 90.598125 -87.87445313 89.9071875 -87.23828125 89.1953125 C-84.20082178 85.86006289 -81.15318137 82.5342356 -78.09814453 79.21508789 C-74.96247035 75.8043829 -71.89010118 72.34803562 -68.85546875 68.84765625 C-65.7690802 65.33463948 -62.60058722 61.89606432 -59.44921875 58.44140625 C-56.914349 55.64274518 -54.43356291 52.80269879 -51.9609375 49.94921875 C-49.98886962 47.72359929 -47.97133639 45.54352006 -45.94726562 43.36523438 C-40.78052918 37.81687781 -40.78052918 37.81687781 -36.109375 31.8515625 C-32.49667348 26.82108567 -28.17265587 22.42429662 -23.94921875 17.91015625 C-21.63551724 15.43550159 -19.38378336 12.9181644 -17.171875 10.3515625 C-16.63304687 9.74441406 -16.09421875 9.13726562 -15.5390625 8.51171875 C-14.54608436 7.36537488 -13.59173763 6.18437999 -12.6796875 4.97265625 C-9.07541288 0.58440099 -5.63452262 -0.29250254 0 0 Z " fill="#FA8627" transform="translate(235.046875,-0.7890625)"/>
<path d="M0 0 C0 39.27 0 78.54 0 119 C-0.33 119 -0.66 119 -1 119 C-0.95834717 118.42862305 -0.91669434 117.85724609 -0.8737793 117.26855469 C-0.89473395 113.46825094 -1.07721533 110.93440291 -3.82275391 108.15429688 C-6.4188721 106.37003051 -9.06684929 104.79450029 -11.8125 103.25 C-13.8341589 102.04174485 -15.85497499 100.83207854 -17.875 99.62109375 C-18.90109375 99.01894043 -19.9271875 98.41678711 -20.984375 97.79638672 C-25.51342143 95.09846544 -29.91057064 92.21154317 -34.3125 89.3125 C-35.9604204 88.23748816 -37.60885118 87.16325824 -39.2578125 86.08984375 C-40.0509082 85.57276855 -40.84400391 85.05569336 -41.66113281 84.52294922 C-46.01629973 81.68709001 -50.38095462 78.86590934 -54.74560547 76.04467773 C-58.42126444 73.66875487 -62.0949919 71.28993238 -65.765625 68.90625 C-66.54719971 68.39916504 -67.32877441 67.89208008 -68.1340332 67.36962891 C-69.63831028 66.39356274 -71.14207698 65.41670941 -72.64526367 64.43896484 C-76.24152702 62.08076653 -76.24152702 62.08076653 -80 60 C-78.89466585 56.68399754 -78.3751416 56.27622505 -75.6328125 54.35546875 C-74.566073 53.5982251 -74.566073 53.5982251 -73.4777832 52.82568359 C-72.70136475 52.28508301 -71.92494629 51.74448242 -71.125 51.1875 C-69.47458325 50.01788203 -67.82486614 48.84727631 -66.17578125 47.67578125 C-65.32064941 47.07072754 -64.46551758 46.46567383 -63.58447266 45.84228516 C-59.45838286 42.90109173 -55.38572467 39.88876113 -51.3125 36.875 C-50.52834717 36.29693604 -49.74419434 35.71887207 -48.9362793 35.12329102 C-45.12921927 32.31673602 -41.32910552 29.50137006 -37.5390625 26.671875 C-36.84514404 26.15641113 -36.15122559 25.64094727 -35.4362793 25.10986328 C-34.13533793 24.14341337 -32.83716524 23.17322161 -31.54223633 22.19873047 C-27.22559151 19 -27.22559151 19 -25 19 C-25 18.34 -25 17.68 -25 17 C-23.55859375 15.87890625 -23.55859375 15.87890625 -21.4375 14.5625 C-16.10410187 11.14059176 -11.04261652 7.39536399 -5.96655273 3.60766602 C-1.10290757 0 -1.10290757 0 0 0 Z " fill="#FAC574" transform="translate(222,126)"/>
<path d="M0 0 C3.74831585 1.49932634 5.91081525 2.46498229 8.9765625 4.765625 C10.0912793 5.59513672 10.0912793 5.59513672 11.22851562 6.44140625 C12.01935547 7.03824219 12.81019531 7.63507813 13.625 8.25 C15.33582956 9.52618638 17.04677014 10.80222394 18.7578125 12.078125 C19.62954102 12.73103516 20.50126953 13.38394531 21.39941406 14.05664062 C25.41726465 17.05908999 29.45890558 20.02895371 33.5 23 C38.27792172 26.51740978 43.05337186 30.03803071 47.8203125 33.5703125 C49.42171172 34.755429 51.02327305 35.94032648 52.625 37.125 C53.40012939 37.69895508 54.17525879 38.27291016 54.97387695 38.86425781 C58.93834283 41.78775602 62.92804027 44.6647804 66.97265625 47.4765625 C67.76526855 48.02812012 68.55788086 48.57967773 69.37451172 49.14794922 C70.88611919 50.19493763 72.40191949 51.23590515 73.92236328 52.27001953 C75.64961797 53.46465895 77.33046697 54.72593894 79 56 C79 56.66 79 57.32 79 58 C77.11425781 59.39770508 77.11425781 59.39770508 74.453125 61.01953125 C73.47351807 61.62273193 72.49391113 62.22593262 71.48461914 62.84741211 C70.41719482 63.49589111 69.34977051 64.14437012 68.25 64.8125 C66.02383092 66.18342139 63.79858281 67.55583934 61.57421875 68.9296875 C60.45837402 69.61772461 59.3425293 70.30576172 58.19287109 71.01464844 C53.77559282 73.76134571 49.41348948 76.5873322 45.0625 79.4375 C37.31844551 84.500493 29.54363434 89.51373478 21.75 94.5 C20.70207275 95.17087646 19.65414551 95.84175293 18.57446289 96.53295898 C16.60892312 97.78969351 14.64211641 99.04444955 12.67382812 100.296875 C10.96572289 101.3848719 9.26093853 102.47811183 7.56054688 103.578125 C2.22107619 107 2.22107619 107 0 107 C0 71.69 0 36.38 0 0 Z " fill="#FBD69E" transform="translate(2,129)"/>
<path d="M0 0 C0.66 0 1.32 0 2 0 C2.04901497 4.0192279 2.05155284 8.03156881 2 12.05078125 C1.95662052 16.52274125 2.14274987 20.95227691 2.375 25.41796875 C3.10185894 46.56930056 3.10185894 46.56930056 -2.21875 52.359375 C-5.71081911 55.30162178 -9.55580314 57.51562611 -13.57861328 59.65332031 C-17.60154764 61.89071756 -21.19380558 64.68636862 -24.875 67.4375 C-26.38190907 68.5238991 -27.89104618 69.60721412 -29.40234375 70.6875 C-34.10727823 74.06838742 -38.77612905 77.49688451 -43.4375 80.9375 C-44.22133057 81.51588623 -45.00516113 82.09427246 -45.81274414 82.69018555 C-49.02947035 85.06507153 -52.24490681 87.44169867 -55.45996094 89.81884766 C-65.57955983 97.29950805 -75.72902321 104.72821546 -86 112 C-92.52496269 108.05102458 -98.67693271 103.80913787 -104.68188477 99.10693359 C-109.25117324 95.54210932 -113.91713645 92.12923597 -118.625 88.75 C-127.31756406 82.5058507 -135.93999289 76.17095637 -144.54736328 69.81005859 C-147.11104664 67.918047 -149.67813697 66.030738 -152.24609375 64.14453125 C-153.10468994 63.51345459 -153.96328613 62.88237793 -154.84790039 62.23217773 C-156.48846664 61.02651766 -158.12955002 59.82156082 -159.77124023 58.61743164 C-161.22363171 57.54919574 -162.67144147 56.47468852 -164.11352539 55.39257812 C-165.71434471 54.21086809 -167.36265051 53.09391674 -169.01953125 51.9921875 C-171 50 -171 50 -171.48828125 46.984375 C-171.43027344 45.91703125 -171.37226563 44.8496875 -171.3125 43.75 C-171.24482422 42.13351563 -171.24482422 42.13351563 -171.17578125 40.484375 C-171.08876953 39.25460938 -171.08876953 39.25460938 -171 38 C-164.87553736 42.00435207 -158.92934638 46.19092946 -153.0625 50.5625 C-146.73770409 55.25011428 -140.39104464 59.90310616 -134 64.5 C-128.60763104 68.38106406 -123.23526588 72.28688189 -117.89111328 76.23413086 C-116.30760119 77.40357572 -114.72265722 78.5710844 -113.13623047 79.73657227 C-109.06012979 82.73152493 -105.00517936 85.7500028 -100.9765625 88.80859375 C-99.35955449 90.0184691 -97.74237317 91.22811285 -96.125 92.4375 C-95.38185547 93.01177734 -94.63871094 93.58605469 -93.87304688 94.17773438 C-90.04158718 97.09110553 -90.04158718 97.09110553 -85.48828125 98.21875 C-81.62184642 96.324986 -78.41208963 93.74738066 -75.0625 91.0625 C-73.53133585 89.86280981 -71.99876605 88.66491161 -70.46484375 87.46875 C-69.32764893 86.57929688 -69.32764893 86.57929688 -68.16748047 85.671875 C-65.2078544 83.38898253 -62.18126067 81.2134198 -59.125 79.0625 C-55.23758189 76.31744463 -51.37098421 73.54879808 -47.5390625 70.7265625 C-46.3648877 69.86321289 -46.3648877 69.86321289 -45.16699219 68.98242188 C-43.55149324 67.78270993 -41.94532593 66.57033233 -40.34863281 65.34570312 C-36.3017357 62.27091089 -32.36856137 59.58652664 -27.8203125 57.3046875 C-20.36747665 53.33980215 -20.36747665 53.33980215 -15 47 C-13.67258915 40.45219133 -13.97302512 33.90423602 -14.20605469 27.26660156 C-14.57060084 14.82402181 -14.57060084 14.82402181 -10.18139648 9.75219727 C-7.91239745 7.65332867 -5.50324864 5.80953311 -3 4 C-1.99089125 2.6735471 -0.98783797 1.34236877 0 0 Z " fill="#E2E1E0" transform="translate(197,86)"/>
<path d="M0 0 C7.40239667 2.44690334 13.3697644 8.6939196 17.8125 14.9296875 C18.52734375 16.95703125 18.52734375 16.95703125 18.75 18.8671875 C18.84152344 19.49496094 18.93304688 20.12273438 19.02734375 20.76953125 C18.39420186 27.13548515 13.78346113 31.44472524 9.5625 35.8046875 C8.38330221 37.04740674 7.20490907 38.29089002 6.02734375 39.53515625 C5.46644043 40.12474121 4.90553711 40.71432617 4.32763672 41.32177734 C1.9939606 43.79834694 -0.22655997 46.36576941 -2.44921875 48.94140625 C-4.66006489 51.47021678 -6.92346443 53.94841314 -9.1875 56.4296875 C-12.03274228 59.54875761 -14.8594958 62.67724141 -17.625 65.8671875 C-21.09413787 69.8649559 -24.67865984 73.75304222 -28.28100586 77.63061523 C-30.33996976 79.85865667 -32.32340285 82.10134043 -34.20703125 84.48046875 C-36.37698337 87.16401901 -38.73097675 89.50465814 -41.1875 91.9296875 C-43.83133934 94.68278238 -46.44663797 97.46252851 -49.0625 100.2421875 C-49.74441406 100.96341797 -50.42632812 101.68464844 -51.12890625 102.42773438 C-56.73481421 108.38067474 -62.33561833 114.33640815 -67.1875 120.9296875 C-71.12889078 119.26217602 -73.9767812 116.70258101 -77.1875 113.9296875 C-75.57137587 110.00614915 -72.87419953 107.21570524 -70 104.1796875 C-68.99539698 103.10221172 -67.99148947 102.02408705 -66.98828125 100.9453125 C-66.50311035 100.42517578 -66.01793945 99.90503906 -65.51806641 99.36914062 C-63.87088165 97.58715873 -62.27335594 95.7663479 -60.6875 93.9296875 C-57.2807265 89.998795 -53.75747215 86.17772177 -50.234375 82.3515625 C-47.68194857 79.57474693 -45.15766712 76.77988033 -42.6875 73.9296875 C-39.2807265 69.998795 -35.75747215 66.17772177 -32.234375 62.3515625 C-29.12508544 58.96892881 -26.08136993 55.53955665 -23.07421875 52.06640625 C-20.13495222 48.73767169 -17.116155 45.48179878 -14.09375 42.22851562 C-9.91610664 37.76089179 -9.91610664 37.76089179 -6.1875 32.9296875 C-7.29920101 29.59458446 -8.18218142 28.82604577 -10.8125 26.6171875 C-11.52664062 26.01132812 -12.24078125 25.40546875 -12.9765625 24.78125 C-13.70617187 24.17023437 -14.43578125 23.55921875 -15.1875 22.9296875 C-16.52195216 21.78515737 -17.85538527 20.63943733 -19.1875 19.4921875 C-20.1775 18.6465625 -21.1675 17.8009375 -22.1875 16.9296875 C-17.33871735 8.55451747 -10.60150895 -0.99389146 0 0 Z " fill="#F2681F" transform="translate(235.1875,-0.9296875)"/>
<path d="M0 0 C0 25.41 0 50.82 0 77 C-12.37095561 70.25220603 -12.37095561 70.25220603 -17.1640625 67.08203125 C-18.2159375 66.38980469 -19.2678125 65.69757813 -20.3515625 64.984375 C-21.43179688 64.26765625 -22.51203125 63.5509375 -23.625 62.8125 C-24.7652981 62.06070185 -25.90592684 61.30940498 -27.046875 60.55859375 C-29.30860112 59.07000748 -31.56925089 57.57981056 -33.82910156 56.08837891 C-38.20642175 53.20544105 -42.59966479 50.34764688 -47 47.5 C-47.69303223 47.04987549 -48.38606445 46.59975098 -49.10009766 46.13598633 C-52.47477847 43.93884864 -52.47477847 43.93884864 -56 42 C-54.89466585 38.68399754 -54.3751416 38.27622505 -51.6328125 36.35546875 C-50.92181396 35.85072021 -50.21081543 35.34597168 -49.47827148 34.82592773 C-48.70169189 34.28524658 -47.9251123 33.74456543 -47.125 33.1875 C-45.47194225 32.01663239 -43.81962189 30.84472316 -42.16796875 29.671875 C-41.31251465 29.06666016 -40.45706055 28.46144531 -39.57568359 27.83789062 C-35.4909482 24.92320929 -31.46652188 21.9284533 -27.4375 18.9375 C-21.12689857 14.27118261 -14.77949128 9.66171318 -8.375 5.125 C-7.64595459 4.60671631 -6.91690918 4.08843262 -6.16577148 3.55444336 C-1.12191686 0 -1.12191686 0 0 0 Z " fill="#FCD69E" transform="translate(198,144)"/>
<path d="M0 0 C7.40239667 2.44690334 13.3697644 8.6939196 17.8125 14.9296875 C18.52734375 16.95703125 18.52734375 16.95703125 18.75 18.8671875 C18.84152344 19.49496094 18.93304688 20.12273438 19.02734375 20.76953125 C18.44536886 26.62102427 14.48582879 30.69315554 10.625 34.8046875 C10.16158203 35.30226562 9.69816406 35.79984375 9.22070312 36.3125 C8.09076735 37.52397753 6.95249284 38.72766879 5.8125 39.9296875 C1.66046054 38.22182891 -1.4752298 35.2856027 -4.8125 32.3671875 C-5.42625488 31.83577148 -6.04000977 31.30435547 -6.67236328 30.75683594 C-11.90351861 26.21381123 -17.06935602 21.59969906 -22.1875 16.9296875 C-17.33871735 8.55451747 -10.60150895 -0.99389146 0 0 Z " fill="#FC4754" transform="translate(235.1875,-0.9296875)"/>
<path d="M0 0 C4.29718953 1.38914475 6.70687757 3.38031985 9.8125 6.625 C10.60269531 7.44226563 11.39289063 8.25953125 12.20703125 9.1015625 C12.79871094 9.72804688 13.39039063 10.35453125 14 11 C12.67289213 14.9813236 11.01248627 15.33187507 7.41992188 17.15625 C6.68322266 17.5171875 5.94652344 17.878125 5.1875 18.25 C4.46240234 18.62640625 3.73730469 19.0028125 2.99023438 19.390625 C2.28576172 19.74125 1.58128906 20.091875 0.85546875 20.453125 C0.21246826 20.77442383 -0.43053223 21.09572266 -1.09301758 21.42675781 C-3.41484933 22.12470442 -4.73466818 21.76842067 -7 21 C-6.67 19.35 -6.34 17.7 -6 16 C-6.84746796 15.99191315 -7.69493591 15.98382629 -8.56808472 15.97549438 C-16.54374441 15.89764428 -24.5192331 15.81038301 -32.49467278 15.71247292 C-36.59520949 15.66246695 -40.6957199 15.61613754 -44.79638672 15.578125 C-48.75168199 15.54132617 -52.70675945 15.49498144 -56.66186905 15.44193649 C-58.17294632 15.42336368 -59.68407033 15.40826644 -61.19521713 15.39665604 C-63.30729362 15.37984247 -65.41886808 15.35082079 -67.53076172 15.31884766 C-68.73433319 15.30552399 -69.93790466 15.29220032 -71.177948 15.2784729 C-74 15 -74 15 -76 13 C-75.75 10.4375 -75.75 10.4375 -75 8 C-72.08898394 6.54449197 -69.50682802 6.8348901 -66.25537109 6.79467773 C-65.21617775 6.77982834 -65.21617775 6.77982834 -64.1559906 6.76467896 C-61.86184122 6.73304503 -59.56767111 6.70829914 -57.2734375 6.68359375 C-55.68445288 6.66302585 -54.09547376 6.64202942 -52.50650024 6.62062073 C-48.32096805 6.56538309 -44.13538634 6.51598131 -39.94976807 6.46777344 C-35.6800088 6.41757074 -31.41032158 6.36187826 -27.140625 6.30664062 C-18.76047755 6.19903837 -10.3802699 6.09759801 -2 6 C-1.34 4.02 -0.68 2.04 0 0 Z " fill="#888888" transform="translate(132,118)"/>
<path d="M0 0 C1.00489471 -0.00503792 1.00489471 -0.00503792 2.03009033 -0.01017761 C4.25518626 -0.01971353 6.48020715 -0.02163204 8.70532227 -0.02270508 C10.24609916 -0.02591586 11.78687574 -0.02927979 13.32765198 -0.03279114 C16.56170356 -0.03878904 19.7957284 -0.04063037 23.02978516 -0.04003906 C27.18070372 -0.03993741 31.33145134 -0.05358986 35.48232937 -0.07081127 C38.66584567 -0.08191173 41.8493204 -0.08395887 45.03285408 -0.08342934 C46.56351371 -0.0846124 48.09417431 -0.08905236 49.62481499 -0.0967617 C51.7630204 -0.10652232 53.90085149 -0.10369938 56.0390625 -0.09765625 C57.25738266 -0.09908127 58.47570282 -0.10050629 59.73094177 -0.10197449 C62.58422852 0.14526367 62.58422852 0.14526367 64.58422852 2.14526367 C64.02867296 6.70081923 64.02867296 6.70081923 62.58422852 8.14526367 C60.44765809 8.25005273 58.30758514 8.28383021 56.16845703 8.29052734 C55.16356232 8.29556526 55.16356232 8.29556526 54.1383667 8.30070496 C51.91327077 8.31024088 49.68824988 8.31215939 47.46313477 8.31323242 C45.92235787 8.3164432 44.38158129 8.31980713 42.84080505 8.32331848 C39.60675347 8.32931639 36.37272863 8.33115771 33.13867188 8.33056641 C28.98775331 8.33046475 24.83700569 8.34411721 20.68612766 8.36133862 C17.50261136 8.37243907 14.31913663 8.37448622 11.13560295 8.37395668 C9.60494332 8.37513975 8.07428272 8.3795797 6.54364204 8.38728905 C4.40543663 8.39704966 2.26760554 8.39422673 0.12939453 8.38818359 C-1.08892563 8.38960861 -2.30724579 8.39103363 -3.56248474 8.39250183 C-6.41577148 8.14526367 -6.41577148 8.14526367 -8.41577148 6.14526367 C-7.63056923 -0.29339479 -6.20852991 0.01943752 0 0 Z " fill="#878787" transform="translate(64.415771484375,74.854736328125)"/>
<path d="M0 0 C4.74794115 3.36672191 8.96345349 6.87079968 12.99609375 11.0625 C16.36676088 14.32146861 20.06866083 17.1742397 23.7421875 20.08203125 C26 22 26 22 27 24 C17.1 28.95 17.1 28.95 7 34 C5.35 32.35 3.7 30.7 2 29 C-0.41824843 26.99869095 -2.85048795 25.01954659 -5.3046875 23.0625 C-7 21 -7 21 -6.94921875 18.76953125 C-5.67405836 15.04900154 -4.35115976 11.35776746 -2.9375 7.6875 C-2.51500977 6.57665039 -2.51500977 6.57665039 -2.08398438 5.44335938 C-1.39281425 3.62757345 -0.69688311 1.81360101 0 0 Z " fill="#FBD69F" transform="translate(140,97)"/>
<path d="M0 0 C0 10.56 0 21.12 0 32 C-5.49798781 28.33467479 -10.81722134 24.73847855 -16 20.6875 C-16.57105469 20.24599609 -17.14210938 19.80449219 -17.73046875 19.34960938 C-21.82874504 16.17125496 -21.82874504 16.17125496 -23 15 C-23.44561155 11.16774071 -23.13550112 9.25594655 -21.3125 5.8125 C-14.88699977 -2.00229757 -10.90665833 0 0 0 Z " fill="#FB8729" transform="translate(26,104)"/>
<path d="M0 0 C14 0 14 0 17.625 1.5625 C20.50692738 4.52026757 22.15536689 7.31073379 24 11 C19.80398019 15.44727848 15.17275921 19.11474554 10.3125 22.8125 C9.15524414 23.7087207 9.15524414 23.7087207 7.97460938 24.62304688 C7.23662109 25.18701172 6.49863281 25.75097656 5.73828125 26.33203125 C4.73341675 27.10123901 4.73341675 27.10123901 3.70825195 27.88598633 C2 29 2 29 0 29 C0 19.43 0 9.86 0 0 Z " fill="#FB882A" transform="translate(198,104)"/>
<path d="M0 0 C1.07458969 -0.00637985 2.14917938 -0.0127597 3.2563324 -0.01933289 C4.42608109 -0.02044571 5.59582977 -0.02155853 6.80102539 -0.02270508 C7.99345352 -0.02603348 9.18588165 -0.02936188 10.41444397 -0.03279114 C12.94230767 -0.03786549 15.47017809 -0.04019931 17.99804688 -0.04003906 C21.87844818 -0.04222493 25.7585651 -0.06037389 29.63891602 -0.0793457 C32.08878483 -0.08227956 34.538655 -0.08426441 36.98852539 -0.08520508 C38.74011208 -0.09598335 38.74011208 -0.09598335 40.52708435 -0.10697937 C42.14369713 -0.10236443 42.14369713 -0.10236443 43.79296875 -0.09765625 C45.22073891 -0.09979378 45.22073891 -0.09979378 46.67735291 -0.10197449 C48.96118164 0.14526367 48.96118164 0.14526367 50.96118164 2.14526367 C50.40562609 6.70081923 50.40562609 6.70081923 48.96118164 8.14526367 C47.2840974 8.24923385 45.60265373 8.28379277 43.92236328 8.29052734 C42.84777359 8.2969072 41.7731839 8.30328705 40.66603088 8.30986023 C38.91140785 8.31152946 38.91140785 8.31152946 37.12133789 8.31323242 C35.92890976 8.31656082 34.73648163 8.31988922 33.50791931 8.32331848 C30.98005561 8.32839283 28.45218519 8.33072665 25.92431641 8.33056641 C22.0439151 8.33275227 18.16379818 8.35090124 14.28344727 8.36987305 C11.83357845 8.3728069 9.38370828 8.37479175 6.93383789 8.37573242 C5.18225121 8.3865107 5.18225121 8.3865107 3.39527893 8.39750671 C1.77866615 8.39289177 1.77866615 8.39289177 0.12939453 8.38818359 C-1.29837563 8.39032112 -1.29837563 8.39032112 -2.75498962 8.39250183 C-5.03881836 8.14526367 -5.03881836 8.14526367 -7.03881836 6.14526367 C-6.3440221 0.44793437 -5.55687842 0.02227188 0 0 Z " fill="#878787" transform="translate(63.038818359375,99.854736328125)"/>
<path d="M0 0 C8.04668271 4.18174062 15.53175737 8.86476859 23 14 C22.18104165 17.8879841 20.71307348 20.05437736 18 23 C14.74332638 25.07396812 12.18097486 25.23596782 8.359375 25.1953125 C7.28945312 25.18886719 6.21953125 25.18242187 5.1171875 25.17578125 C4.00601563 25.15902344 2.89484375 25.14226562 1.75 25.125 C0.62335938 25.11597656 -0.50328125 25.10695313 -1.6640625 25.09765625 C-4.44292365 25.07410658 -7.2213539 25.0412168 -10 25 C-9.2575 24.46375 -8.515 23.9275 -7.75 23.375 C-3.50346896 19.70754138 -1.27419706 16.74009673 -0.390625 11.1328125 C-0.32517615 9.79765606 -0.27849034 8.46145597 -0.25 7.125 C-0.20552734 6.09246094 -0.20552734 6.09246094 -0.16015625 5.0390625 C-0.09019464 3.35998374 -0.04274789 1.67999188 0 0 Z " fill="#FAC574" transform="translate(198,231)"/>
<path d="M0 0 C11.72502352 8.28150933 11.72502352 8.28150933 12.9375 14.9375 C13.52675333 18.97927988 12.03188115 21.53972377 10 25 C8.33269756 27.01126562 6.60083164 28.97054293 4.8125 30.875 C4.34908203 31.37257813 3.88566406 31.87015625 3.40820312 32.3828125 C2.27826735 33.59429003 1.13999284 34.79798129 0 36 C-3.92300272 34.17495091 -6.73787272 31.81729174 -10 29 C-8.38597913 25.27805024 -6.03592574 22.46975425 -3.4375 19.375 C0.9797838 14.10253006 2.35580933 11.99758353 2 5 C1.1025173 2.16621868 1.1025173 2.16621868 0 0 Z " fill="#F92E3E" transform="translate(241,3)"/>
<path d="M0 0 C3.10398978 -0.08710289 6.20766548 -0.14042309 9.3125 -0.1875 C10.19357422 -0.21263672 11.07464844 -0.23777344 11.98242188 -0.26367188 C13.25375977 -0.27817383 13.25375977 -0.27817383 14.55078125 -0.29296875 C15.72120972 -0.31653442 15.72120972 -0.31653442 16.9152832 -0.34057617 C19.54453765 0.08896007 20.37484825 0.93092098 22 3 C22.94140625 5.3828125 22.94140625 5.3828125 23 8 C21.33984375 10.4296875 21.33984375 10.4296875 18.9375 12.875 C18.11121094 13.73609375 17.28492188 14.5971875 16.43359375 15.484375 C15.63050781 16.31453125 14.82742187 17.1446875 14 18 C12.82148135 19.36485527 11.65275286 20.7383144 10.5 22.125 C9.675 23.07375 8.85 24.0225 8 25 C7.67 25 7.34 25 7 25 C6.99742187 23.68644531 6.99484375 22.37289062 6.9921875 21.01953125 C6.95465862 19.28382033 6.91551102 17.54814388 6.875 15.8125 C6.87757813 14.94818359 6.88015625 14.08386719 6.8828125 13.19335938 C6.81960129 8.3940258 6.81960129 8.3940258 4.60644531 4.30615234 C2.78754274 2.77411303 2.78754274 2.77411303 0 1 C0 0.67 0 0.34 0 0 Z " fill="#E2E1E0" transform="translate(176,24)"/>
<path d="M0 0 C1.27609323 0.90933009 2.54565553 1.82782853 3.8125 2.75 C4.87404297 3.51570313 4.87404297 3.51570313 5.95703125 4.296875 C8 6 8 6 11 10 C1.1 14.95 1.1 14.95 -9 20 C-10.65 18.35 -12.3 16.7 -14 15 C-14.598125 14.443125 -15.19625 13.88625 -15.8125 13.3125 C-17 12 -17 12 -17 10 C-15.85660156 9.44570312 -14.71320313 8.89140625 -13.53515625 8.3203125 C-12.04411537 7.58885848 -10.55323838 6.85707033 -9.0625 6.125 C-8.30775391 5.76019531 -7.55300781 5.39539063 -6.77539062 5.01953125 C-6.05673828 4.66503906 -5.33808594 4.31054688 -4.59765625 3.9453125 C-3.93258057 3.62062988 -3.26750488 3.29594727 -2.58227539 2.96142578 C-0.81950756 2.08247732 -0.81950756 2.08247732 0 0 Z " fill="#F9C576" transform="translate(156,111)"/>
<path d="M0 0 C1.29615234 -0.00128906 2.59230469 -0.00257812 3.92773438 -0.00390625 C4.60650635 -0.00181152 5.28527832 0.0002832 5.98461914 0.00244141 C8.05427414 0.0077812 10.12371125 0.00250057 12.19335938 -0.00390625 C13.49080078 -0.00261719 14.78824219 -0.00132813 16.125 0 C17.92215454 0.00169189 17.92215454 0.00169189 19.75561523 0.00341797 C22.62890625 0.1328125 22.62890625 0.1328125 24.62890625 1.1328125 C24.75390625 3.5078125 24.75390625 3.5078125 24.62890625 6.1328125 C21.83271493 8.92900382 20.07005912 8.39103639 16.16015625 8.3984375 C14.86722656 8.40101562 13.57429688 8.40359375 12.2421875 8.40625 C11.56752441 8.40206055 10.89286133 8.39787109 10.19775391 8.39355469 C8.13674468 8.3828532 6.07660706 8.39345193 4.015625 8.40625 C2.72269531 8.40367188 1.42976563 8.40109375 0.09765625 8.3984375 C-1.09408203 8.39618164 -2.28582031 8.39392578 -3.51367188 8.39160156 C-6.37109375 8.1328125 -6.37109375 8.1328125 -8.37109375 6.1328125 C-7.58866951 -0.28306627 -6.18725342 0.00583035 0 0 Z " fill="#888888" transform="translate(64.37109375,49.8671875)"/>
<path d="M0 0 C2.475 0.99 2.475 0.99 5 2 C5 2.99 5 3.98 5 5 C3.1875 6.0625 3.1875 6.0625 1 7 C0.01 6.67 -0.98 6.34 -2 6 C-1.34 4.02 -0.68 2.04 0 0 Z " fill="#A1A09F" transform="translate(132,118)"/>
</svg>
