<?xml version="1.0" encoding="UTF-8"?>
<svg version="1.1" xmlns="http://www.w3.org/2000/svg" width="512" height="512">
<path d="M0 0 C1.03409347 -0.04757063 2.06818693 -0.09514125 3.13361657 -0.14415342 C6.5943529 -0.29944661 10.05548509 -0.44075054 13.51687622 -0.5806427 C14.73144186 -0.63236696 15.9460075 -0.68409122 17.19737816 -0.73738289 C40.58753496 -1.73088814 63.98559929 -2.3473304 87.39182704 -2.80877901 C91.23938566 -2.88470586 95.08688587 -2.96328609 98.93435669 -3.04353333 C99.69987969 -3.0594525 100.46540268 -3.07537168 101.25412335 -3.09177325 C111.99799541 -3.32124255 122.72573363 -3.70908251 133.45945635 -4.22630991 C247.64668459 -9.72768537 247.64668459 -9.72768537 280.41681862 18.67195797 C285.00736721 22.84215413 289.29417559 27.2540447 293.493927 31.81462097 C294.4960561 32.89537443 294.4960561 32.89537443 295.51843023 33.99796128 C307.81683692 47.44171629 319.44065079 61.34090604 319.31765747 80.35295105 C319.15645627 82.40082263 318.97556281 84.4472892 318.77026367 86.49121094 C318.41523849 90.36454019 318.61091203 92.47503505 320.78448486 95.73556519 C323.0944438 98.36561794 325.45766368 100.73683133 328.02761841 103.09928894 C330.9603759 106.02300308 333.25511548 109.41040225 335.6111145 112.80290222 C336.107323 113.51083923 336.60353149 114.21877625 337.11477661 114.94816589 C342.80815341 123.2105392 347.75053375 131.907768 352.6111145 140.67790222 C352.95996704 141.30648132 353.30881958 141.93506042 353.66824341 142.58268738 C355.33867976 145.60235492 356.98893701 148.63204153 358.6111145 151.67790222 C359.2711145 151.01790222 359.9311145 150.35790222 360.6111145 149.67790222 C364.00708514 149.46113814 366.36889895 149.59716371 369.6111145 150.67790222 C369.86280396 150.1786322 370.11449341 149.67936218 370.37380981 149.16496277 C371.52620265 146.8931856 372.69344529 144.62936275 373.8611145 142.36540222 C374.25685669 141.57971863 374.65259888 140.79403503 375.06033325 139.98454285 C378.89897015 132.59044718 378.89897015 132.59044718 382.6111145 130.67790222 C390.06821117 129.5004659 395.54961766 132.40841495 401.6111145 136.67790222 C404.13104246 139.11689031 404.57313336 140.39492559 405.04470825 143.90837097 C404.50576863 148.59374696 402.89815342 151.88736378 400.6736145 155.99040222 C400.11383911 157.06257996 400.11383911 157.06257996 399.54275513 158.15641785 C398.57688184 160.00288912 397.59508818 161.84101268 396.6111145 163.67790222 C396.2811145 164.33790222 395.9511145 164.99790222 395.6111145 165.67790222 C396.817677 166.01821472 396.817677 166.01821472 398.0486145 166.36540222 C404.40171713 168.70601898 411.24647396 171.50939457 414.6111145 177.67790222 C418.06592418 189.11059477 410.09474959 199.89629521 404.95639038 209.70549011 C403.83374088 211.85532169 402.72265696 214.01078529 401.61453247 216.1681366 C398.1941888 222.82003254 394.75096941 229.45306483 391.16365051 236.01672363 C382.48788069 251.93049556 376.89361087 265.37750946 375.84500122 283.76921082 C372.2481734 328.50053304 347.64049825 370.98172119 318.88943481 404.19987488 C317.7256183 405.54550994 316.57023904 406.89843057 315.415802 408.25212097 C311.75830821 412.47616772 307.97832474 416.28927129 303.7048645 419.88883972 C302.2777064 421.10831437 300.88239971 422.36583074 299.5173645 423.65446472 C254.99160476 465.58797133 192.62488145 483.47709065 132.6111145 481.67790222 C70.83300875 478.60606271 12.26440394 450.25709827 -29.22824097 404.51383972 C-40.36894951 391.89655479 -49.79692804 378.12552495 -58.3888855 363.67790222 C-58.95083618 362.74010925 -58.95083618 362.74010925 -59.5241394 361.78337097 C-75.321809 335.03630766 -83.47608347 304.25615809 -87.3888855 273.67790222 C-87.54099487 272.49712097 -87.69310425 271.31633972 -87.849823 270.09977722 C-93.84736534 209.47597089 -74.60622028 147.99965134 -36.302948 100.95133972 C-34.3888855 98.67790222 -34.3888855 98.67790222 -32.91404724 97.53341675 C-29.67852236 94.6732817 -28.50264977 92.41919138 -27.84182739 88.11326599 C-27.56848089 83.53086124 -27.63705916 78.94942588 -27.68966675 74.36149597 C-27.68602959 72.65950624 -27.67932266 70.95752057 -27.66969299 69.2555542 C-27.65066739 64.78766404 -27.66461749 60.3205534 -27.6882019 55.85270691 C-27.72265472 48.69928244 -27.71675231 41.54605 -27.6920681 34.39261055 C-27.68970404 31.90080162 -27.70747089 29.40971711 -27.7273407 26.91799927 C-27.72758892 25.38410946 -27.72719081 23.85021936 -27.7260437 22.31632996 C-27.73690506 21.62889206 -27.74776642 20.94145416 -27.75895691 20.23318481 C-27.72682125 14.86485545 -26.32402196 10.91959496 -22.8107605 6.84977722 C-22.25904175 6.38055847 -21.707323 5.91133972 -21.1388855 5.42790222 C-20.59747925 4.94837097 -20.056073 4.46883972 -19.4982605 3.97477722 C-13.54799736 0.31646729 -6.7806493 0.27241737 0 0 Z M394.6111145 176.67790222 C377.85877858 203.37131298 377.85877858 203.37131298 376.50564575 233.72868347 C376.85690025 235.04979296 377.21807183 236.36861713 377.6111145 237.67790222 C381.75205232 233.06225372 384.28218979 227.80335322 387.0329895 222.30290222 C387.53783875 221.30081726 388.04268799 220.2987323 388.56283569 219.26628113 C389.6248232 217.15308438 390.68365772 215.03830051 391.73953247 212.92204285 C393.35825722 209.68361851 394.9938687 206.45410739 396.63064575 203.22477722 C397.66163368 201.16800655 398.69161621 199.11073153 399.7204895 197.05290222 C400.21103821 196.08820007 400.70158691 195.12349792 401.20700073 194.12956238 C401.65456726 193.2251239 402.10213379 192.32068542 402.56326294 191.38883972 C402.95979065 190.59783875 403.35631836 189.80683777 403.76486206 188.99186707 C404.72273817 186.37268213 404.89094501 184.44585626 404.6111145 181.67790222 C402.96156361 179.99632065 402.96156361 179.99632065 400.7361145 178.86540222 C400.01681763 178.44645691 399.29752075 178.0275116 398.556427 177.59587097 C396.66816346 176.53564929 396.66816346 176.53564929 394.6111145 176.67790222 Z " fill="#A5BCEC" transform="translate(92.38888549804688,26.322097778320313)"/>
<path d="M0 0 C1.11181641 -0.020625 2.22363281 -0.04125 3.36914062 -0.0625 C10.79182554 -0.09724633 17.15519762 0.89130391 24.1875 3.25 C25.93546875 3.83201172 25.93546875 3.83201172 27.71875 4.42578125 C39.76239198 9.03722838 49.51140853 14.68104752 59.1875 23.25 C59.82429687 23.80300781 60.46109375 24.35601562 61.1171875 24.92578125 C74.92360702 37.74602795 82.33233103 55.21775806 86.1875 73.25 C86.3632959 73.90242676 86.5390918 74.55485352 86.72021484 75.22705078 C91.23822567 94.78621362 83.67404089 118.24410102 74.265625 135.015625 C62.20883468 153.78070466 45.04806728 165.95561863 24.1875 173.25 C23.27226562 173.59160156 22.35703125 173.93320313 21.4140625 174.28515625 C-0.64188778 181.23827841 -25.61576704 175.63817968 -45.5625 165.4375 C-65.38360553 154.15743549 -80.91738709 134.44146965 -87.29296875 112.4765625 C-93.29496646 86.75371517 -89.78846326 61.81535735 -75.8125 39.25 C-73.34420506 35.71725287 -70.68373034 32.46179599 -67.8125 29.25 C-67.08546875 28.42886719 -66.3584375 27.60773438 -65.609375 26.76171875 C-55.94577882 16.47414865 -44.15392114 8.84725482 -30.8125 4.25 C-29.92691406 3.94449219 -29.04132813 3.63898438 -28.12890625 3.32421875 C-18.80591492 0.33007694 -9.72811984 0.04465 0 0 Z " fill="#FEA101" transform="translate(238.8125,60.75)"/>
<path d="M0 0 C0.33 0 0.66 0 1 0 C1 103.29 1 206.58 1 313 C-5.76452518 307.36289569 -5.76452518 307.36289569 -8.0078125 304.4609375 C-8.51352783 303.80786621 -9.01924316 303.15479492 -9.5402832 302.48193359 C-10.06323975 301.78664551 -10.58619629 301.09135742 -11.125 300.375 C-11.68340576 299.63717285 -12.24181152 298.8993457 -12.81713867 298.13916016 C-19.066231 289.7524752 -24.6565506 280.98516332 -30 272 C-30.56195068 271.06220703 -30.56195068 271.06220703 -31.13525391 270.10546875 C-46.9329235 243.35840544 -55.08719797 212.57825587 -59 182 C-59.15210938 180.81921875 -59.30421875 179.6384375 -59.4609375 178.421875 C-65.38260619 118.56500767 -46.67074078 58.35125305 -9.625 11.375 C-8.42394541 9.91066622 -7.2161624 8.45181079 -6 7 C-5.41089844 6.2884375 -4.82179687 5.576875 -4.21484375 4.84375 C-2.83892535 3.20435787 -1.42407293 1.59774036 0 0 Z " fill="#E7EFFF" transform="translate(64,118)"/>
<path d="M0 0 C11.23301248 4.74180445 11.23301248 4.74180445 14 10 C14.82232486 16.12669061 12.89455321 20.08893518 10.0625 25.3125 C9.68931641 26.02728516 9.31613281 26.74207031 8.93164062 27.47851562 C7.96576734 29.3249869 6.98397367 31.16311046 6 33 C5.67 33.66 5.34 34.32 5 35 C6.2065625 35.3403125 6.2065625 35.3403125 7.4375 35.6875 C13.79060263 38.02811676 20.63535946 40.83149235 24 47 C27.45465008 58.4321644 19.48297561 69.22231736 14.3458252 79.03225708 C12.44984172 82.65309553 10.56840678 86.2814686 8.6875 89.91015625 C8.30072083 90.65581345 7.91394165 91.40147064 7.51544189 92.16972351 C4.797631 97.42265043 2.13239108 102.69988527 -0.5 107.99609375 C-0.86007141 108.72026489 -1.22014282 109.44443604 -1.59112549 110.19055176 C-3.31148458 113.65473605 -5.0254543 117.12196508 -6.73339844 120.59228516 C-9.55146925 126.29341781 -12.40276824 131.86588372 -15.88232422 137.19506836 C-17.50443709 139.81461411 -18.79327074 142.57222386 -20.13183594 145.34423828 C-23.87481298 152.98773673 -27.83746669 160.35118544 -36 164 C-39.39042689 163.75216178 -40.57491523 163.42508477 -43 161 C-43.125 158.75 -43.125 158.75 -42 156 C-40.7967215 155.13967547 -39.55930017 154.32654037 -38.3046875 153.54296875 C-32.90740358 149.61274393 -30.72415408 144.5158818 -28 138.5625 C-26.97175107 136.40674088 -25.94180328 134.25179126 -24.91015625 132.09765625 C-24.41660645 131.05367676 -23.92305664 130.00969727 -23.41455078 128.93408203 C-21.00060502 123.92704023 -18.31236466 119.08040068 -15.62109375 114.21875 C-14.41391855 111.82185274 -13.45430706 109.61473752 -12.5546875 107.109375 C-10.97933683 102.76358005 -8.89260298 98.80477523 -6.6875 94.75 C-2.48979523 86.87789465 1.63443898 78.96958225 5.66635132 71.01135254 C6.30277798 69.75904284 6.94290938 68.50860865 7.58682251 67.26013184 C8.49721099 65.49346074 9.39340084 63.71949517 10.2890625 61.9453125 C10.81193848 60.91937988 11.33481445 59.89344727 11.87353516 58.83642578 C13.30758335 55.73416244 13.30758335 55.73416244 13 51 C10.03 49.35 7.06 47.7 4 46 C3.60627197 47.28100586 3.60627197 47.28100586 3.20458984 48.58789062 C1.96112857 52.11010683 0.44307091 55.27734768 -1.2734375 58.59375 C-1.75920761 59.53486633 -1.75920761 59.53486633 -2.25479126 60.49499512 C-2.94367359 61.8273236 -3.63466632 63.15856276 -4.32763672 64.48876953 C-5.34196402 66.43656167 -6.34933277 68.38781051 -7.35546875 70.33984375 C-10.3809258 76.18730376 -13.44071568 82.01138839 -16.63134766 87.77075195 C-25.40618214 103.61672217 -33.49021218 119.77580431 -41.53863525 135.99822998 C-44.76248907 142.49502265 -47.9930454 148.98848101 -51.2265625 155.48046875 C-51.57264935 156.17563662 -51.91873619 156.87080448 -52.27531052 157.58703804 C-56.5363752 166.14092288 -60.86619662 174.65049826 -65.35974121 183.08508301 C-71.16165904 194.00938189 -76.61053693 205.11633881 -82.125 216.1875 C-83.28366476 218.50986013 -84.4425178 220.83212634 -85.6015625 223.15429688 C-88.40320639 228.76845366 -91.20254998 234.38375239 -94 240 C-98.10620477 238.71285033 -101.88639161 237.18030854 -105.73046875 235.25 C-106.78041016 234.7240625 -107.83035156 234.198125 -108.91210938 233.65625 C-109.99298828 233.1096875 -111.07386719 232.563125 -112.1875 232 C-113.27998047 231.4534375 -114.37246094 230.906875 -115.49804688 230.34375 C-123.57777256 226.28148496 -123.57777256 226.28148496 -127 224 C-126.46966456 218.56087972 -124.50570012 214.74586182 -121.90625 210.0625 C-117.30163936 201.53918933 -112.91038471 192.92133047 -108.59375 184.25 C-107.93170396 182.92225032 -107.26959404 181.59453249 -106.60742188 180.2668457 C-104.56951571 176.1789409 -102.53450886 172.08959643 -100.5 168 C-97.80465598 162.582049 -95.10775169 157.16488376 -92.40625 151.75 C-92.0786972 151.09337372 -91.75114441 150.43674744 -91.41366577 149.76022339 C-87.28751717 141.49550381 -83.08364904 133.2795748 -78.74182129 125.12573242 C-72.5966857 113.53674976 -66.83948507 101.74508044 -61 90 C-42.25827052 52.30436109 -42.25827052 52.30436109 -34.97167969 39.38232422 C-31.66198753 33.50805894 -30.33492494 29.65921507 -31.765625 22.9609375 C-31.88164062 21.99027344 -31.88164062 21.99027344 -32 21 C-30 19 -30 19 -27.0625 18.8125 C-24 19 -24 19 -21 20 C-20.74831055 19.50072998 -20.49662109 19.00145996 -20.23730469 18.48706055 C-19.08491185 16.21528338 -17.91766921 13.95146053 -16.75 11.6875 C-16.35425781 10.90181641 -15.95851563 10.11613281 -15.55078125 9.30664062 C-11.91296827 2.29937792 -8.54617528 -1.7686621 0 0 Z " fill="#4E6AFE" transform="translate(483,157)"/>
<path d="M0 0 C3.11471843 3.11471843 2.72976715 6.79885059 3 11 C3.12157471 12.09546143 3.24314941 13.19092285 3.3684082 14.31958008 C4.13178703 26.04882347 0.45983256 34.27801241 -5.05053711 44.48510742 C-6.44221756 47.07126663 -7.7732583 49.68257321 -9.09960938 52.30273438 C-17.40968987 68.34576656 -17.40968987 68.34576656 -26 73 C-25.67 74.65 -25.34 76.3 -25 78 C-22.14140438 78.85353827 -20.53506589 79.20544339 -17.7109375 78.12109375 C-8.41668911 71.42239633 -4.6347644 61.20443208 -0.078125 51.00610352 C1 49 1 49 3 48 C4.33513581 99.26921521 -22.59513386 152.61836408 -56 190 C-56.33 190 -56.66 190 -57 190 C-57.28135319 180.24514683 -57.49288556 170.49174441 -57.62174606 160.73368073 C-57.68367926 156.19955002 -57.76726551 151.66824589 -57.90527344 147.13574219 C-58.5344913 125.88885769 -58.5128855 108.92919736 -46.57693481 90.47808838 C-44.17613712 86.70533327 -42.17430825 82.75005572 -40.13671875 78.7734375 C-39.32311636 77.23611684 -38.50846675 75.69935004 -37.69287109 74.16308594 C-34.42235826 67.93687395 -31.28323578 61.64495342 -28.14453125 55.3515625 C-27.84647457 54.75400902 -27.54841789 54.15645554 -27.24132919 53.54079437 C-25.09551799 49.23695557 -22.95362938 44.93116943 -20.8125 40.625 C-18.95592132 36.89123957 -17.0987717 33.15776955 -15.2384491 29.4258728 C-14.09224092 27.12607341 -12.94781834 24.82538276 -11.80561829 22.52359009 C-8.02052857 14.92972067 -4.06153601 7.44870736 0 0 Z " fill="#E6EEFE" transform="translate(467,241)"/>
<path d="M0 0 C17.56921892 17.56921892 31.36516135 39.10466914 41 62 C41.40089844 62.83789062 41.80179687 63.67578125 42.21484375 64.5390625 C43.79198186 69.48233119 41.42125196 73.52587978 39.19140625 77.9453125 C38.61471191 79.09418945 38.03801758 80.24306641 37.44384766 81.42675781 C36.81695465 82.65961856 36.18983338 83.89236327 35.5625 85.125 C34.91680853 86.40444763 34.27146654 87.68407169 33.62646484 88.96386719 C29.83051038 96.47857026 25.95899647 103.95094409 21.98852539 111.375 C19.20178093 116.62063662 16.53402982 121.91954574 13.8984375 127.2421875 C13.53718781 127.97058838 13.17593811 128.69898926 12.80374146 129.44946289 C10.979706 133.12938276 9.16288776 136.81262823 7.35595703 140.50097656 C6.68543961 141.85752978 6.01471341 143.21397982 5.34375 144.5703125 C4.88190811 145.52198807 4.88190811 145.52198807 4.41073608 146.4928894 C2.22681566 150.88659217 2.22681566 150.88659217 0 152 C0 101.84 0 51.68 0 0 Z " fill="#E6EEFF" transform="translate(410,118)"/>
<path d="M0 0 C67.32 0 134.64 0 204 0 C189.67385506 10.74460871 169.24710208 15.16025571 152 19 C150.90534424 19.2487085 150.90534424 19.2487085 149.78857422 19.50244141 C98.94499618 30.81857125 47.0111646 21.81617082 0 1 C0 0.67 0 0.34 0 0 Z " fill="#E6EEFE" transform="translate(135,484)"/>
<path d="M0 0 C6.76303878 2.12740618 12.95781729 5.19908558 19.3125 8.3125 C19.91747314 8.59826904 20.52244629 8.88403809 21.14575195 9.1784668 C22.91420281 10.01410319 24.67023824 10.87585713 26.42578125 11.73828125 C27.99453003 12.49685425 27.99453003 12.49685425 29.5949707 13.27075195 C32 15 32 15 32.78025818 17.31900024 C33.04258074 20.51951403 32.45807398 21.8323628 30.92089844 24.62524414 C30.44195129 25.51569931 29.96300415 26.40615448 29.46954346 27.32359314 C28.93818787 28.28028397 28.40683228 29.23697479 27.859375 30.22265625 C26.74080029 32.29854493 25.62433694 34.37557239 24.50976562 36.45361328 C23.928479 37.53072571 23.34719238 38.60783813 22.74829102 39.71759033 C19.92825452 45.01219802 17.25153865 50.37634413 14.578125 55.74609375 C14.05577271 56.79213776 13.53342041 57.83818176 12.99523926 58.91592407 C11.41163021 62.08885774 9.83075052 65.26314142 8.25 68.4375 C7.14862897 70.64527782 6.04706721 72.8529605 4.9453125 75.06054688 C2.29468912 80.37261011 -0.35363074 85.68581626 -3 91 C-7.10620477 89.71285033 -10.88639161 88.18030854 -14.73046875 86.25 C-15.78041016 85.7240625 -16.83035156 85.198125 -17.91210938 84.65625 C-18.99298828 84.1096875 -20.07386719 83.563125 -21.1875 83 C-22.27998047 82.4534375 -23.37246094 81.906875 -24.49804688 81.34375 C-32.57777256 77.28148496 -32.57777256 77.28148496 -36 75 C-35.47679153 69.46388875 -33.39815707 65.53145862 -30.7578125 60.76171875 C-29.84162585 59.06430823 -28.92802926 57.36549794 -28.01660156 55.66552734 C-27.52760376 54.75414001 -27.03860596 53.84275269 -26.53479004 52.90374756 C-23.79147647 47.71353268 -21.17555028 42.45985847 -18.5546875 37.20703125 C-18.00846741 36.11349335 -17.46224731 35.01995544 -16.8994751 33.89328003 C-15.22299736 30.53384135 -13.54894125 27.17320315 -11.875 23.8125 C-10.71633524 21.49013987 -9.5574822 19.16787366 -8.3984375 16.84570312 C-5.59679361 11.23154634 -2.79745002 5.61624761 0 0 Z " fill="#3340D4" transform="translate(392,306)"/>
<path d="M0 0 C5.98178476 3.47891678 10.45396694 7.31653992 14.3125 13.0625 C14.83714844 13.83851562 15.36179687 14.61453125 15.90234375 15.4140625 C20.89721814 24.35225878 21.05033276 36.26113421 18.54296875 46.07421875 C17.6228374 48.23341143 16.60082871 50.1053177 15.3125 52.0625 C14.755625 53.073125 14.19875 54.08375 13.625 55.125 C9.53785598 60.31677754 4.52124147 64.76682417 -1.0625 68.3125 C-3.79364277 70.13326185 -5.19295217 71.15206475 -6.6875 74.0625 C-6.87049251 75.53753055 -7.01212892 77.01795361 -7.125 78.5 C-7.46408749 82.7880439 -8.52862259 84.99934614 -11.6875 88.0625 C-14.94340406 89.69045203 -18.18032465 89.73308802 -21.6875 89.0625 C-25.18280361 86.36820346 -26.37613272 84.84803978 -27.12890625 80.53125 C-27.41877636 73.87358823 -26.03874446 68.7743695 -22.6875 63.0625 C-22.29820312 62.38445312 -21.90890625 61.70640625 -21.5078125 61.0078125 C-18.53746434 56.49077418 -15.19262445 53.9375814 -10.625 51.0625 C-5.49847328 47.78916493 -1.6328303 44.98495002 0.3125 39.0625 C1.23499103 33.12165775 0.82169768 28.09235 -2.6875 23.0625 C-7.44301492 18.5137466 -10.97169145 16.32962871 -17.5 15.6875 C-22.21627212 15.84767528 -25.92525705 17.21060706 -29.6875 20.0625 C-33.98636585 24.78581083 -35.1656862 29.68975442 -36.16015625 35.85546875 C-36.87690499 38.85519497 -38.21159566 40.28294375 -40.6875 42.0625 C-43.57611709 43.50680855 -45.48397701 43.43938506 -48.6875 43.0625 C-51.26035724 40.889865 -53.17746919 39.08256162 -54.6875 36.0625 C-55.47583103 26.12952896 -52.63011883 17.57770202 -46.31640625 9.83984375 C-34.40357218 -3.15857232 -16.29245997 -7.65144812 0 0 Z " fill="#FFFDFB" transform="translate(254.6875,91.9375)"/>
<path d="M0 0 C11.23301248 4.74180445 11.23301248 4.74180445 14 10 C14.82232486 16.12669061 12.89455321 20.08893518 10.0625 25.3125 C9.50272461 26.38467773 9.50272461 26.38467773 8.93164062 27.47851562 C7.96576734 29.3249869 6.98397367 31.16311046 6 33 C5.505 33.99 5.505 33.99 5 35 C5.804375 35.226875 6.60875 35.45375 7.4375 35.6875 C13.79060263 38.02811676 20.63535946 40.83149235 24 47 C27.45465008 58.4321644 19.48297561 69.22231736 14.3458252 79.03225708 C12.44984172 82.65309553 10.56840678 86.2814686 8.6875 89.91015625 C8.30072083 90.65581345 7.91394165 91.40147064 7.51544189 92.16972351 C4.797631 97.42265043 2.13239108 102.69988527 -0.5 107.99609375 C-0.86007141 108.72026489 -1.22014282 109.44443604 -1.59112549 110.19055176 C-3.31148458 113.65473605 -5.0254543 117.12196508 -6.73339844 120.59228516 C-9.55146925 126.29341781 -12.40276824 131.86588372 -15.88232422 137.19506836 C-17.50443709 139.81461411 -18.79327074 142.57222386 -20.13183594 145.34423828 C-23.87481298 152.98773673 -27.83746669 160.35118544 -36 164 C-39.39042689 163.75216178 -40.57491523 163.42508477 -43 161 C-43.125 158.75 -43.125 158.75 -42 156 C-40.7967215 155.13967547 -39.55930017 154.32654037 -38.3046875 153.54296875 C-32.90740358 149.61274393 -30.72415408 144.5158818 -28 138.5625 C-26.97175107 136.40674088 -25.94180328 134.25179126 -24.91015625 132.09765625 C-24.41660645 131.05367676 -23.92305664 130.00969727 -23.41455078 128.93408203 C-21.00060502 123.92704023 -18.31236466 119.08040068 -15.62109375 114.21875 C-14.41391855 111.82185274 -13.45430706 109.61473752 -12.5546875 107.109375 C-10.97933683 102.76358005 -8.89260298 98.80477523 -6.6875 94.75 C-2.48979523 86.87789465 1.63443898 78.96958225 5.66635132 71.01135254 C6.30277798 69.75904284 6.94290938 68.50860865 7.58682251 67.26013184 C8.49721099 65.49346074 9.39340084 63.71949517 10.2890625 61.9453125 C10.81193848 60.91937988 11.33481445 59.89344727 11.87353516 58.83642578 C13.01178271 55.97033128 13.2425868 54.04736559 13 51 C2.93589723 45.32088084 -7.19588423 39.7907962 -17.4375 34.4375 C-18.43789307 33.91317383 -19.43828613 33.38884766 -20.46899414 32.84863281 C-21.40606201 32.36104492 -22.34312988 31.87345703 -23.30859375 31.37109375 C-24.55854126 30.7203186 -24.55854126 30.7203186 -25.83374023 30.05639648 C-28.09264709 28.89601043 -28.09264709 28.89601043 -31 28 C-31.625 24.625 -31.625 24.625 -32 21 C-30 19 -30 19 -27.0625 18.8125 C-24 19 -24 19 -21 20 C-20.74831055 19.50072998 -20.49662109 19.00145996 -20.23730469 18.48706055 C-19.08491185 16.21528338 -17.91766921 13.95146053 -16.75 11.6875 C-16.35425781 10.90181641 -15.95851563 10.11613281 -15.55078125 9.30664062 C-11.91296827 2.29937792 -8.54617528 -1.7686621 0 0 Z " fill="#8FA2FE" transform="translate(483,157)"/>
<path d="M0 0 C4.21056883 1.64442791 7.02859318 4.75469233 10.14550781 7.90258789 C10.75081329 8.50599503 11.35611877 9.10940216 11.97976685 9.73109436 C13.97580325 11.72343095 15.96455709 13.7228674 17.953125 15.72265625 C19.33709868 17.10782196 20.72144214 18.4926183 22.10614014 19.87705994 C25.00420815 22.77669128 27.89888666 25.67965025 30.79101562 28.58520508 C34.50746674 32.31868543 38.23050665 36.04550924 41.95586014 39.77010441 C44.81276462 42.62728006 47.66706122 45.48704864 50.52046967 48.34771538 C51.89306995 49.72350795 53.26628569 51.09868678 54.64011383 52.47325325 C56.55330265 54.38859747 58.46316955 56.30719002 60.37207031 58.22680664 C60.94553192 58.79981506 61.51899353 59.37282349 62.10983276 59.9631958 C66 63.88552353 66 63.88552353 66 65 C58.26351895 65.11598804 50.52712835 65.20476267 42.78997517 65.25906086 C39.1969914 65.28512544 35.60460364 65.32046329 32.01196289 65.37719727 C28.54301814 65.43163335 25.07464561 65.46144416 21.60530663 65.47438622 C19.64148949 65.48808449 17.67790175 65.52710018 15.71443176 65.56648254 C5.78076761 65.56960653 5.78076761 65.56960653 2.71166992 62.59448242 C0.21788597 58.8145021 -0.1232914 56.96062571 -0.11352539 52.44873047 C-0.11344986 51.28767792 -0.11337433 50.12662537 -0.11329651 48.9303894 C-0.10813522 47.67203278 -0.10297394 46.41367615 -0.09765625 45.1171875 C-0.0962413 43.83264679 -0.09482635 42.54810608 -0.09336853 41.22463989 C-0.08954911 37.80843158 -0.07972373 34.39226574 -0.06866455 30.97607422 C-0.05843807 27.49056574 -0.05386826 24.0050504 -0.04882812 20.51953125 C-0.03810096 13.67967005 -0.02103142 6.83983706 0 0 Z " fill="#506CFE" transform="translate(344,28)"/>
<path d="M0 0 C0.84982547 -0.00382555 1.69965094 -0.00765109 2.57522869 -0.01159257 C5.43343411 -0.02194204 8.29143937 -0.01792675 11.1496582 -0.01396179 C13.19447008 -0.01830715 15.23928033 -0.02348971 17.28408813 -0.02944946 C22.84593628 -0.04286868 28.4077166 -0.04341496 33.96957779 -0.04088616 C38.60707366 -0.03981857 43.24455569 -0.0446943 47.88204861 -0.04949158 C58.81859301 -0.06059658 69.75510307 -0.0610184 80.69165039 -0.05497742 C91.98825828 -0.0489337 103.28474174 -0.06125652 114.58132839 -0.08254749 C124.26883713 -0.10013695 133.95630617 -0.1061691 143.6438303 -0.10290974 C149.43481896 -0.10109272 155.22571885 -0.1037748 161.01669312 -0.11762428 C166.46019346 -0.13015511 171.90349912 -0.12830369 177.34699631 -0.11521339 C179.34853556 -0.11283779 181.35008831 -0.11561724 183.35161209 -0.12383652 C186.07659697 -0.13422267 188.80091863 -0.1262693 191.52587891 -0.11352539 C192.32441127 -0.12089968 193.12294363 -0.12827396 193.94567394 -0.13587171 C199.25142068 -0.08339785 199.25142068 -0.08339785 201.78947449 1.62392902 C202.76293945 3.26069641 202.76293945 3.26069641 202.57543945 5.82319641 C201.76293945 8.26069641 201.76293945 8.26069641 199.76293945 10.26069641 C197.02421259 10.46061419 194.38625559 10.53431424 191.64613342 10.52139282 C190.37267686 10.52713114 190.37267686 10.52713114 189.0734939 10.53298539 C186.21218269 10.5433521 183.35107079 10.53931632 180.48974609 10.53535461 C178.44508172 10.53969906 176.40041897 10.54488131 174.35575867 10.55084229 C168.78971924 10.56427231 163.22374754 10.56480652 157.65769506 10.56227899 C153.01776403 10.56121198 148.37784686 10.56608569 143.73791879 10.57088441 C132.79515805 10.58199345 121.85243163 10.58240916 110.90966797 10.57637024 C99.60569648 10.57032808 88.30184938 10.58264446 76.99789912 10.60394031 C67.30616429 10.6215302 57.61446915 10.6275618 47.92271894 10.62430257 C42.12836194 10.62248539 36.33409366 10.62516904 30.53975105 10.63901711 C25.09216013 10.65154841 19.64476375 10.64969605 14.19717598 10.63660622 C12.19402502 10.6342306 10.19086057 10.6370101 8.18772507 10.64522934 C5.46049734 10.65561554 2.73393227 10.64766203 0.00672913 10.63491821 C-0.79248536 10.6422925 -1.59169984 10.64966678 -2.41513294 10.65726453 C-7.73444038 10.60470104 -7.73444038 10.60470104 -10.2288599 8.8974638 C-11.67714976 6.54623181 -11.6524968 4.96103207 -11.23706055 2.26069641 C-7.43712408 -0.27259457 -4.40226524 -0.0208352 0 0 Z " fill="#F8FAFD" transform="translate(160.237060546875,278.7393035888672)"/>
<path d="M0 0 C0.84700419 -0.00085442 1.69400838 -0.00170885 2.56667936 -0.00258917 C5.42113216 -0.00424381 8.27552693 0.00127716 11.12997437 0.00672913 C13.16965229 0.00701103 15.20933031 0.00685321 17.24900818 0.00628662 C22.80037442 0.00599876 28.35171922 0.01189366 33.90308046 0.01886058 C39.69936293 0.02509601 45.49564585 0.02569807 51.29193115 0.02688599 C62.27436077 0.02999874 73.25678047 0.03821139 84.23920572 0.04823548 C96.73961754 0.05939834 109.24002982 0.0649075 121.74044538 0.06993091 C147.46062591 0.08039404 173.18079763 0.09799241 198.90097046 0.12025452 C197.56763713 3.45358785 196.23430379 6.78692118 194.90097046 10.12025452 C168.48488937 10.19026364 142.06882214 10.24320294 115.65266705 10.27569103 C103.38782848 10.2911752 91.12304747 10.3122943 78.85824585 10.34657288 C68.1711388 10.37642782 57.48407343 10.39581823 46.79692584 10.40252 C41.13554242 10.40643888 35.47427825 10.41568092 29.81293297 10.43744469 C24.48850622 10.45774817 19.16424831 10.46410078 13.83978653 10.45957756 C11.88178021 10.46040552 9.92376846 10.46640756 7.96579552 10.47787094 C5.29978668 10.49271908 2.63442169 10.4892364 -0.03160095 10.48101807 C-0.81272493 10.48975659 -1.59384891 10.49849512 -2.39864331 10.50749844 C-7.57672526 10.46412538 -7.57672526 10.46412538 -10.11496258 8.79301929 C-11.09902954 7.12025452 -11.09902954 7.12025452 -10.91152954 3.99525452 C-10.64340454 3.04650452 -10.37527954 2.09775452 -10.09902954 1.12025452 C-6.92015931 -0.4691806 -3.49046965 -0.01271533 0 0 Z " fill="#F8FAFD" transform="translate(160.09902954101563,371.87974548339844)"/>
<path d="M0 0 C1.21486383 0.00669217 1.21486383 0.00669217 2.45427036 0.01351953 C3.31211408 0.01039954 4.16995779 0.00727956 5.05379677 0.00406504 C7.94508778 -0.00394947 10.83617093 0.00242206 13.72746372 0.00869775 C15.79345416 0.00598942 17.85944363 0.00242938 19.92543125 -0.00192237 C25.54925863 -0.01106743 31.17301291 -0.00749341 36.79684162 -0.0011642 C42.67093452 0.00388487 48.54502098 -0.00079259 54.41911411 -0.00393653 C64.28525515 -0.00757938 74.15136628 -0.00276873 84.01750278 0.00674462 C95.43848568 0.01762977 106.85939718 0.01410442 118.28037834 0.00309181 C128.07060865 -0.005972 137.86081742 -0.00727078 147.65105057 -0.00203085 C153.50515698 0.00109385 159.3592298 0.00148455 165.21333408 -0.00510383 C170.71588212 -0.01086352 176.21833773 -0.00690573 181.72087574 0.00468469 C183.74540777 0.00733867 185.76994751 0.00655369 187.79447651 0.00215936 C190.54820571 -0.00326853 193.30163475 0.00350427 196.05534458 0.01351953 C196.8652538 0.00905808 197.67516302 0.00459664 198.50961494 0 C204.0265074 0.03918674 204.0265074 0.03918674 206.25480747 2.26748681 C206.50480747 4.76748681 206.50480747 4.76748681 206.25480747 7.26748681 C203.69049471 9.83179957 202.00540294 9.51014288 198.50961494 9.53497362 C197.69970572 9.53051218 196.8897965 9.52605073 196.05534458 9.5214541 C194.76857901 9.52613407 194.76857901 9.52613407 193.45581818 9.53090858 C190.56452716 9.5389231 187.67344402 9.53255156 184.78215122 9.52627587 C182.71616079 9.5289842 180.65017132 9.53254424 178.58418369 9.53689599 C172.96035632 9.54604105 167.33660203 9.54246703 161.71277332 9.53613782 C155.83868043 9.53108876 149.96459396 9.53576621 144.09050083 9.53891015 C134.2243598 9.542553 124.35824866 9.53774236 114.49211216 9.528229 C103.07112926 9.51734385 91.65021777 9.5208692 80.2292366 9.53188181 C70.43900629 9.54094562 60.64879753 9.54224441 50.85856438 9.53700447 C45.00445796 9.53387978 39.15038514 9.53348908 33.29628086 9.54007745 C27.79373283 9.54583714 22.29127721 9.54187935 16.7887392 9.53028893 C14.76420718 9.52763495 12.73966743 9.52841993 10.71513844 9.53281426 C7.96140923 9.53824215 5.2079802 9.53146935 2.45427036 9.5214541 C1.23940653 9.52814626 1.23940653 9.52814626 0 9.53497362 C-5.51689245 9.49578688 -5.51689245 9.49578688 -7.74519253 7.26748681 C-7.99519253 4.76748681 -7.99519253 4.76748681 -7.74519253 2.26748681 C-5.18087977 -0.29682595 -3.495788 0.02483074 0 0 Z " fill="#FEFEFE" transform="translate(156.745192527771,325.7325131893158)"/>
<path d="M0 0 C1.17021881 0.00873852 1.17021881 0.00873852 2.3640784 0.01765358 C3.60395804 0.01509031 3.60395804 0.01509031 4.86888576 0.01247525 C7.65430638 0.00916616 10.43948909 0.02020727 13.22488773 0.03111184 C15.21530515 0.03167564 17.20572299 0.03135999 19.19614017 0.03022683 C24.61324049 0.02965112 30.03025291 0.04144053 35.44733274 0.05537474 C41.10347573 0.06784597 46.75962056 0.06904974 52.41577518 0.07142556 C63.13259979 0.07765096 73.84938379 0.09407609 84.56619048 0.11412454 C96.76430624 0.1364506 108.96242391 0.14746867 121.16055501 0.15751541 C146.25868196 0.17844142 171.35677281 0.21363795 196.4548682 0.25816262 C196.7848682 0.91816262 197.1148682 1.57816262 197.4548682 2.25816262 C198.3829932 2.25816262 199.3111182 2.25816262 200.2673682 2.25816262 C202.3298682 2.25816262 204.3923682 2.25816262 206.4548682 2.25816262 C206.5798682 4.63316262 206.5798682 4.63316262 206.4548682 7.25816262 C203.89055544 9.82247538 202.20546367 9.50081869 198.70967567 9.52564943 C197.89976645 9.52118798 197.08985723 9.51672654 196.25540531 9.5121299 C194.96863974 9.51680987 194.96863974 9.51680987 193.6558789 9.52158439 C190.76458789 9.5295989 187.87350474 9.52322736 184.98221195 9.51695168 C182.91622151 9.51966001 180.85023204 9.52322005 178.78424442 9.5275718 C173.16041704 9.53671686 167.53666276 9.53314284 161.91283405 9.52681363 C156.03874115 9.52176456 150.16465469 9.52644202 144.29056156 9.52958596 C134.42442052 9.5332288 124.55830939 9.52841816 114.69217288 9.51890481 C103.27118999 9.50801966 91.85027849 9.51154501 80.42929733 9.52255762 C70.63906702 9.53162143 60.84885825 9.53292021 51.0586251 9.52768028 C45.20451868 9.52455558 39.35044587 9.52416488 33.49634159 9.53075325 C27.99379355 9.53651294 22.49133794 9.53255516 16.98879993 9.52096474 C14.9642679 9.51831076 12.93972816 9.51909574 10.91519916 9.52349007 C8.16146996 9.52891796 5.40804092 9.52214516 2.65433109 9.5121299 C1.43946726 9.51882207 1.43946726 9.51882207 0.20006073 9.52564943 C-5.31683173 9.48646269 -5.31683173 9.48646269 -7.5451318 7.25816262 C-7.7951318 4.75816262 -7.7951318 4.75816262 -7.5451318 2.25816262 C-5.01682534 -0.27014384 -3.44827709 0.01940479 0 0 Z " fill="#FEFEFE" transform="translate(156.5451318025589,418.7418373823166)"/>
<path d="M0 0 C11.23301248 4.74180445 11.23301248 4.74180445 14 10 C14.79274663 16.06304366 12.96837497 20.14068225 10.25 25.375 C9.90195312 26.09816406 9.55390625 26.82132813 9.1953125 27.56640625 C6.58038271 32.72847135 6.58038271 32.72847135 4.18920898 33.84716797 C1.19475468 34.05621541 -0.49129735 33.1346079 -3.16796875 31.796875 C-4.14314453 31.31089844 -5.11832031 30.82492188 -6.12304688 30.32421875 C-7.13431641 29.80472656 -8.14558594 29.28523438 -9.1875 28.75 C-10.21037109 28.24597656 -11.23324219 27.74195313 -12.28710938 27.22265625 C-19.87062508 23.38812475 -19.87062508 23.38812475 -21 20 C-20.35083008 18.14648438 -20.35083008 18.14648438 -19.26953125 16.09375 C-18.87830078 15.34996094 -18.48707031 14.60617188 -18.08398438 13.83984375 C-17.66439453 13.06769531 -17.24480469 12.29554688 -16.8125 11.5 C-16.41224609 10.72785156 -16.01199219 9.95570313 -15.59960938 9.16015625 C-11.90661624 2.25300215 -8.44466352 -1.74765387 0 0 Z " fill="#323FD4" transform="translate(483,157)"/>
<path d="M0 0 C0.33 0.66 0.66 1.32 1 2 C2.64929319 2.70855782 4.32044035 3.36651628 6 4 C8.06776997 4.99415632 10.12568039 6.00896256 12.17578125 7.0390625 C13.33271484 7.61914062 14.48964844 8.19921875 15.68164062 8.796875 C16.89194917 9.40620614 18.10223535 10.01558169 19.3125 10.625 C20.54222476 11.24237268 21.77204156 11.85956205 23.00195312 12.4765625 C26.00221215 13.98257487 29.00152027 15.49044899 32 17 C32 17.99 32 18.98 32 20 C29.9087786 21.69648076 27.8549338 23.19487149 25.625 24.6875 C24.3384482 25.57871793 23.05330136 26.47196728 21.76953125 27.3671875 C20.81167725 28.03186035 20.81167725 28.03186035 19.83447266 28.70996094 C17.27334077 30.51100178 14.78203404 32.38809273 12.3125 34.3125 C11.54550781 34.90675781 10.77851563 35.50101562 9.98828125 36.11328125 C7.85256027 37.96433202 7.85256027 37.96433202 6.421875 40.69921875 C5.95265625 41.45847656 5.4834375 42.21773438 5 43 C1.9375 43.5 1.9375 43.5 -1 43 C-3 40 -3 40 -2.6875 37.4375 C-2 35 -2 35 -1 33 C-0.84373424 30.52167341 -0.74186802 28.06688669 -0.68359375 25.5859375 C-0.66281265 24.85629791 -0.64203156 24.12665833 -0.62062073 23.37490845 C-0.55518083 21.04170237 -0.49626632 18.70838279 -0.4375 16.375 C-0.39430947 14.79425905 -0.35069501 13.21352961 -0.30664062 11.6328125 C-0.19950519 7.75532496 -0.09822218 3.87772315 0 0 Z " fill="#8EA1FE" transform="translate(355,379)"/>
<path d="M0 0 C4.81721665 2.36316288 7.60160527 5.20321055 10 10 C10.94838947 15.32803075 9.99731458 19.45235029 7 24 C3.3200984 27.40390898 0.73471382 28.8690782 -4.3125 29.25 C-9.6375112 28.88898229 -12.69141877 27.41468242 -16.3125 23.5 C-19.14397449 19.30522298 -19.33763378 15.98009828 -19 11 C-15.610472 1.90179327 -9.16982239 -1.09790454 0 0 Z " fill="#FF4D68" transform="translate(37,479)"/>
<path d="M0 0 C4.03843343 2.60254599 6.29289779 5.25369336 7.8125 9.8125 C8.20864654 15.06144167 7.67807317 18.36592094 4.8125 22.8125 C1.1325984 26.21640898 -1.45278618 27.6815782 -6.5 28.0625 C-11.85180237 27.69966594 -14.90699363 26.23143949 -18.5 22.25 C-21.59306343 17.78224171 -21.84564288 14.16779957 -21.1875 8.8125 C-16.70124585 0.16043842 -9.49613573 -3.53777606 0 0 Z " fill="#00C99E" transform="translate(500.1875,410.1875)"/>
<path d="M0 0 C3.45305063 3.55461094 4.02508815 6.15507752 4.5 11.0625 C4.36755815 15.73328271 2.8584518 18.41976915 0.125 22.1875 C-3.68192846 25.65852301 -7.567548 25.64124094 -12.5078125 25.47265625 C-17.03267556 24.92758199 -19.15492994 22.98757785 -22.125 19.6875 C-25.04086686 15.52197591 -25.29172597 12.18821158 -24.875 7.1875 C-23.47846843 3.4836554 -21.60740899 0.75089153 -18.4375 -1.6875 C-11.70461354 -4.64340137 -6.19117763 -3.90313372 0 0 Z " fill="#00C99F" transform="translate(28.875,30.8125)"/>
<path d="M0 0 C3.54490365 2.91933242 4.83470246 5.65101645 6 10.0625 C6.15322644 14.58268003 5.36035424 17.82533225 3.125 21.75 C-0.63215814 25.41322919 -3.38080805 26.625484 -8.625 27.0625 C-13.39297502 26.99225359 -16.02759886 25.5412518 -19.875 22.75 C-23.34602301 18.94307154 -23.32874094 15.057452 -23.16015625 10.1171875 C-22.61508199 5.59232444 -20.67507785 3.47007006 -17.375 0.5 C-11.88781085 -3.34103241 -5.94758198 -2.58590521 0 0 Z " fill="#FFA100" transform="translate(478.875,6.25)"/>
<path d="M0 0 C3.96555921 2.06242614 6.45641003 4.09440339 8.03515625 8.2734375 C8.7331387 12.90629599 8.54724499 16.92791078 6.41015625 21.1484375 C3.41980499 25.08311021 1.00250516 26.79866167 -3.91796875 27.5859375 C-9.03030403 27.89814118 -12.00562468 26.6802074 -15.96484375 23.2734375 C-19.57805184 19.2989086 -19.46846318 15.00947627 -19.31640625 9.8671875 C-18.6794787 5.16807754 -16.23517313 3.29675839 -12.71484375 0.4609375 C-8.38534521 -1.40861869 -4.39356664 -1.62465884 0 0 Z " fill="#4F6BFE" transform="translate(121.96484375,363.7265625)"/>
<path d="M0 0 C3.94830496 2.2348896 5.4069234 3.75895453 7.3125 7.875 C7.97878082 12.16796843 7.82005884 15.67288695 6.125 19.6875 C2.75831397 23.75074176 -0.55988706 26.6664105 -5.875 27.1875 C-11.3872274 26.73567808 -14.76926227 24.916995 -18.625 20.8125 C-20.30520477 16.16722799 -20.45873069 11.74517899 -19.6875 6.875 C-18.06649612 3.62012713 -15.7398848 1.64674885 -12.8125 -0.5 C-8.24644722 -1.8429567 -4.50452842 -1.37426291 0 0 Z " fill="#4F6BFE" transform="translate(122.6875,271.125)"/>
<path d="M0 0 C4.01354394 2.04325873 6.62453347 4.19654646 9 8 C9.78623141 12.33737663 10.013156 16.96162661 8.015625 20.98046875 C5.16314634 24.54606708 2.13813578 26.62752744 -2.33203125 27.40625 C-7.22941222 27.59134786 -10.23658446 27.36596151 -14.0625 24.125 C-17.46306827 20.81244644 -18.2216097 18.55554437 -18.4375 13.8125 C-18.41655993 8.5007023 -17.20033382 5.97038536 -13.5078125 2.2421875 C-9.5672083 -1.004217 -4.86518637 -0.54555853 0 0 Z " fill="#4F6BFE" transform="translate(121,317)"/>
<path d="M0 0 C3.76367773 1.77919311 5.50626666 3.29231555 7.875 6.6875 C9.3172459 10.93411292 9.85635543 14.56756773 9 19 C6.93378562 22.86185306 4.03603178 25.34855948 0 27 C-4.29909896 27.74892176 -8.32735424 27.98072396 -12.171875 25.7265625 C-15.36916889 23.01811107 -17.7457226 20.94087689 -18.30859375 16.64453125 C-18.54496297 11.45157107 -18.60479101 7.94745615 -15.125 3.875 C-10.60867483 -0.68496116 -6.21227121 -0.67752881 0 0 Z " fill="#4F6BFE" transform="translate(121,410)"/>
<path d="M0 0 C2.875 2.4375 2.875 2.4375 5 5 C5.33 5.33 5.66 5.66 6 6 C6.43784542 9.85303968 6.30585252 11.54122122 4.125 14.8125 C1.23694003 17.78550291 0.41178991 17.95274542 -3.8125 18.4375 C-7.5555686 18.38977417 -7.95107056 18.04281326 -11 15.375 C-13.17817423 11.69933099 -13.79812987 10.16801155 -13 6 C-9.27891473 0.41837209 -6.70473214 -0.68183717 0 0 Z " fill="#FFFCF6" transform="translate(241,191)"/>
<path d="M0 0 C1 1 1 1 1.33984375 3.51171875 C0.87406869 8.29260527 -1.1104681 11.67045383 -3.4375 15.8125 C-3.85837891 16.58787109 -4.27925781 17.36324219 -4.71289062 18.16210938 C-7.7905707 23.7905707 -7.7905707 23.7905707 -9 25 C-11.4375 25.1875 -11.4375 25.1875 -14 25 C-14.66 24.34 -15.32 23.68 -16 23 C-15.75644531 17.13992647 -13.71136868 12.71645378 -11.0625 7.625 C-10.70220703 6.90183594 -10.34191406 6.17867187 -9.97070312 5.43359375 C-7.11956251 -0.16367309 -6.17595605 -1.58357847 0 0 Z " fill="#3240D5" transform="translate(457,223)"/>
<path d="M0 0 C3.34373475 0.55728913 6.03312999 1.35173889 9 3 C7.125 8.875 7.125 8.875 6 10 C3.0625 10.25 3.0625 10.25 0 10 C-2 7 -2 7 -1.6875 4.4375 C-1 2 -1 2 0 0 Z " fill="#5470FE" transform="translate(354,412)"/>
</svg>
